SplineFontDB: 3.2
FontName: Nunito-Regular
FullName: Nunito-Regular
FamilyName: Nunito
Weight: Book
Copyright: Copyright (c) 2011 by vernon adams. All rights reserved.
Version: 1.000
ItalicAngle: 0
UnderlinePosition: -205
UnderlineWidth: 102
Ascent: 1638
Descent: 410
InvalidEm: 0
sfntRevision: 0x00010000
LayerCount: 2
Layer: 0 1 "Hinten" 1
Layer: 1 1 "Vorne" 0
XUID: [1021 22 -876912747 1032]
StyleMap: 0x0040
FSType: 0
OS2Version: 3
OS2_WeightWidthSlopeOnly: 0
OS2_UseTypoMetrics: 0
CreationTime: 1305285014
ModificationTime: 1593598529
PfmFamily: 17
TTFWeight: 400
TTFWidth: 5
LineGap: 0
VLineGap: 0
Panose: 2 0 5 3 3 0 0 2 0 3
OS2TypoAscent: 2030
OS2TypoAOffset: 0
OS2TypoDescent: -675
OS2TypoDOffset: 0
OS2TypoLinegap: 0
OS2WinAscent: 2030
OS2WinAOffset: 0
OS2WinDescent: 675
OS2WinDOffset: 0
HheadAscent: 2030
HheadAOffset: 0
HheadDescent: -675
HheadDOffset: 0
OS2SubXSize: 5583
OS2SubYSize: 5155
OS2SubXOff: 0
OS2SubYOff: 645
OS2SupXSize: 5583
OS2SupYSize: 5155
OS2SupXOff: 0
OS2SupYOff: 3006
OS2StrikeYSize: 102
OS2StrikeYPos: 512
OS2CapHeight: 1438
OS2XHeight: 1040
OS2Vendor: 'newt'
OS2CodePages: 20000001.00000000
OS2UnicodeRanges: 800000ef.5000204b.00000000.00000000
Lookup: 258 0 0 "'kern' Horizontale Unterschneidung in Lateinisch Nachschlagetabelle 0" { "'kern' Horizontale Unterschneidung in Lateinisch Nachschlagetabelle 0 Subtabelle"  } ['kern' ('DFLT' <'dflt' > 'latn' <'dflt' > ) ]
DEI: 91125
TtTable: prep
PUSHW_1
 0
CALL
SVTCA[y-axis]
PUSHW_3
 1
 3
 2
CALL
SVTCA[y-axis]
PUSHW_8
 1
 71
 58
 45
 32
 18
 0
 8
CALL
PUSHW_8
 2
 54
 44
 35
 25
 15
 0
 8
CALL
PUSHW_8
 3
 44
 36
 25
 18
 12
 0
 8
CALL
SVTCA[y-axis]
PUSHW_3
 4
 4
 7
CALL
PUSHW_1
 0
DUP
RCVT
RDTG
ROUND[Black]
RTG
WCVTP
MPPEM
PUSHW_1
 96
GT
IF
PUSHB_1
 1
ELSE
PUSHB_1
 0
EIF
PUSHB_1
 1
INSTCTRL
EndTTInstrs
TtTable: fpgm
PUSHW_1
 0
FDEF
MPPEM
PUSHW_1
 8
LT
IF
PUSHB_2
 1
 1
INSTCTRL
EIF
PUSHW_1
 511
SCANCTRL
PUSHW_1
 68
SCVTCI
PUSHW_2
 8
 3
SDS
SDB
ENDF
PUSHW_1
 1
FDEF
DUP
DUP
RCVT
ROUND[Black]
WCVTP
PUSHB_1
 1

StartChar: exclam
Encoding: 33 33 4
Width: 785
GlyphClass: 2
Flags: W
LayerCount: 2
Fore
SplineSet
389 216 m 0,0,1
 423 216 423 216 449 206.5 c 128,-1,2
 475 197 475 197 492.5 182 c 128,-1,3
 510 167 510 167 519 148 c 128,-1,4
 528 129 528 129 528 109 c 0,5,6
 528 88 528 88 519 68.5 c 128,-1,7
 510 49 510 49 492.5 34 c 128,-1,8
 475 19 475 19 449 9.5 c 128,-1,9
 423 0 423 0 389 0 c 0,10,11
 354 0 354 0 328 9.5 c 128,-1,12
 302 19 302 19 284.5 34 c 128,-1,13
 267 49 267 49 258 68.5 c 128,-1,14
 249 88 249 88 249 109 c 0,15,16
 249 128 249 128 258 147.5 c 128,-1,17
 267 167 267 167 284.5 182 c 128,-1,18
 302 197 302 197 328 206.5 c 128,-1,19
 354 216 354 216 389 216 c 0,0,1
252 1364 m 2,20,21
 252 1366 252 1366 251.5 1368.5 c 128,-1,22
 251 1371 251 1371 251 1374 c 0,23,24
 251 1400 251 1400 262.5 1419.5 c 128,-1,25
 274 1439 274 1439 293 1452.5 c 128,-1,26
 312 1466 312 1466 336.5 1472.5 c 128,-1,27
 361 1479 361 1479 386 1479 c 256,28,29
 411 1479 411 1479 434.5 1472.5 c 128,-1,30
 458 1466 458 1466 476 1452.5 c 128,-1,31
 494 1439 494 1439 505 1418.5 c 128,-1,32
 516 1398 516 1398 516 1370 c 2,33,-1
 516 1364 l 1,34,-1
 484 491 l 2,35,36
 483 462 483 462 474 440.5 c 128,-1,37
 465 419 465 419 450.5 404.5 c 128,-1,38
 436 390 436 390 418.5 382.5 c 128,-1,39
 401 375 401 375 383 375 c 256,40,41
 365 375 365 375 347.5 382.5 c 128,-1,42
 330 390 330 390 316 404.5 c 128,-1,43
 302 419 302 419 293 440.5 c 128,-1,44
 284 462 284 462 283 491 c 2,45,-1
 252 1364 l 2,20,21
EndSplineSet
EndChar

StartChar: quotedbl
Encoding: 34 34 5
Width: 762
GlyphClass: 2
Flags: W
LayerCount: 2
Fore
SplineSet
436 1387 m 2,0,1
 436 1389 436 1389 435.5 1391.5 c 128,-1,2
 435 1394 435 1394 435 1396 c 0,3,4
 435 1416 435 1416 444 1431.5 c 128,-1,5
 453 1447 453 1447 467 1457.5 c 128,-1,6
 481 1468 481 1468 499.5 1473 c 128,-1,7
 518 1478 518 1478 537 1478 c 256,8,9
 556 1478 556 1478 573.5 1473 c 128,-1,10
 591 1468 591 1468 605 1457.5 c 128,-1,11
 619 1447 619 1447 627.5 1432 c 128,-1,12
 636 1417 636 1417 636 1396 c 2,13,-1
 636 1387 l 1,14,-1
 606 1042 l 2,15,16
 602 1002 602 1002 581 982 c 128,-1,17
 560 962 560 962 535 962 c 0,18,19
 511 962 511 962 490.5 982 c 128,-1,20
 470 1002 470 1002 466 1042 c 2,21,-1
 436 1387 l 2,0,1
119 1387 m 2,22,23
 119 1389 119 1389 118.5 1391.5 c 128,-1,24
 118 1394 118 1394 118 1396 c 0,25,26
 118 1416 118 1416 127 1431.5 c 128,-1,27
 136 1447 136 1447 150.5 1457.5 c 128,-1,28
 165 1468 165 1468 183 1473 c 128,-1,29
 201 1478 201 1478 220 1478 c 256,30,31
 239 1478 239 1478 257 1473 c 128,-1,32
 275 1468 275 1468 289 1457.5 c 128,-1,33
 303 1447 303 1447 311.5 1432 c 128,-1,34
 320 1417 320 1417 320 1396 c 2,35,-1
 320 1387 l 1,36,-1
 289 1042 l 2,37,38
 285 1002 285 1002 264 982 c 128,-1,39
 243 962 243 962 219 962 c 256,40,41
 195 962 195 962 174 982 c 128,-1,42
 153 1002 153 1002 149 1042 c 2,43,-1
 119 1387 l 2,22,23
EndSplineSet
EndChar

StartChar: numbersign
Encoding: 35 35 6
Width: 1230
GlyphClass: 2
Flags: W
LayerCount: 2
Fore
SplineSet
700 445 m 1,0,-1
 463 445 l 1,1,-1
 402 30 l 2,2,3
 397 -6 397 -6 373 -23.5 c 128,-1,4
 349 -41 349 -41 322 -41 c 0,5,6
 292 -41 292 -41 266.5 -20.5 c 128,-1,7
 241 0 241 0 241 39 c 0,8,9
 241 47 241 47 242 52 c 2,10,-1
 299 445 l 1,11,-1
 179 445 l 2,12,13
 141 445 141 445 121.5 469.5 c 128,-1,14
 102 494 102 494 102 523 c 256,15,16
 102 552 102 552 121.5 576 c 128,-1,17
 141 600 141 600 179 600 c 2,18,-1
 321 600 l 1,19,-1
 358 858 l 1,20,-1
 236 858 l 2,21,22
 198 858 198 858 178.5 882.5 c 128,-1,23
 159 907 159 907 159 936 c 256,24,25
 159 965 159 965 178.5 989 c 128,-1,26
 198 1013 198 1013 236 1013 c 2,27,-1
 380 1013 l 1,28,-1
 435 1392 l 2,29,30
 440 1429 440 1429 464.5 1446.5 c 128,-1,31
 489 1464 489 1464 518 1464 c 0,32,33
 548 1464 548 1464 573 1444 c 128,-1,34
 598 1424 598 1424 598 1386 c 0,35,36
 598 1382 598 1382 598 1378 c 128,-1,37
 598 1374 598 1374 597 1370 c 2,38,-1
 544 1013 l 1,39,-1
 781 1013 l 1,40,-1
 836 1392 l 2,41,42
 841 1429 841 1429 865.5 1446.5 c 128,-1,43
 890 1464 890 1464 919 1464 c 0,44,45
 949 1464 949 1464 974 1444 c 128,-1,46
 999 1424 999 1424 999 1386 c 0,47,48
 999 1382 999 1382 999 1378 c 128,-1,49
 999 1374 999 1374 998 1370 c 2,50,-1
 945 1013 l 1,51,-1
 1050 1013 l 2,52,53
 1088 1013 1088 1013 1107.5 988.5 c 128,-1,54
 1127 964 1127 964 1127 935 c 256,55,56
 1127 906 1127 906 1108 882 c 128,-1,57
 1089 858 1089 858 1050 858 c 2,58,-1
 923 858 l 1,59,-1
 886 600 l 1,60,-1
 993 600 l 2,61,62
 1031 600 1031 600 1050.5 575.5 c 128,-1,63
 1070 551 1070 551 1070 522 c 256,64,65
 1070 493 1070 493 1051 469 c 128,-1,66
 1032 445 1032 445 993 445 c 2,67,-1
 864 445 l 1,68,-1
 803 30 l 2,69,70
 798 -6 798 -6 774.5 -23.5 c 128,-1,71
 751 -41 751 -41 723 -41 c 0,72,73
 693 -41 693 -41 668 -21 c 128,-1,74
 643 -1 643 -1 643 37 c 0,75,76
 643 47 643 47 644 52 c 2,77,-1
 700 445 l 1,0,-1
485 600 m 1,78,-1
 722 600 l 1,79,-1
 759 858 l 1,80,-1
 522 858 l 1,81,-1
 485 600 l 1,78,-1
EndSplineSet
EndChar

StartChar: dollar
Encoding: 36 36 7
Width: 1319
GlyphClass: 2
Flags: W
LayerCount: 2
Fore
SplineSet
561 -40 m 1,0,1
 507 -38 507 -38 454 -30 c 128,-1,2
 401 -22 401 -22 352 -11 c 128,-1,3
 303 0 303 0 260 13 c 128,-1,4
 217 26 217 26 183 39 c 0,5,6
 145 53 145 53 127.5 79.5 c 128,-1,7
 110 106 110 106 110 134 c 0,8,9
 110 152 110 152 116.5 169.5 c 128,-1,10
 123 187 123 187 134.5 200 c 128,-1,11
 146 213 146 213 162 221 c 128,-1,12
 178 229 178 229 198 229 c 0,13,14
 213 229 213 229 231 223 c 0,15,16
 270 210 270 210 310 198 c 128,-1,17
 350 186 350 186 395.5 176.5 c 128,-1,18
 441 167 441 167 495 161 c 128,-1,19
 549 155 549 155 615 155 c 0,20,21
 673 155 673 155 727 168 c 128,-1,22
 781 181 781 181 823 206.5 c 128,-1,23
 865 232 865 232 890.5 270.5 c 128,-1,24
 916 309 916 309 916 361 c 0,25,26
 916 409 916 409 894.5 444.5 c 128,-1,27
 873 480 873 480 836.5 506.5 c 128,-1,28
 800 533 800 533 750 553 c 128,-1,29
 700 573 700 573 643 591 c 128,-1,30
 586 609 586 609 524 626 c 128,-1,31
 462 643 462 643 402 664 c 0,32,33
 331 688 331 688 273 720.5 c 128,-1,34
 215 753 215 753 173.5 797.5 c 128,-1,35
 132 842 132 842 109 901 c 128,-1,36
 86 960 86 960 86 1037 c 0,37,38
 86 1123 86 1123 121.5 1192.5 c 128,-1,39
 157 1262 157 1262 220.5 1313 c 128,-1,40
 284 1364 284 1364 371 1395 c 128,-1,41
 458 1426 458 1426 561 1434 c 1,42,-1
 561 1511 l 2,43,44
 561 1541 561 1541 580 1556.5 c 128,-1,45
 599 1572 599 1572 622 1572 c 256,46,47
 645 1572 645 1572 663.5 1557 c 128,-1,48
 682 1542 682 1542 682 1511 c 2,49,-1
 682 1434 l 1,50,51
 725 1432 725 1432 770.5 1427.5 c 128,-1,52
 816 1423 816 1423 861 1415.5 c 128,-1,53
 906 1408 906 1408 948 1397 c 128,-1,54
 990 1386 990 1386 1026 1373 c 0,55,56
 1065 1358 1065 1358 1083 1331 c 128,-1,57
 1101 1304 1101 1304 1101 1275 c 0,58,59
 1101 1240 1101 1240 1078 1213.5 c 128,-1,60
 1055 1187 1055 1187 1012 1187 c 0,61,62
 1004 1186 1004 1186 995.5 1188 c 128,-1,63
 987 1190 987 1190 977 1192 c 0,64,65
 944 1200 944 1200 901.5 1209 c 128,-1,66
 859 1218 859 1218 813.5 1225 c 128,-1,67
 768 1232 768 1232 721.5 1236.5 c 128,-1,68
 675 1241 675 1241 634 1241 c 0,69,70
 584 1241 584 1241 532.5 1230.5 c 128,-1,71
 481 1220 481 1220 440 1198.5 c 128,-1,72
 399 1177 399 1177 373 1143 c 128,-1,73
 347 1109 347 1109 347 1062 c 0,74,75
 347 1019 347 1019 363 986.5 c 128,-1,76
 379 954 379 954 407 929 c 128,-1,77
 435 904 435 904 472 885.5 c 128,-1,78
 509 867 509 867 550 852 c 0,79,80
 618 828 618 828 691.5 807.5 c 128,-1,81
 765 787 765 787 835 762.5 c 128,-1,82
 905 738 905 738 968 707 c 128,-1,83
 1031 676 1031 676 1078.5 632 c 128,-1,84
 1126 588 1126 588 1154 528.5 c 128,-1,85
 1182 469 1182 469 1182 387 c 0,86,87
 1182 294 1182 294 1144 219 c 128,-1,88
 1106 144 1106 144 1039.5 89 c 128,-1,89
 973 34 973 34 881.5 1.5 c 128,-1,90
 790 -31 790 -31 682 -39 c 1,91,-1
 682 -132 l 2,92,93
 682 -161 682 -161 662.5 -176.5 c 128,-1,94
 643 -192 643 -192 620 -192 c 256,95,96
 597 -192 597 -192 579 -177.5 c 128,-1,97
 561 -163 561 -163 561 -132 c 2,98,-1
 561 -40 l 1,0,1
EndSplineSet
EndChar

StartChar: percent
Encoding: 37 37 8
Width: 2083
GlyphClass: 2
Flags: W
LayerCount: 2
Fore
SplineSet
538 1294 m 256,0,1
 491 1294 491 1294 458.5 1273.5 c 128,-1,2
 426 1253 426 1253 405.5 1216.5 c 128,-1,3
 385 1180 385 1180 376 1130 c 128,-1,4
 367 1080 367 1080 367 1022 c 256,5,6
 367 964 367 964 376 914 c 128,-1,7
 385 864 385 864 405.5 827.5 c 128,-1,8
 426 791 426 791 458.5 770.5 c 128,-1,9
 491 750 491 750 538 750 c 256,10,11
 585 750 585 750 618 770.5 c 128,-1,12
 651 791 651 791 671.5 827.5 c 128,-1,13
 692 864 692 864 701 914 c 128,-1,14
 710 964 710 964 710 1022 c 256,15,16
 710 1080 710 1080 701 1130 c 128,-1,17
 692 1180 692 1180 671.5 1216.5 c 128,-1,18
 651 1253 651 1253 618 1273.5 c 128,-1,19
 585 1294 585 1294 538 1294 c 256,0,1
1343 1416 m 2,20,21
 1356 1439 1356 1439 1372.5 1448.5 c 128,-1,22
 1389 1458 1389 1458 1406 1458 c 0,23,24
 1431 1458 1431 1458 1450 1439.5 c 128,-1,25
 1469 1421 1469 1421 1469 1393 c 0,26,27
 1469 1375 1469 1375 1459 1356 c 2,28,-1
 684 -33 l 2,29,30
 673 -51 673 -51 658.5 -59 c 128,-1,31
 644 -67 644 -67 629 -67 c 0,32,33
 603 -67 603 -67 581.5 -48.5 c 128,-1,34
 560 -30 560 -30 560 -3 c 0,35,36
 560 4 560 4 561.5 11.5 c 128,-1,37
 563 19 563 19 568 27 c 2,38,-1
 1343 1416 l 2,20,21
538 1428 m 0,39,40
 636 1428 636 1428 704 1391.5 c 128,-1,41
 772 1355 772 1355 814 1296.5 c 128,-1,42
 856 1238 856 1238 874.5 1165.5 c 128,-1,43
 893 1093 893 1093 893 1022 c 0,44,45
 893 935 893 935 868 860.5 c 128,-1,46
 843 786 843 786 797 732 c 128,-1,47
 751 678 751 678 685.5 647 c 128,-1,48
 620 616 620 616 538 616 c 0,49,50
 454 616 454 616 388 645.5 c 128,-1,51
 322 675 322 675 277 728.5 c 128,-1,52
 232 782 232 782 208 856.5 c 128,-1,53
 184 931 184 931 184 1022 c 0,54,55
 184 1109 184 1109 209 1183.5 c 128,-1,56
 234 1258 234 1258 280 1312 c 128,-1,57
 326 1366 326 1366 391.5 1397 c 128,-1,58
 457 1428 457 1428 538 1428 c 0,39,40
1544 780 m 0,59,60
 1643 780 1643 780 1710.5 743.5 c 128,-1,61
 1778 707 1778 707 1819.5 648.5 c 128,-1,62
 1861 590 1861 590 1879.5 517.5 c 128,-1,63
 1898 445 1898 445 1898 374 c 0,64,65
 1898 287 1898 287 1873.5 212.5 c 128,-1,66
 1849 138 1849 138 1803 83.5 c 128,-1,67
 1757 29 1757 29 1691.5 -2 c 128,-1,68
 1626 -33 1626 -33 1544 -33 c 0,69,70
 1460 -33 1460 -33 1394 -3.5 c 128,-1,71
 1328 26 1328 26 1283 79.5 c 128,-1,72
 1238 133 1238 133 1214 208 c 128,-1,73
 1190 283 1190 283 1190 374 c 0,74,75
 1190 461 1190 461 1215 535.5 c 128,-1,76
 1240 610 1240 610 1286 664 c 128,-1,77
 1332 718 1332 718 1397.5 749 c 128,-1,78
 1463 780 1463 780 1544 780 c 0,59,60
1544 646 m 256,79,80
 1497 646 1497 646 1464 625.5 c 128,-1,81
 1431 605 1431 605 1411 568.5 c 128,-1,82
 1391 532 1391 532 1382 482 c 128,-1,83
 1373 432 1373 432 1373 374 c 256,84,85
 1373 316 1373 316 1382 266 c 128,-1,86
 1391 216 1391 216 1411 179.5 c 128,-1,87
 1431 143 1431 143 1464 122.5 c 128,-1,88
 1497 102 1497 102 1544 102 c 256,89,90
 1591 102 1591 102 1623.5 122.5 c 128,-1,91
 1656 143 1656 143 1676.5 179.5 c 128,-1,92
 1697 216 1697 216 1706 266 c 128,-1,93
 1715 316 1715 316 1715 374 c 256,94,95
 1715 432 1715 432 1706 482 c 128,-1,96
 1697 532 1697 532 1676.5 568.5 c 128,-1,97
 1656 605 1656 605 1623.5 625.5 c 128,-1,98
 1591 646 1591 646 1544 646 c 256,79,80
EndSplineSet
EndChar

StartChar: ampersand
Encoding: 38 38 9
Width: 1581
GlyphClass: 2
Flags: W
LayerCount: 2
Fore
SplineSet
1254 854 m 1,0,1
 1262 886 1262 886 1285.5 900.5 c 128,-1,2
 1309 915 1309 915 1338 915 c 0,3,4
 1357 915 1357 915 1376 909 c 128,-1,5
 1395 903 1395 903 1410 891 c 128,-1,6
 1425 879 1425 879 1434 861.5 c 128,-1,7
 1443 844 1443 844 1443 822 c 0,8,9
 1443 807 1443 807 1439 792 c 0,10,11
 1432 744 1432 744 1421 684 c 128,-1,12
 1410 624 1410 624 1393 559.5 c 128,-1,13
 1376 495 1376 495 1350.5 430 c 128,-1,14
 1325 365 1325 365 1289 309 c 1,15,-1
 1421 167 l 2,16,17
 1437 150 1437 150 1444 131.5 c 128,-1,18
 1451 113 1451 113 1451 95 c 0,19,20
 1451 73 1451 73 1441.5 52.5 c 128,-1,21
 1432 32 1432 32 1416.5 16.5 c 128,-1,22
 1401 1 1401 1 1380.5 -8.5 c 128,-1,23
 1360 -18 1360 -18 1338 -18 c 0,24,25
 1319 -18 1319 -18 1298.5 -10.5 c 128,-1,26
 1278 -3 1278 -3 1261 17 c 2,27,-1
 1126 164 l 1,28,29
 1040 74 1040 74 925.5 24.5 c 128,-1,30
 811 -25 811 -25 665 -25 c 0,31,32
 551 -25 551 -25 446.5 2.5 c 128,-1,33
 342 30 342 30 262.5 84.5 c 128,-1,34
 183 139 183 139 136 219.5 c 128,-1,35
 89 300 89 300 89 407 c 0,36,37
 89 486 89 486 119 549.5 c 128,-1,38
 149 613 149 613 200 666 c 128,-1,39
 251 719 251 719 318 763.5 c 128,-1,40
 385 808 385 808 460 850 c 1,41,42
 420 889 420 889 382.5 930.5 c 128,-1,43
 345 972 345 972 316 1017 c 128,-1,44
 287 1062 287 1062 269.5 1111 c 128,-1,45
 252 1160 252 1160 252 1213 c 0,46,47
 252 1289 252 1289 286.5 1344.5 c 128,-1,48
 321 1400 321 1400 378 1437 c 128,-1,49
 435 1474 435 1474 507.5 1492 c 128,-1,50
 580 1510 580 1510 655 1510 c 256,51,52
 730 1510 730 1510 803 1493 c 128,-1,53
 876 1476 876 1476 933.5 1440.5 c 128,-1,54
 991 1405 991 1405 1026.5 1351 c 128,-1,55
 1062 1297 1062 1297 1062 1224 c 0,56,57
 1062 1163 1062 1163 1040 1109 c 128,-1,58
 1018 1055 1018 1055 980.5 1006 c 128,-1,59
 943 957 943 957 892.5 913.5 c 128,-1,60
 842 870 842 870 785 830 c 1,61,-1
 1144 451 l 1,62,63
 1167 494 1167 494 1185.5 544.5 c 128,-1,64
 1204 595 1204 595 1218 647.5 c 128,-1,65
 1232 700 1232 700 1241 753 c 128,-1,66
 1250 806 1250 806 1254 854 c 1,0,1
601 714 m 1,67,68
 563 694 563 694 517.5 661.5 c 128,-1,69
 472 629 472 629 431.5 589.5 c 128,-1,70
 391 550 391 550 364 507 c 128,-1,71
 337 464 337 464 337 424 c 0,72,73
 337 357 337 357 364 305 c 128,-1,74
 391 253 391 253 436 217.5 c 128,-1,75
 481 182 481 182 540 163.5 c 128,-1,76
 599 145 599 145 663 145 c 0,77,78
 765 145 765 145 844.5 185 c 128,-1,79
 924 225 924 225 998 293 c 1,80,-1
 601 714 l 1,67,68
490 1213 m 0,81,82
 490 1181 490 1181 503.5 1146.5 c 128,-1,83
 517 1112 517 1112 538.5 1078.5 c 128,-1,84
 560 1045 560 1045 587.5 1013.5 c 128,-1,85
 615 982 615 982 643 956 c 1,86,87
 675 984 675 984 708 1013.5 c 128,-1,88
 741 1043 741 1043 767.5 1074.5 c 128,-1,89
 794 1106 794 1106 811 1140.5 c 128,-1,90
 828 1175 828 1175 828 1213 c 0,91,92
 828 1247 828 1247 813.5 1272 c 128,-1,93
 799 1297 799 1297 776 1313.5 c 128,-1,94
 753 1330 753 1330 722.5 1338 c 128,-1,95
 692 1346 692 1346 661 1346 c 0,96,97
 628 1346 628 1346 597.5 1338.5 c 128,-1,98
 567 1331 567 1331 543 1315 c 128,-1,99
 519 1299 519 1299 504.5 1274 c 128,-1,100
 490 1249 490 1249 490 1213 c 0,81,82
EndSplineSet
EndChar

StartChar: quotesingle
Encoding: 39 39 10
Width: 615
GlyphClass: 2
Flags: W
LayerCount: 2
Fore
SplineSet
206 1387 m 2,0,1
 206 1389 206 1389 205.5 1391.5 c 128,-1,2
 205 1394 205 1394 205 1396 c 0,3,4
 205 1416 205 1416 214 1431.5 c 128,-1,5
 223 1447 223 1447 237.5 1457.5 c 128,-1,6
 252 1468 252 1468 270 1473 c 128,-1,7
 288 1478 288 1478 307 1478 c 256,8,9
 326 1478 326 1478 344 1473 c 128,-1,10
 362 1468 362 1468 376 1457.5 c 128,-1,11
 390 1447 390 1447 398.5 1432 c 128,-1,12
 407 1417 407 1417 407 1396 c 2,13,-1
 407 1387 l 1,14,-1
 377 1042 l 2,15,16
 373 1002 373 1002 351.5 982 c 128,-1,17
 330 962 330 962 306 962 c 256,18,19
 282 962 282 962 261.5 982 c 128,-1,20
 241 1002 241 1002 237 1042 c 2,21,-1
 206 1387 l 2,0,1
EndSplineSet
EndChar

StartChar: parenleft
Encoding: 40 40 11
Width: 637
GlyphClass: 2
Flags: W
LayerCount: 2
Fore
SplineSet
350 -173 m 0,0,1
 308 -75 308 -75 272 23.5 c 128,-1,2
 236 122 236 122 209.5 221 c 128,-1,3
 183 320 183 320 167.5 419 c 128,-1,4
 152 518 152 518 152 618 c 0,5,6
 152 720 152 720 168 821.5 c 128,-1,7
 184 923 184 923 211 1023.5 c 128,-1,8
 238 1124 238 1124 274 1224.5 c 128,-1,9
 310 1325 310 1325 351 1426 c 0,10,11
 365 1461 365 1461 389.5 1477 c 128,-1,12
 414 1493 414 1493 441 1493 c 0,13,14
 459 1493 459 1493 476 1486.5 c 128,-1,15
 493 1480 493 1480 506 1468 c 128,-1,16
 519 1456 519 1456 527 1439 c 128,-1,17
 535 1422 535 1422 535 1402 c 0,18,19
 535 1383 535 1383 528 1363 c 0,20,21
 461 1177 461 1177 423.5 990 c 128,-1,22
 386 803 386 803 386 620 c 0,23,24
 386 443 386 443 422.5 259 c 128,-1,25
 459 75 459 75 526 -111 c 0,26,27
 533 -129 533 -129 533 -149 c 256,28,29
 533 -169 533 -169 525 -186 c 128,-1,30
 517 -203 517 -203 504.5 -215 c 128,-1,31
 492 -227 492 -227 475 -233.5 c 128,-1,32
 458 -240 458 -240 440 -240 c 0,33,34
 414 -240 414 -240 389.5 -224 c 128,-1,35
 365 -208 365 -208 350 -173 c 0,0,1
EndSplineSet
EndChar

StartChar: parenright
Encoding: 41 41 12
Width: 637
GlyphClass: 2
Flags: W
LayerCount: 2
Fore
SplineSet
292 -173 m 0,0,1
 277 -208 277 -208 252 -224 c 128,-1,2
 227 -240 227 -240 201 -240 c 0,3,4
 183 -240 183 -240 166.5 -233.5 c 128,-1,5
 150 -227 150 -227 137.5 -215 c 128,-1,6
 125 -203 125 -203 117 -186.5 c 128,-1,7
 109 -170 109 -170 109 -150 c 0,8,9
 109 -131 109 -131 116 -111 c 0,10,11
 182 73 182 73 219 257 c 128,-1,12
 256 441 256 441 256 621 c 0,13,14
 256 802 256 802 218.5 989 c 128,-1,15
 181 1176 181 1176 114 1363 c 0,16,17
 107 1381 107 1381 107 1401 c 256,18,19
 107 1421 107 1421 115 1438 c 128,-1,20
 123 1455 123 1455 136.5 1467 c 128,-1,21
 150 1479 150 1479 167 1486 c 128,-1,22
 184 1493 184 1493 202 1493 c 0,23,24
 229 1493 229 1493 253 1477 c 128,-1,25
 277 1461 277 1461 291 1426 c 0,26,27
 332 1325 332 1325 368 1224.5 c 128,-1,28
 404 1124 404 1124 431 1023 c 128,-1,29
 458 922 458 922 474 821 c 128,-1,30
 490 720 490 720 490 618 c 0,31,32
 490 518 490 518 474.5 418.5 c 128,-1,33
 459 319 459 319 432.5 220 c 128,-1,34
 406 121 406 121 370 23 c 128,-1,35
 334 -75 334 -75 292 -173 c 0,0,1
EndSplineSet
EndChar

StartChar: asterisk
Encoding: 42 42 13
Width: 1036
GlyphClass: 2
Flags: W
LayerCount: 2
Fore
SplineSet
629 1160 m 1,0,-1
 841 1167 l 2,1,2
 870 1167 870 1167 889.5 1148 c 128,-1,3
 909 1129 909 1129 909 1100 c 0,4,5
 909 1073 909 1073 889.5 1053.5 c 128,-1,6
 870 1034 870 1034 841 1034 c 2,7,-1
 627 1041 l 1,8,-1
 737 863 l 2,9,10
 742 855 742 855 744 845.5 c 128,-1,11
 746 836 746 836 746 828 c 0,12,13
 746 804 746 804 727.5 783.5 c 128,-1,14
 709 763 709 763 678 763 c 0,15,16
 661 763 661 763 645 771.5 c 128,-1,17
 629 780 629 780 620 796 c 2,18,-1
 516 982 l 1,19,-1
 414 796 l 2,20,21
 405 780 405 780 388.5 771.5 c 128,-1,22
 372 763 372 763 355 763 c 0,23,24
 325 763 325 763 306 783.5 c 128,-1,25
 287 804 287 804 287 828 c 0,26,27
 287 847 287 847 297 863 c 2,28,-1
 407 1041 l 1,29,-1
 195 1034 l 2,30,31
 167 1034 167 1034 147 1053.5 c 128,-1,32
 127 1073 127 1073 127 1100 c 0,33,34
 127 1129 127 1129 146.5 1148 c 128,-1,35
 166 1167 166 1167 195 1167 c 2,36,-1
 405 1160 l 1,37,-1
 295 1338 l 2,38,39
 285 1354 285 1354 285 1372 c 0,40,41
 285 1398 285 1398 304.5 1418.5 c 128,-1,42
 324 1439 324 1439 353 1439 c 0,43,44
 371 1439 371 1439 386.5 1430 c 128,-1,45
 402 1421 402 1421 413 1405 c 2,46,-1
 516 1214 l 1,47,-1
 621 1405 l 2,48,49
 630 1422 630 1422 646.5 1430 c 128,-1,50
 663 1438 663 1438 681 1439 c 0,51,52
 710 1439 710 1439 729 1418.5 c 128,-1,53
 748 1398 748 1398 748 1372 c 0,54,55
 748 1354 748 1354 739 1338 c 2,56,-1
 629 1160 l 1,0,-1
EndSplineSet
EndChar

StartChar: plus
Encoding: 43 43 14
Width: 1315
GlyphClass: 2
Flags: W
LayerCount: 2
Fore
SplineSet
742 584 m 1,0,-1
 1086 584 l 2,1,2
 1122 584 1122 584 1147 560 c 128,-1,3
 1172 536 1172 536 1172 501 c 0,4,5
 1172 467 1172 467 1147 442.5 c 128,-1,6
 1122 418 1122 418 1086 418 c 2,7,-1
 742 418 l 1,8,-1
 742 86 l 2,9,10
 742 69 742 69 735.5 54 c 128,-1,11
 729 39 729 39 717.5 27.5 c 128,-1,12
 706 16 706 16 690.5 9.5 c 128,-1,13
 675 3 675 3 657 3 c 0,14,15
 621 3 621 3 596.5 27 c 128,-1,16
 572 51 572 51 572 86 c 2,17,-1
 572 418 l 1,18,-1
 229 418 l 2,19,20
 211 418 211 418 195.5 424.5 c 128,-1,21
 180 431 180 431 168.5 442.5 c 128,-1,22
 157 454 157 454 150.5 469 c 128,-1,23
 144 484 144 484 144 501 c 0,24,25
 144 536 144 536 168.5 560 c 128,-1,26
 193 584 193 584 229 584 c 2,27,-1
 572 584 l 1,28,-1
 572 918 l 2,29,30
 572 953 572 953 596.5 977.5 c 128,-1,31
 621 1002 621 1002 657 1002 c 0,32,33
 692 1002 692 1002 717 977.5 c 128,-1,34
 742 953 742 953 742 918 c 2,35,-1
 742 584 l 1,0,-1
EndSplineSet
EndChar

StartChar: comma
Encoding: 44 44 15
Width: 615
GlyphClass: 2
Flags: W
LayerCount: 2
Fore
SplineSet
292 -232 m 1,0,-1
 91 -232 l 1,1,-1
 195 238 l 1,2,-1
 454 238 l 1,3,-1
 292 -232 l 1,0,-1
EndSplineSet
EndChar

StartChar: hyphen
Encoding: 45 45 16
Width: 649
GlyphClass: 2
Flags: W
LayerCount: 2
Fore
SplineSet
133 438 m 2,0,1
 113 438 113 438 95.5 445.5 c 128,-1,2
 78 453 78 453 65 465.5 c 128,-1,3
 52 478 52 478 44.5 495 c 128,-1,4
 37 512 37 512 37 531 c 0,5,6
 37 571 37 571 64.5 598 c 128,-1,7
 92 625 92 625 133 625 c 2,8,-1
 516 625 l 2,9,10
 557 625 557 625 584.5 598 c 128,-1,11
 612 571 612 571 612 531 c 0,12,13
 612 512 612 512 604.5 495 c 128,-1,14
 597 478 597 478 584 465.5 c 128,-1,15
 571 453 571 453 553.5 445.5 c 128,-1,16
 536 438 536 438 516 438 c 2,17,-1
 133 438 l 2,0,1
EndSplineSet
EndChar

StartChar: period
Encoding: 46 46 17
Width: 615
GlyphClass: 2
Flags: W
LayerCount: 2
Fore
SplineSet
171 126 m 0,0,1
 171 151 171 151 180.5 174 c 128,-1,2
 190 197 190 197 208 215 c 128,-1,3
 226 233 226 233 251 243.5 c 128,-1,4
 276 254 276 254 307 254 c 256,5,6
 338 254 338 254 363 243.5 c 128,-1,7
 388 233 388 233 406 215 c 128,-1,8
 424 197 424 197 433.5 174 c 128,-1,9
 443 151 443 151 443 126 c 0,10,11
 443 100 443 100 433.5 77 c 128,-1,12
 424 54 424 54 406 36 c 128,-1,13
 388 18 388 18 363 7.5 c 128,-1,14
 338 -3 338 -3 307 -3 c 256,15,16
 276 -3 276 -3 251 7.5 c 128,-1,17
 226 18 226 18 208 36 c 128,-1,18
 190 54 190 54 180.5 77 c 128,-1,19
 171 100 171 100 171 126 c 0,0,1
EndSplineSet
EndChar

StartChar: slash
Encoding: 47 47 18
Width: 626
GlyphClass: 2
Flags: W
LayerCount: 2
Fore
SplineSet
155 -85 m 2,0,1
 144 -116 144 -116 122.5 -130 c 128,-1,2
 101 -144 101 -144 76 -144 c 0,3,4
 60 -144 60 -144 44.5 -138.5 c 128,-1,5
 29 -133 29 -133 17 -122.5 c 128,-1,6
 5 -112 5 -112 -2.5 -97 c 128,-1,7
 -10 -82 -10 -82 -10 -63 c 0,8,9
 -10 -56 -10 -56 -9 -48 c 128,-1,10
 -8 -40 -8 -40 -5 -32 c 2,11,-1
 468 1389 l 2,12,13
 479 1421 479 1421 502 1435 c 128,-1,14
 525 1449 525 1449 550 1449 c 0,15,16
 566 1449 566 1449 581.5 1443.5 c 128,-1,17
 597 1438 597 1438 609 1427.5 c 128,-1,18
 621 1417 621 1417 628.5 1402 c 128,-1,19
 636 1387 636 1387 636 1368 c 0,20,21
 636 1360 636 1360 635 1352 c 128,-1,22
 634 1344 634 1344 631 1336 c 2,23,-1
 155 -85 l 2,0,1
EndSplineSet
EndChar

StartChar: zero
Encoding: 48 48 19
Width: 1230
GlyphClass: 2
Flags: W
LayerCount: 2
Fore
SplineSet
615 1258 m 0,0,1
 556 1258 556 1258 514 1236 c 128,-1,2
 472 1214 472 1214 442 1175 c 128,-1,3
 412 1136 412 1136 394 1084 c 128,-1,4
 376 1032 376 1032 366 972 c 128,-1,5
 356 912 356 912 352.5 847 c 128,-1,6
 349 782 349 782 349 718 c 256,7,8
 349 654 349 654 352.5 589 c 128,-1,9
 356 524 356 524 366 464 c 128,-1,10
 376 404 376 404 394 352 c 128,-1,11
 412 300 412 300 442 261 c 128,-1,12
 472 222 472 222 514 200 c 128,-1,13
 556 178 556 178 615 178 c 0,14,15
 673 178 673 178 715.5 200 c 128,-1,16
 758 222 758 222 788 261 c 128,-1,17
 818 300 818 300 836 352 c 128,-1,18
 854 404 854 404 864 464 c 128,-1,19
 874 524 874 524 877.5 589 c 128,-1,20
 881 654 881 654 881 718 c 256,21,22
 881 782 881 782 877.5 847 c 128,-1,23
 874 912 874 912 864 972 c 128,-1,24
 854 1032 854 1032 836 1084 c 128,-1,25
 818 1136 818 1136 788 1175 c 128,-1,26
 758 1214 758 1214 715.5 1236 c 128,-1,27
 673 1258 673 1258 615 1258 c 0,0,1
615 1448 m 0,28,29
 717 1448 717 1448 796 1420.5 c 128,-1,30
 875 1393 875 1393 934 1344 c 128,-1,31
 993 1295 993 1295 1033.5 1227 c 128,-1,32
 1074 1159 1074 1159 1099 1077.5 c 128,-1,33
 1124 996 1124 996 1135 905 c 128,-1,34
 1146 814 1146 814 1146 718 c 256,35,36
 1146 622 1146 622 1135 530.5 c 128,-1,37
 1124 439 1124 439 1099 358 c 128,-1,38
 1074 277 1074 277 1033.5 209 c 128,-1,39
 993 141 993 141 934 91.5 c 128,-1,40
 875 42 875 42 796 14.5 c 128,-1,41
 717 -13 717 -13 615 -13 c 256,42,43
 513 -13 513 -13 433.5 14.5 c 128,-1,44
 354 42 354 42 295 91.5 c 128,-1,45
 236 141 236 141 195.5 209 c 128,-1,46
 155 277 155 277 130 358 c 128,-1,47
 105 439 105 439 94 530.5 c 128,-1,48
 83 622 83 622 83 718 c 256,49,50
 83 814 83 814 94 905 c 128,-1,51
 105 996 105 996 130 1077.5 c 128,-1,52
 155 1159 155 1159 195.5 1227 c 128,-1,53
 236 1295 236 1295 295 1344 c 128,-1,54
 354 1393 354 1393 433 1420.5 c 128,-1,55
 512 1448 512 1448 615 1448 c 0,28,29
EndSplineSet
EndChar

StartChar: one
Encoding: 49 49 20
Width: 1230
GlyphClass: 2
Flags: W
LayerCount: 2
Fore
SplineSet
339 1047 m 2,0,1
 315 1033 315 1033 291 1033 c 0,2,3
 272 1033 272 1033 255.5 1041 c 128,-1,4
 239 1049 239 1049 226.5 1062 c 128,-1,5
 214 1075 214 1075 207 1092 c 128,-1,6
 200 1109 200 1109 200 1127 c 0,7,8
 200 1147 200 1147 210.5 1167.5 c 128,-1,9
 221 1188 221 1188 245 1202 c 2,10,-1
 605 1419 l 2,11,12
 621 1428 621 1428 639 1432 c 128,-1,13
 657 1436 657 1436 674 1437 c 0,14,15
 698 1437 698 1437 720.5 1429 c 128,-1,16
 743 1421 743 1421 760.5 1404.5 c 128,-1,17
 778 1388 778 1388 788.5 1364 c 128,-1,18
 799 1340 799 1340 799 1307 c 2,19,-1
 800 126 l 2,20,21
 800 94 800 94 788.5 70.5 c 128,-1,22
 777 47 777 47 758.5 31.5 c 128,-1,23
 740 16 740 16 716.5 8 c 128,-1,24
 693 0 693 0 669 0 c 256,25,26
 645 0 645 0 621.5 8 c 128,-1,27
 598 16 598 16 579.5 31.5 c 128,-1,28
 561 47 561 47 550 70.5 c 128,-1,29
 539 94 539 94 539 126 c 2,30,-1
 538 1173 l 1,31,-1
 339 1047 l 2,0,1
EndSplineSet
EndChar

StartChar: two
Encoding: 50 50 21
Width: 1230
GlyphClass: 2
Flags: W
LayerCount: 2
Fore
SplineSet
586 1229 m 0,0,1
 549 1229 549 1229 512 1222 c 128,-1,2
 475 1215 475 1215 439.5 1204 c 128,-1,3
 404 1193 404 1193 371 1179 c 128,-1,4
 338 1165 338 1165 311 1152 c 0,5,6
 297 1145 297 1145 284 1142.5 c 128,-1,7
 271 1140 271 1140 260 1140 c 0,8,9
 219 1140 219 1140 194 1167.5 c 128,-1,10
 169 1195 169 1195 169 1231 c 0,11,12
 169 1257 169 1257 185 1283.5 c 128,-1,13
 201 1310 201 1310 239 1330 c 0,14,15
 279 1351 279 1351 326.5 1369.5 c 128,-1,16
 374 1388 374 1388 423.5 1401.5 c 128,-1,17
 473 1415 473 1415 523 1423 c 128,-1,18
 573 1431 573 1431 619 1431 c 0,19,20
 716 1431 716 1431 800 1407.5 c 128,-1,21
 884 1384 884 1384 945.5 1338 c 128,-1,22
 1007 1292 1007 1292 1042 1225.5 c 128,-1,23
 1077 1159 1077 1159 1077 1072 c 0,24,25
 1077 999 1077 999 1048 921.5 c 128,-1,26
 1019 844 1019 844 969.5 766 c 128,-1,27
 920 688 920 688 854 610.5 c 128,-1,28
 788 533 788 533 714.5 460.5 c 128,-1,29
 641 388 641 388 564 321.5 c 128,-1,30
 487 255 487 255 415 198 c 1,31,-1
 994 198 l 2,32,33
 1018 198 1018 198 1036 189.5 c 128,-1,34
 1054 181 1054 181 1066 167 c 128,-1,35
 1078 153 1078 153 1084 135 c 128,-1,36
 1090 117 1090 117 1090 98 c 0,37,38
 1090 80 1090 80 1084 62 c 128,-1,39
 1078 44 1078 44 1066 30.5 c 128,-1,40
 1054 17 1054 17 1036 8.5 c 128,-1,41
 1018 0 1018 0 994 0 c 2,42,-1
 242 0 l 2,43,44
 171 0 171 0 137 34.5 c 128,-1,45
 103 69 103 69 103 117 c 0,46,47
 103 153 103 153 121.5 189 c 128,-1,48
 140 225 140 225 175 257 c 0,49,50
 186 267 186 267 207 285 c 128,-1,51
 228 303 228 303 253.5 326 c 128,-1,52
 279 349 279 349 308 374.5 c 128,-1,53
 337 400 337 400 365.5 426 c 128,-1,54
 394 452 394 452 419.5 477 c 128,-1,55
 445 502 445 502 465 522 c 0,56,57
 538 592 538 592 602.5 664 c 128,-1,58
 667 736 667 736 715 804.5 c 128,-1,59
 763 873 763 873 791 935.5 c 128,-1,60
 819 998 819 998 819 1048 c 0,61,62
 819 1093 819 1093 799.5 1127 c 128,-1,63
 780 1161 780 1161 748 1183.5 c 128,-1,64
 716 1206 716 1206 674 1217.5 c 128,-1,65
 632 1229 632 1229 586 1229 c 0,0,1
EndSplineSet
EndChar

StartChar: three
Encoding: 51 51 22
Width: 1230
GlyphClass: 2
Flags: W
LayerCount: 2
Fore
SplineSet
545 822 m 2,0,1
 604 823 604 823 655.5 836.5 c 128,-1,2
 707 850 707 850 745 878 c 128,-1,3
 783 906 783 906 805 947.5 c 128,-1,4
 827 989 827 989 827 1045 c 0,5,6
 827 1097 827 1097 806 1136 c 128,-1,7
 785 1175 785 1175 750 1201.5 c 128,-1,8
 715 1228 715 1228 668.5 1241 c 128,-1,9
 622 1254 622 1254 571 1254 c 0,10,11
 522 1254 522 1254 472.5 1245 c 128,-1,12
 423 1236 423 1236 380.5 1225.5 c 128,-1,13
 338 1215 338 1215 306.5 1206.5 c 128,-1,14
 275 1198 275 1198 263 1198 c 0,15,16
 241 1198 241 1198 224 1206 c 128,-1,17
 207 1214 207 1214 195 1227.5 c 128,-1,18
 183 1241 183 1241 176.5 1258.5 c 128,-1,19
 170 1276 170 1276 170 1294 c 0,20,21
 170 1324 170 1324 188 1351.5 c 128,-1,22
 206 1379 206 1379 247 1393 c 0,23,24
 319 1423 319 1423 404.5 1440.5 c 128,-1,25
 490 1458 490 1458 582 1458 c 0,26,27
 694 1458 694 1458 787 1432 c 128,-1,28
 880 1406 880 1406 947 1356 c 128,-1,29
 1014 1306 1014 1306 1050.5 1233 c 128,-1,30
 1087 1160 1087 1160 1087 1066 c 0,31,32
 1087 1003 1087 1003 1066 949.5 c 128,-1,33
 1045 896 1045 896 1009 854.5 c 128,-1,34
 973 813 973 813 924.5 785 c 128,-1,35
 876 757 876 757 822 746 c 1,36,-1
 822 742 l 1,37,38
 891 729 891 729 945 698 c 128,-1,39
 999 667 999 667 1037 620.5 c 128,-1,40
 1075 574 1075 574 1095 514 c 128,-1,41
 1115 454 1115 454 1115 385 c 0,42,43
 1115 278 1115 278 1073 201.5 c 128,-1,44
 1031 125 1031 125 960 76 c 128,-1,45
 889 27 889 27 795 4 c 128,-1,46
 701 -19 701 -19 598 -19 c 0,47,48
 555 -19 555 -19 509.5 -13.5 c 128,-1,49
 464 -8 464 -8 418 3 c 128,-1,50
 372 14 372 14 327.5 29 c 128,-1,51
 283 44 283 44 243 64 c 0,52,53
 209 78 209 78 193.5 102.5 c 128,-1,54
 178 127 178 127 178 153 c 0,55,56
 178 171 178 171 184.5 188 c 128,-1,57
 191 205 191 205 203.5 218 c 128,-1,58
 216 231 216 231 234 239 c 128,-1,59
 252 247 252 247 274 247 c 0,60,61
 279 247 279 247 284.5 246.5 c 128,-1,62
 290 246 290 246 296 245 c 0,63,64
 319 236 319 236 350.5 225.5 c 128,-1,65
 382 215 382 215 419 205.5 c 128,-1,66
 456 196 456 196 498 189.5 c 128,-1,67
 540 183 540 183 585 183 c 0,68,69
 644 183 644 183 692.5 196.5 c 128,-1,70
 741 210 741 210 775.5 236.5 c 128,-1,71
 810 263 810 263 829 302.5 c 128,-1,72
 848 342 848 342 848 395 c 0,73,74
 848 454 848 454 826 500.5 c 128,-1,75
 804 547 804 547 764.5 579 c 128,-1,76
 725 611 725 611 670.5 627.5 c 128,-1,77
 616 644 616 644 552 644 c 2,78,-1
 479 644 l 2,79,80
 457 644 457 644 441 651.5 c 128,-1,81
 425 659 425 659 414.5 671.5 c 128,-1,82
 404 684 404 684 398.5 699.5 c 128,-1,83
 393 715 393 715 393 732 c 0,84,85
 393 766 393 766 414.5 793 c 128,-1,86
 436 820 436 820 479 821 c 2,87,-1
 545 822 l 2,0,1
EndSplineSet
EndChar

StartChar: four
Encoding: 52 52 23
Width: 1230
GlyphClass: 2
Flags: W
LayerCount: 2
Fore
SplineSet
565 1306 m 2,0,1
 606 1380 606 1380 660 1408.5 c 128,-1,2
 714 1437 714 1437 781 1437 c 0,3,4
 817 1437 817 1437 850 1427 c 128,-1,5
 883 1417 883 1417 908 1395.5 c 128,-1,6
 933 1374 933 1374 948 1340 c 128,-1,7
 963 1306 963 1306 963 1258 c 2,8,-1
 963 478 l 1,9,-1
 1084 478 l 2,10,11
 1107 478 1107 478 1124 470 c 128,-1,12
 1141 462 1141 462 1152.5 449 c 128,-1,13
 1164 436 1164 436 1169.5 419.5 c 128,-1,14
 1175 403 1175 403 1175 385 c 0,15,16
 1175 368 1175 368 1169.5 351.5 c 128,-1,17
 1164 335 1164 335 1152.5 322 c 128,-1,18
 1141 309 1141 309 1124 301 c 128,-1,19
 1107 293 1107 293 1084 293 c 2,20,-1
 962 293 l 1,21,-1
 962 112 l 2,22,23
 962 83 962 83 951 61.5 c 128,-1,24
 940 40 940 40 922.5 25.5 c 128,-1,25
 905 11 905 11 883 3.5 c 128,-1,26
 861 -4 861 -4 838 -4 c 256,27,28
 815 -4 815 -4 793 3.5 c 128,-1,29
 771 11 771 11 753.5 25.5 c 128,-1,30
 736 40 736 40 724.5 61.5 c 128,-1,31
 713 83 713 83 712 112 c 2,32,-1
 712 293 l 1,33,-1
 160 293 l 2,34,35
 101 293 101 293 67.5 325.5 c 128,-1,36
 34 358 34 358 34 405 c 0,37,38
 34 422 34 422 39 441.5 c 128,-1,39
 44 461 44 461 56 480 c 2,40,-1
 565 1306 l 2,0,1
260 478 m 1,41,-1
 712 478 l 1,42,-1
 712 1224 l 1,43,-1
 260 478 l 1,41,-1
EndSplineSet
EndChar

StartChar: five
Encoding: 53 53 24
Width: 1230
GlyphClass: 2
Flags: W
LayerCount: 2
Fore
SplineSet
172 1317 m 2,0,1
 172 1380 172 1380 204.5 1408 c 128,-1,2
 237 1436 237 1436 303 1436 c 2,3,-1
 985 1436 l 2,4,5
 1007 1436 1007 1436 1023.5 1428 c 128,-1,6
 1040 1420 1040 1420 1051 1406.5 c 128,-1,7
 1062 1393 1062 1393 1067.5 1376.5 c 128,-1,8
 1073 1360 1073 1360 1073 1342 c 256,9,10
 1073 1324 1073 1324 1067.5 1307.5 c 128,-1,11
 1062 1291 1062 1291 1051 1277.5 c 128,-1,12
 1040 1264 1040 1264 1023.5 1256 c 128,-1,13
 1007 1248 1007 1248 985 1248 c 2,14,-1
 387 1248 l 1,15,-1
 381 793 l 1,16,17
 446 859 446 859 527 892.5 c 128,-1,18
 608 926 608 926 705 926 c 256,19,20
 802 926 802 926 881.5 890.5 c 128,-1,21
 961 855 961 855 1018 791.5 c 128,-1,22
 1075 728 1075 728 1106 641 c 128,-1,23
 1137 554 1137 554 1137 451 c 0,24,25
 1137 342 1137 342 1097 253.5 c 128,-1,26
 1057 165 1057 165 987 102.5 c 128,-1,27
 917 40 917 40 820.5 6 c 128,-1,28
 724 -28 724 -28 612 -28 c 0,29,30
 541 -28 541 -28 474.5 -15.5 c 128,-1,31
 408 -3 408 -3 351 23.5 c 128,-1,32
 294 50 294 50 249 90 c 128,-1,33
 204 130 204 130 176 184 c 1,34,35
 162 201 162 201 156.5 217.5 c 128,-1,36
 151 234 151 234 151 250 c 0,37,38
 151 285 151 285 174.5 310 c 128,-1,39
 198 335 198 335 231 335 c 0,40,41
 247 335 247 335 263.5 328 c 128,-1,42
 280 321 280 321 296 306 c 1,43,44
 339 232 339 232 418 195 c 128,-1,45
 497 158 497 158 591 158 c 0,46,47
 661 158 661 158 713.5 180.5 c 128,-1,48
 766 203 766 203 801 243.5 c 128,-1,49
 836 284 836 284 854 339.5 c 128,-1,50
 872 395 872 395 872 462 c 0,51,52
 872 526 872 526 855.5 580 c 128,-1,53
 839 634 839 634 807.5 673 c 128,-1,54
 776 712 776 712 731 733.5 c 128,-1,55
 686 755 686 755 629 755 c 0,56,57
 582 755 582 755 544.5 743.5 c 128,-1,58
 507 732 507 732 477.5 714 c 128,-1,59
 448 696 448 696 428 674.5 c 128,-1,60
 408 653 408 653 396 633 c 0,61,62
 380 598 380 598 346.5 578.5 c 128,-1,63
 313 559 313 559 277 559 c 0,64,65
 257 559 257 559 238 565.5 c 128,-1,66
 219 572 219 572 204.5 585.5 c 128,-1,67
 190 599 190 599 181 619.5 c 128,-1,68
 172 640 172 640 172 669 c 2,69,-1
 172 1317 l 2,0,1
EndSplineSet
EndChar

StartChar: six
Encoding: 54 54 25
Width: 1230
GlyphClass: 2
Flags: W
LayerCount: 2
Fore
SplineSet
1017 1368 m 0,0,1
 1043 1356 1043 1356 1054.5 1335 c 128,-1,2
 1066 1314 1066 1314 1066 1291 c 0,3,4
 1066 1272 1066 1272 1059.5 1253.5 c 128,-1,5
 1053 1235 1053 1235 1041 1220.5 c 128,-1,6
 1029 1206 1029 1206 1012.5 1197 c 128,-1,7
 996 1188 996 1188 977 1188 c 0,8,9
 964 1188 964 1188 953 1192 c 0,10,11
 889 1215 889 1215 827.5 1229.5 c 128,-1,12
 766 1244 766 1244 714 1244 c 0,13,14
 636 1244 636 1244 578.5 1223 c 128,-1,15
 521 1202 521 1202 479.5 1166 c 128,-1,16
 438 1130 438 1130 411 1080 c 128,-1,17
 384 1030 384 1030 368 973 c 128,-1,18
 352 916 352 916 346 853 c 128,-1,19
 340 790 340 790 340 727 c 1,20,-1
 343 726 l 1,21,22
 368 775 368 775 405.5 811 c 128,-1,23
 443 847 443 847 488.5 870 c 128,-1,24
 534 893 534 893 587 904.5 c 128,-1,25
 640 916 640 916 696 916 c 0,26,27
 798 916 798 916 881.5 884 c 128,-1,28
 965 852 965 852 1024.5 792.5 c 128,-1,29
 1084 733 1084 733 1116 649 c 128,-1,30
 1148 565 1148 565 1148 462 c 0,31,32
 1148 356 1148 356 1113 267 c 128,-1,33
 1078 178 1078 178 1012 113.5 c 128,-1,34
 946 49 946 49 852 13 c 128,-1,35
 758 -23 758 -23 640 -23 c 0,36,37
 537 -23 537 -23 455.5 1 c 128,-1,38
 374 25 374 25 312 69 c 128,-1,39
 250 113 250 113 206.5 174.5 c 128,-1,40
 163 236 163 236 135 310.5 c 128,-1,41
 107 385 107 385 94.5 470 c 128,-1,42
 82 555 82 555 82 647 c 0,43,44
 82 749 82 749 93.5 847.5 c 128,-1,45
 105 946 105 946 132 1033.5 c 128,-1,46
 159 1121 159 1121 205 1195.5 c 128,-1,47
 251 1270 251 1270 319.5 1323.5 c 128,-1,48
 388 1377 388 1377 482.5 1407.5 c 128,-1,49
 577 1438 577 1438 701 1438 c 0,50,51
 781 1438 781 1438 863 1420.5 c 128,-1,52
 945 1403 945 1403 1017 1368 c 0,0,1
631 161 m 0,53,54
 695 161 695 161 745 181.5 c 128,-1,55
 795 202 795 202 829.5 240.5 c 128,-1,56
 864 279 864 279 881.5 332.5 c 128,-1,57
 899 386 899 386 899 452 c 0,58,59
 899 515 899 515 884.5 569.5 c 128,-1,60
 870 624 870 624 839.5 665 c 128,-1,61
 809 706 809 706 761.5 729.5 c 128,-1,62
 714 753 714 753 649 753 c 0,63,64
 580 753 580 753 527 730.5 c 128,-1,65
 474 708 474 708 438 667.5 c 128,-1,66
 402 627 402 627 383.5 570.5 c 128,-1,67
 365 514 365 514 365 446 c 0,68,69
 365 385 365 385 384.5 333 c 128,-1,70
 404 281 404 281 439.5 242.5 c 128,-1,71
 475 204 475 204 523.5 182.5 c 128,-1,72
 572 161 572 161 631 161 c 0,53,54
EndSplineSet
EndChar

StartChar: seven
Encoding: 55 55 26
Width: 1230
GlyphClass: 2
Flags: W
LayerCount: 2
Fore
SplineSet
589 74 m 2,0,1
 571 35 571 35 539.5 18 c 128,-1,2
 508 1 508 1 475 0 c 0,3,4
 450 0 450 0 426 9 c 128,-1,5
 402 18 402 18 383 33.5 c 128,-1,6
 364 49 364 49 352.5 71 c 128,-1,7
 341 93 341 93 341 120 c 256,8,9
 341 147 341 147 356 179 c 2,10,-1
 831 1238 l 1,11,-1
 199 1238 l 2,12,13
 174 1238 174 1238 155.5 1246.5 c 128,-1,14
 137 1255 137 1255 124.5 1269 c 128,-1,15
 112 1283 112 1283 106 1300.5 c 128,-1,16
 100 1318 100 1318 100 1337 c 0,17,18
 100 1355 100 1355 106 1373 c 128,-1,19
 112 1391 112 1391 124.5 1405 c 128,-1,20
 137 1419 137 1419 155.5 1427.5 c 128,-1,21
 174 1436 174 1436 199 1436 c 2,22,-1
 968 1436 l 2,23,24
 1041 1436 1041 1436 1075 1403 c 128,-1,25
 1109 1370 1109 1370 1109 1318 c 0,26,27
 1109 1294 1109 1294 1102 1267.5 c 128,-1,28
 1095 1241 1095 1241 1082 1212 c 2,29,-1
 589 74 l 2,0,1
EndSplineSet
EndChar

StartChar: eight
Encoding: 56 56 27
Width: 1230
GlyphClass: 2
Flags: W
LayerCount: 2
Fore
SplineSet
383 733 m 1,0,1
 321 741 321 741 270 767.5 c 128,-1,2
 219 794 219 794 182 835.5 c 128,-1,3
 145 877 145 877 124.5 931.5 c 128,-1,4
 104 986 104 986 104 1049 c 0,5,6
 104 1145 104 1145 143.5 1217.5 c 128,-1,7
 183 1290 183 1290 252 1339 c 128,-1,8
 321 1388 321 1388 414 1413 c 128,-1,9
 507 1438 507 1438 614 1438 c 0,10,11
 722 1438 722 1438 815.5 1413 c 128,-1,12
 909 1388 909 1388 978 1339 c 128,-1,13
 1047 1290 1047 1290 1087 1217.5 c 128,-1,14
 1127 1145 1127 1145 1127 1049 c 0,15,16
 1127 985 1127 985 1106.5 932.5 c 128,-1,17
 1086 880 1086 880 1049 840 c 128,-1,18
 1012 800 1012 800 960.5 773 c 128,-1,19
 909 746 909 746 848 733 c 1,20,-1
 848 731 l 1,21,22
 994 696 994 696 1072.5 608.5 c 128,-1,23
 1151 521 1151 521 1151 385 c 0,24,25
 1151 289 1151 289 1112 213 c 128,-1,26
 1073 137 1073 137 1002 84.5 c 128,-1,27
 931 32 931 32 832.5 4.5 c 128,-1,28
 734 -23 734 -23 614 -23 c 0,29,30
 495 -23 495 -23 396.5 4.5 c 128,-1,31
 298 32 298 32 227.5 84.5 c 128,-1,32
 157 137 157 137 118 213 c 128,-1,33
 79 289 79 289 79 385 c 0,34,35
 79 451 79 451 99.5 507.5 c 128,-1,36
 120 564 120 564 159 608.5 c 128,-1,37
 198 653 198 653 254.5 683.5 c 128,-1,38
 311 714 311 714 383 729 c 1,39,-1
 383 733 l 1,0,1
354 1041 m 0,40,41
 354 985 354 985 373.5 944 c 128,-1,42
 393 903 393 903 427.5 876 c 128,-1,43
 462 849 462 849 510 835.5 c 128,-1,44
 558 822 558 822 615 822 c 0,45,46
 673 822 673 822 721 835.5 c 128,-1,47
 769 849 769 849 803.5 876 c 128,-1,48
 838 903 838 903 857.5 944 c 128,-1,49
 877 985 877 985 877 1041 c 0,50,51
 877 1100 877 1100 854.5 1142 c 128,-1,52
 832 1184 832 1184 795.5 1210.5 c 128,-1,53
 759 1237 759 1237 711.5 1249.5 c 128,-1,54
 664 1262 664 1262 615 1262 c 256,55,56
 566 1262 566 1262 519 1249.5 c 128,-1,57
 472 1237 472 1237 435.5 1210.5 c 128,-1,58
 399 1184 399 1184 376.5 1142 c 128,-1,59
 354 1100 354 1100 354 1041 c 0,40,41
340 403 m 256,60,61
 340 339 340 339 362.5 293.5 c 128,-1,62
 385 248 385 248 423 218.5 c 128,-1,63
 461 189 461 189 511 175 c 128,-1,64
 561 161 561 161 615 161 c 256,65,66
 669 161 669 161 718.5 175 c 128,-1,67
 768 189 768 189 806 218.5 c 128,-1,68
 844 248 844 248 866.5 293.5 c 128,-1,69
 889 339 889 339 889 403 c 256,70,71
 889 467 889 467 866.5 512.5 c 128,-1,72
 844 558 844 558 806 587.5 c 128,-1,73
 768 617 768 617 718.5 631 c 128,-1,74
 669 645 669 645 615 645 c 256,75,76
 561 645 561 645 511 631 c 128,-1,77
 461 617 461 617 423 587.5 c 128,-1,78
 385 558 385 558 362.5 512.5 c 128,-1,79
 340 467 340 467 340 403 c 256,60,61
EndSplineSet
EndChar

StartChar: nine
Encoding: 57 57 28
Width: 1230
GlyphClass: 2
Flags: W
LayerCount: 2
Fore
SplineSet
213 45 m 0,0,1
 187 56 187 56 175.5 77.5 c 128,-1,2
 164 99 164 99 164 122 c 0,3,4
 164 141 164 141 170.5 160 c 128,-1,5
 177 179 177 179 189 193.5 c 128,-1,6
 201 208 201 208 217.5 217.5 c 128,-1,7
 234 227 234 227 254 227 c 0,8,9
 260 227 260 227 266 226 c 128,-1,10
 272 225 272 225 278 223 c 0,11,12
 347 198 347 198 411.5 185 c 128,-1,13
 476 172 476 172 532 172 c 0,14,15
 606 172 606 172 661 193 c 128,-1,16
 716 214 716 214 756.5 251 c 128,-1,17
 797 288 797 288 823.5 340 c 128,-1,18
 850 392 850 392 865.5 453 c 128,-1,19
 881 514 881 514 887 582 c 128,-1,20
 893 650 893 650 893 720 c 0,21,22
 893 721 893 721 891.5 721 c 128,-1,23
 890 721 890 721 890 722 c 1,24,25
 864 674 864 674 826.5 638.5 c 128,-1,26
 789 603 789 603 743 580 c 128,-1,27
 697 557 697 557 644 546 c 128,-1,28
 591 535 591 535 535 535 c 0,29,30
 432 535 432 535 348.5 566.5 c 128,-1,31
 265 598 265 598 205.5 656.5 c 128,-1,32
 146 715 146 715 114 797.5 c 128,-1,33
 82 880 82 880 82 982 c 0,34,35
 82 1087 82 1087 117 1175 c 128,-1,36
 152 1263 152 1263 218.5 1327 c 128,-1,37
 285 1391 285 1391 379 1426.5 c 128,-1,38
 473 1462 473 1462 592 1462 c 0,39,40
 746 1462 746 1462 853 1409.5 c 128,-1,41
 960 1357 960 1357 1026.5 1266.5 c 128,-1,42
 1093 1176 1093 1176 1122.5 1055.5 c 128,-1,43
 1152 935 1152 935 1152 800 c 0,44,45
 1152 695 1152 695 1140.5 593 c 128,-1,46
 1129 491 1129 491 1102 399.5 c 128,-1,47
 1075 308 1075 308 1028.5 230.5 c 128,-1,48
 982 153 982 153 913.5 96.5 c 128,-1,49
 845 40 845 40 750 8 c 128,-1,50
 655 -24 655 -24 531 -24 c 0,51,52
 450 -24 450 -24 367.5 -6.5 c 128,-1,53
 285 11 285 11 213 45 c 0,0,1
601 1281 m 0,54,55
 536 1281 536 1281 486 1261 c 128,-1,56
 436 1241 436 1241 401.5 1202.5 c 128,-1,57
 367 1164 367 1164 349.5 1111 c 128,-1,58
 332 1058 332 1058 332 992 c 0,59,60
 332 930 332 930 346.5 876 c 128,-1,61
 361 822 361 822 391.5 781.5 c 128,-1,62
 422 741 422 741 469.5 718 c 128,-1,63
 517 695 517 695 582 695 c 0,64,65
 651 695 651 695 704.5 717 c 128,-1,66
 758 739 758 739 794.5 779 c 128,-1,67
 831 819 831 819 849.5 875 c 128,-1,68
 868 931 868 931 868 998 c 0,69,70
 868 1059 868 1059 848.5 1110 c 128,-1,71
 829 1161 829 1161 793.5 1199.5 c 128,-1,72
 758 1238 758 1238 708.5 1259.5 c 128,-1,73
 659 1281 659 1281 601 1281 c 0,54,55
EndSplineSet
EndChar

StartChar: colon
Encoding: 58 58 29
Width: 615
GlyphClass: 2
Flags: W
LayerCount: 2
Fore
SplineSet
171 896 m 0,0,1
 171 921 171 921 180.5 944.5 c 128,-1,2
 190 968 190 968 208 986 c 128,-1,3
 226 1004 226 1004 251 1014.5 c 128,-1,4
 276 1025 276 1025 307 1025 c 256,5,6
 338 1025 338 1025 363 1014.5 c 128,-1,7
 388 1004 388 1004 406 986 c 128,-1,8
 424 968 424 968 433.5 944.5 c 128,-1,9
 443 921 443 921 443 896 c 0,10,11
 443 870 443 870 433.5 847 c 128,-1,12
 424 824 424 824 406 806.5 c 128,-1,13
 388 789 388 789 363 778.5 c 128,-1,14
 338 768 338 768 307 768 c 256,15,16
 276 768 276 768 251 778.5 c 128,-1,17
 226 789 226 789 208 806.5 c 128,-1,18
 190 824 190 824 180.5 847 c 128,-1,19
 171 870 171 870 171 896 c 0,0,1
171 126 m 0,20,21
 171 151 171 151 180.5 174 c 128,-1,22
 190 197 190 197 208 215 c 128,-1,23
 226 233 226 233 251 243.5 c 128,-1,24
 276 254 276 254 307 254 c 256,25,26
 338 254 338 254 363 243.5 c 128,-1,27
 388 233 388 233 406 215 c 128,-1,28
 424 197 424 197 433.5 174 c 128,-1,29
 443 151 443 151 443 126 c 0,30,31
 443 100 443 100 433.5 77 c 128,-1,32
 424 54 424 54 406 36 c 128,-1,33
 388 18 388 18 363 7.5 c 128,-1,34
 338 -3 338 -3 307 -3 c 256,35,36
 276 -3 276 -3 251 7.5 c 128,-1,37
 226 18 226 18 208 36 c 128,-1,38
 190 54 190 54 180.5 77 c 128,-1,39
 171 100 171 100 171 126 c 0,20,21
EndSplineSet
EndChar

StartChar: semicolon
Encoding: 59 59 30
Width: 615
GlyphClass: 2
Flags: W
LayerCount: 2
Fore
SplineSet
201 893 m 0,0,1
 201 918 201 918 210.5 941 c 128,-1,2
 220 964 220 964 238 982 c 128,-1,3
 256 1000 256 1000 281.5 1010.5 c 128,-1,4
 307 1021 307 1021 338 1021 c 256,5,6
 369 1021 369 1021 394 1010.5 c 128,-1,7
 419 1000 419 1000 437 982 c 128,-1,8
 455 964 455 964 464.5 941 c 128,-1,9
 474 918 474 918 474 893 c 0,10,11
 474 867 474 867 464.5 843.5 c 128,-1,12
 455 820 455 820 437 802.5 c 128,-1,13
 419 785 419 785 394 774.5 c 128,-1,14
 369 764 369 764 338 764 c 256,15,16
 307 764 307 764 281.5 774.5 c 128,-1,17
 256 785 256 785 238 802.5 c 128,-1,18
 220 820 220 820 210.5 843.5 c 128,-1,19
 201 867 201 867 201 893 c 0,0,1
319 -232 m 1,20,-1
 118 -232 l 1,21,-1
 222 238 l 1,22,-1
 481 238 l 1,23,-1
 319 -232 l 1,20,-1
EndSplineSet
EndChar

StartChar: less
Encoding: 60 60 31
Width: 1315
GlyphClass: 2
Flags: W
LayerCount: 2
Fore
SplineSet
192 406 m 2,0,1
 155 422 155 422 137.5 447.5 c 128,-1,2
 120 473 120 473 120 500 c 0,3,4
 120 528 120 528 138 554.5 c 128,-1,5
 156 581 156 581 194 597 c 2,6,-1
 1059 960 l 2,7,8
 1073 965 1073 965 1090 965 c 0,9,10
 1108 965 1108 965 1122.5 958 c 128,-1,11
 1137 951 1137 951 1147.5 939.5 c 128,-1,12
 1158 928 1158 928 1164 913.5 c 128,-1,13
 1170 899 1170 899 1170 884 c 0,14,15
 1170 863 1170 863 1158 845 c 128,-1,16
 1146 827 1146 827 1120 816 c 2,17,-1
 359 500 l 1,18,-1
 1122 169 l 2,19,20
 1148 158 1148 158 1159.5 140 c 128,-1,21
 1171 122 1171 122 1170 101 c 0,22,23
 1170 71 1170 71 1149 46 c 128,-1,24
 1128 21 1128 21 1094 21 c 0,25,26
 1086 21 1086 21 1077.5 22.5 c 128,-1,27
 1069 24 1069 24 1061 28 c 2,28,-1
 192 406 l 2,0,1
EndSplineSet
EndChar

StartChar: equal
Encoding: 61 61 32
Width: 1315
GlyphClass: 2
Flags: W
LayerCount: 2
Fore
SplineSet
229 210 m 2,0,1
 211 210 211 210 195.5 216.5 c 128,-1,2
 180 223 180 223 168.5 234 c 128,-1,3
 157 245 157 245 150.5 260 c 128,-1,4
 144 275 144 275 144 292 c 0,5,6
 144 328 144 328 168.5 352 c 128,-1,7
 193 376 193 376 229 376 c 2,8,-1
 1086 376 l 2,9,10
 1121 376 1121 376 1146 352 c 128,-1,11
 1171 328 1171 328 1171 292 c 0,12,13
 1171 275 1171 275 1164.5 260 c 128,-1,14
 1158 245 1158 245 1146.5 234 c 128,-1,15
 1135 223 1135 223 1119.5 216.5 c 128,-1,16
 1104 210 1104 210 1086 210 c 2,17,-1
 229 210 l 2,0,1
229 626 m 2,18,19
 211 626 211 626 195.5 632.5 c 128,-1,20
 180 639 180 639 168.5 650.5 c 128,-1,21
 157 662 157 662 150.5 677 c 128,-1,22
 144 692 144 692 144 709 c 0,23,24
 144 744 144 744 168.5 768.5 c 128,-1,25
 193 793 193 793 229 793 c 2,26,-1
 1086 793 l 2,27,28
 1121 793 1121 793 1146 768.5 c 128,-1,29
 1171 744 1171 744 1171 709 c 0,30,31
 1171 692 1171 692 1164.5 677 c 128,-1,32
 1158 662 1158 662 1146.5 650.5 c 128,-1,33
 1135 639 1135 639 1119.5 632.5 c 128,-1,34
 1104 626 1104 626 1086 626 c 2,35,-1
 229 626 l 2,18,19
EndSplineSet
EndChar

StartChar: greater
Encoding: 62 62 33
Width: 1315
GlyphClass: 2
Flags: W
LayerCount: 2
Fore
SplineSet
1119 594 m 2,0,1
 1156 578 1156 578 1173 552.5 c 128,-1,2
 1190 527 1190 527 1190 500 c 0,3,4
 1190 471 1190 471 1172 445 c 128,-1,5
 1154 419 1154 419 1116 403 c 2,6,-1
 251 40 l 2,7,8
 234 34 234 34 220 34 c 0,9,10
 202 34 202 34 188 41 c 128,-1,11
 174 48 174 48 163.5 59.5 c 128,-1,12
 153 71 153 71 147.5 86 c 128,-1,13
 142 101 142 101 142 116 c 0,14,15
 142 137 142 137 153 155 c 128,-1,16
 164 173 164 173 190 184 c 2,17,-1
 952 500 l 1,18,-1
 188 831 l 2,19,20
 163 842 163 842 152 860 c 128,-1,21
 141 878 141 878 141 898 c 0,22,23
 141 913 141 913 146.5 927.5 c 128,-1,24
 152 942 152 942 162 953.5 c 128,-1,25
 172 965 172 965 186 972 c 128,-1,26
 200 979 200 979 217 979 c 0,27,28
 233 979 233 979 250 972 c 2,29,-1
 1119 594 l 2,0,1
EndSplineSet
EndChar

StartChar: question
Encoding: 63 63 34
Width: 1047
GlyphClass: 2
Flags: W
LayerCount: 2
Fore
SplineSet
207 1280 m 0,0,1
 196 1277 196 1277 188 1277 c 0,2,3
 170 1277 170 1277 155 1285.5 c 128,-1,4
 140 1294 140 1294 129.5 1307.5 c 128,-1,5
 119 1321 119 1321 113 1338.5 c 128,-1,6
 107 1356 107 1356 107 1375 c 0,7,8
 107 1406 107 1406 126 1435 c 128,-1,9
 145 1464 145 1464 189 1476 c 0,10,11
 264 1496 264 1496 340.5 1504 c 128,-1,12
 417 1512 417 1512 489 1512 c 0,13,14
 578 1512 578 1512 657.5 1489.5 c 128,-1,15
 737 1467 737 1467 797 1420.5 c 128,-1,16
 857 1374 857 1374 892 1302.5 c 128,-1,17
 927 1231 927 1231 927 1134 c 0,18,19
 927 1071 927 1071 910.5 1021 c 128,-1,20
 894 971 894 971 866.5 928 c 128,-1,21
 839 885 839 885 802 846.5 c 128,-1,22
 765 808 765 808 724 770 c 0,23,24
 678 725 678 725 643.5 694.5 c 128,-1,25
 609 664 609 664 585 640 c 128,-1,26
 561 616 561 616 548 593 c 128,-1,27
 535 570 535 570 533 539 c 1,28,-1
 533 540 l 1,29,-1
 533 526 l 2,30,31
 533 518 533 518 533.5 502 c 128,-1,32
 534 486 534 486 534 459 c 0,33,34
 534 436 534 436 525 418.5 c 128,-1,35
 516 401 516 401 500.5 389.5 c 128,-1,36
 485 378 485 378 465.5 372 c 128,-1,37
 446 366 446 366 425 366 c 256,38,39
 404 366 404 366 384 372 c 128,-1,40
 364 378 364 378 348.5 390 c 128,-1,41
 333 402 333 402 323.5 420 c 128,-1,42
 314 438 314 438 314 463 c 2,43,-1
 314 578 l 2,44,45
 316 631 316 631 342.5 675 c 128,-1,46
 369 719 369 719 407 759.5 c 128,-1,47
 445 800 445 800 489.5 838 c 128,-1,48
 534 876 534 876 571.5 917 c 128,-1,49
 609 958 609 958 634 1004 c 128,-1,50
 659 1050 659 1050 659 1106 c 0,51,52
 659 1163 659 1163 640 1201.5 c 128,-1,53
 621 1240 621 1240 589 1263 c 128,-1,54
 557 1286 557 1286 516 1296 c 128,-1,55
 475 1306 475 1306 431 1306 c 0,56,57
 415 1306 415 1306 389.5 1304.5 c 128,-1,58
 364 1303 364 1303 333.5 1300 c 128,-1,59
 303 1297 303 1297 270 1292 c 128,-1,60
 237 1287 237 1287 207 1280 c 0,0,1
290 97 m 0,61,62
 290 122 290 122 299.5 145 c 128,-1,63
 309 168 309 168 327 185.5 c 128,-1,64
 345 203 345 203 370 213.5 c 128,-1,65
 395 224 395 224 426 224 c 256,66,67
 457 224 457 224 482.5 213.5 c 128,-1,68
 508 203 508 203 526 185.5 c 128,-1,69
 544 168 544 168 553.5 145 c 128,-1,70
 563 122 563 122 563 97 c 0,71,72
 563 71 563 71 553.5 47.5 c 128,-1,73
 544 24 544 24 526 6 c 128,-1,74
 508 -12 508 -12 482.5 -22.5 c 128,-1,75
 457 -33 457 -33 426 -33 c 256,76,77
 395 -33 395 -33 370 -22.5 c 128,-1,78
 345 -12 345 -12 327 6 c 128,-1,79
 309 24 309 24 299.5 47.5 c 128,-1,80
 290 71 290 71 290 97 c 0,61,62
EndSplineSet
EndChar

StartChar: at
Encoding: 64 64 35
Width: 1638
GlyphClass: 2
Flags: W
LayerCount: 2
Fore
SplineSet
562 623 m 0,0,1
 562 586 562 586 573 552.5 c 128,-1,2
 584 519 584 519 604.5 494 c 128,-1,3
 625 469 625 469 653.5 454.5 c 128,-1,4
 682 440 682 440 718 440 c 0,5,6
 755 440 755 440 793 451 c 128,-1,7
 831 462 831 462 864 482.5 c 128,-1,8
 897 503 897 503 922.5 532.5 c 128,-1,9
 948 562 948 562 960 600 c 2,10,-1
 1030 833 l 2,11,12
 1033 844 1033 844 1035 854.5 c 128,-1,13
 1037 865 1037 865 1037 875 c 0,14,15
 1037 908 1037 908 1021.5 935 c 128,-1,16
 1006 962 1006 962 982 981.5 c 128,-1,17
 958 1001 958 1001 928.5 1011.5 c 128,-1,18
 899 1022 899 1022 870 1022 c 0,19,20
 825 1022 825 1022 784.5 1004 c 128,-1,21
 744 986 744 986 710 955.5 c 128,-1,22
 676 925 676 925 648.5 885 c 128,-1,23
 621 845 621 845 602 800.5 c 128,-1,24
 583 756 583 756 572.5 710.5 c 128,-1,25
 562 665 562 665 562 623 c 0,0,1
1079 138 m 0,26,27
 1092 142 1092 142 1106 142 c 0,28,29
 1137 142 1137 142 1153.5 122 c 128,-1,30
 1170 102 1170 102 1170 79 c 0,31,32
 1170 60 1170 60 1159.5 44 c 128,-1,33
 1149 28 1149 28 1127 21 c 0,34,35
 962 -27 962 -27 809 -27 c 0,36,37
 647 -27 647 -27 508 24.5 c 128,-1,38
 369 76 369 76 267.5 173.5 c 128,-1,39
 166 271 166 271 108 412 c 128,-1,40
 50 553 50 553 50 731 c 0,41,42
 50 857 50 857 84.5 964 c 128,-1,43
 119 1071 119 1071 179 1157.5 c 128,-1,44
 239 1244 239 1244 320 1310 c 128,-1,45
 401 1376 401 1376 495 1420.5 c 128,-1,46
 589 1465 589 1465 690.5 1488 c 128,-1,47
 792 1511 792 1511 893 1511 c 0,48,49
 979 1511 979 1511 1062.5 1494 c 128,-1,50
 1146 1477 1146 1477 1220 1442.5 c 128,-1,51
 1294 1408 1294 1408 1356.5 1356 c 128,-1,52
 1419 1304 1419 1304 1464 1233.5 c 128,-1,53
 1509 1163 1509 1163 1534.5 1074 c 128,-1,54
 1560 985 1560 985 1560 877 c 0,55,56
 1560 795 1560 795 1540 720 c 128,-1,57
 1520 645 1520 645 1486 580.5 c 128,-1,58
 1452 516 1452 516 1406.5 463.5 c 128,-1,59
 1361 411 1361 411 1309.5 374 c 128,-1,60
 1258 337 1258 337 1204 316.5 c 128,-1,61
 1150 296 1150 296 1099 296 c 0,62,63
 1073 296 1073 296 1047 302 c 128,-1,64
 1021 308 1021 308 998.5 320.5 c 128,-1,65
 976 333 976 333 959 352 c 128,-1,66
 942 371 942 371 933 397 c 1,67,68
 885 345 885 345 816.5 317.5 c 128,-1,69
 748 290 748 290 676 290 c 0,70,71
 606 290 606 290 550 316 c 128,-1,72
 494 342 494 342 455 386.5 c 128,-1,73
 416 431 416 431 395.5 490 c 128,-1,74
 375 549 375 549 375 615 c 0,75,76
 375 682 375 682 391 750 c 128,-1,77
 407 818 407 818 436.5 881 c 128,-1,78
 466 944 466 944 508.5 999.5 c 128,-1,79
 551 1055 551 1055 604.5 1096 c 128,-1,80
 658 1137 658 1137 721.5 1160.5 c 128,-1,81
 785 1184 785 1184 857 1184 c 0,82,83
 930 1184 930 1184 993 1152 c 128,-1,84
 1056 1120 1056 1120 1091 1054 c 1,85,-1
 1100 1082 l 2,86,87
 1109 1111 1109 1111 1131 1125.5 c 128,-1,88
 1153 1140 1153 1140 1179 1139 c 0,89,90
 1206 1139 1206 1139 1227 1123.5 c 128,-1,91
 1248 1108 1248 1108 1248 1077 c 0,92,93
 1248 1066 1248 1066 1245 1053 c 2,94,-1
 1104 583 l 2,95,96
 1093 548 1093 548 1087 519.5 c 128,-1,97
 1081 491 1081 491 1081 471 c 0,98,99
 1081 447 1081 447 1092.5 433.5 c 128,-1,100
 1104 420 1104 420 1131 420 c 0,101,102
 1182 420 1182 420 1231.5 456.5 c 128,-1,103
 1281 493 1281 493 1320.5 554.5 c 128,-1,104
 1360 616 1360 616 1384.5 696 c 128,-1,105
 1409 776 1409 776 1409 862 c 0,106,107
 1409 996 1409 996 1366.5 1094 c 128,-1,108
 1324 1192 1324 1192 1253 1256 c 128,-1,109
 1182 1320 1182 1320 1089 1351 c 128,-1,110
 996 1382 996 1382 895 1382 c 0,111,112
 813 1382 813 1382 730 1362.5 c 128,-1,113
 647 1343 647 1343 570.5 1304.5 c 128,-1,114
 494 1266 494 1266 427 1209.5 c 128,-1,115
 360 1153 360 1153 311 1079.5 c 128,-1,116
 262 1006 262 1006 233.5 916 c 128,-1,117
 205 826 205 826 205 721 c 0,118,119
 205 565 205 565 255 448.5 c 128,-1,120
 305 332 305 332 390.5 254.5 c 128,-1,121
 476 177 476 177 588 138.5 c 128,-1,122
 700 100 700 100 825 100 c 0,123,124
 888 100 888 100 951.5 109 c 128,-1,125
 1015 118 1015 118 1079 138 c 0,26,27
EndSplineSet
EndChar

StartChar: A
Encoding: 65 65 36
Width: 1445
GlyphClass: 2
Flags: W
LayerCount: 2
Fore
SplineSet
1380 157 m 2,0,1
 1387 137 1387 137 1387 117 c 0,2,3
 1387 90 1387 90 1375.5 68.5 c 128,-1,4
 1364 47 1364 47 1345 32 c 128,-1,5
 1326 17 1326 17 1302 9 c 128,-1,6
 1278 1 1278 1 1253 1 c 0,7,8
 1216 1 1216 1 1183.5 21.5 c 128,-1,9
 1151 42 1151 42 1140 86 c 1,10,-1
 1036 353 l 1,11,-1
 395 353 l 1,12,-1
 292 86 l 1,13,14
 280 41 280 41 248.5 21 c 128,-1,15
 217 1 217 1 181 1 c 0,16,17
 157 1 157 1 133 9 c 128,-1,18
 109 17 109 17 90.5 32 c 128,-1,19
 72 47 72 47 60.5 68 c 128,-1,20
 49 89 49 89 49 115 c 0,21,22
 49 125 49 125 50.5 135.5 c 128,-1,23
 52 146 52 146 57 157 c 2,24,-1
 477 1207 l 2,25,26
 502 1277 502 1277 527 1321.5 c 128,-1,27
 552 1366 552 1366 580.5 1391.5 c 128,-1,28
 609 1417 609 1417 642.5 1427 c 128,-1,29
 676 1437 676 1437 717 1437 c 0,30,31
 759 1437 759 1437 793 1426.5 c 128,-1,32
 827 1416 827 1416 855.5 1390 c 128,-1,33
 884 1364 884 1364 909 1319.5 c 128,-1,34
 934 1275 934 1275 958 1207 c 2,35,-1
 1380 157 l 2,0,1
714 1232 m 1,36,-1
 450 521 l 1,37,-1
 981 521 l 1,38,-1
 718 1232 l 1,39,-1
 714 1232 l 1,36,-1
EndSplineSet
EndChar

StartChar: B
Encoding: 66 66 37
Width: 1422
GlyphClass: 2
Flags: W
LayerCount: 2
Fore
SplineSet
175 1310 m 2,0,1
 175 1337 175 1337 185 1360 c 128,-1,2
 195 1383 195 1383 212.5 1400.5 c 128,-1,3
 230 1418 230 1418 253.5 1428 c 128,-1,4
 277 1438 277 1438 304 1438 c 2,5,-1
 809 1437 l 2,6,7
 903 1437 903 1437 982.5 1410 c 128,-1,8
 1062 1383 1062 1383 1119.5 1335.5 c 128,-1,9
 1177 1288 1177 1288 1209 1222 c 128,-1,10
 1241 1156 1241 1156 1241 1077 c 0,11,12
 1241 1018 1241 1018 1220.5 964.5 c 128,-1,13
 1200 911 1200 911 1163 868 c 128,-1,14
 1126 825 1126 825 1075.5 794.5 c 128,-1,15
 1025 764 1025 764 964 752 c 1,16,-1
 964 748 l 1,17,18
 1039 737 1039 737 1100 707 c 128,-1,19
 1161 677 1161 677 1204 631 c 128,-1,20
 1247 585 1247 585 1270.5 525 c 128,-1,21
 1294 465 1294 465 1294 393 c 256,22,23
 1294 321 1294 321 1268 250.5 c 128,-1,24
 1242 180 1242 180 1184.5 124.5 c 128,-1,25
 1127 69 1127 69 1036.5 34.5 c 128,-1,26
 946 0 946 0 817 0 c 2,27,-1
 304 0 l 2,28,29
 277 0 277 0 253.5 10 c 128,-1,30
 230 20 230 20 212.5 37 c 128,-1,31
 195 54 195 54 185 77.5 c 128,-1,32
 175 101 175 101 175 127 c 2,33,-1
 175 1310 l 2,0,1
433 177 m 1,34,-1
 685 177 l 2,35,36
 768 177 768 177 831.5 188.5 c 128,-1,37
 895 200 895 200 938.5 228 c 128,-1,38
 982 256 982 256 1004 303.5 c 128,-1,39
 1026 351 1026 351 1026 422 c 0,40,41
 1026 497 1026 497 997 543.5 c 128,-1,42
 968 590 968 590 915.5 616 c 128,-1,43
 863 642 863 642 789.5 651.5 c 128,-1,44
 716 661 716 661 628 661 c 2,45,-1
 433 661 l 1,46,-1
 433 177 l 1,34,-1
433 1260 m 1,47,-1
 433 815 l 1,48,-1
 681 815 l 2,49,50
 741 815 741 815 795 827.5 c 128,-1,51
 849 840 849 840 889 867.5 c 128,-1,52
 929 895 929 895 952.5 938 c 128,-1,53
 976 981 976 981 976 1042 c 0,54,55
 976 1108 976 1108 951 1150 c 128,-1,56
 926 1192 926 1192 884.5 1216.5 c 128,-1,57
 843 1241 843 1241 789 1250.5 c 128,-1,58
 735 1260 735 1260 676 1260 c 2,59,-1
 433 1260 l 1,47,-1
EndSplineSet
EndChar

StartChar: C
Encoding: 67 67 38
Width: 1422
GlyphClass: 2
Flags: W
LayerCount: 2
Fore
SplineSet
103 712 m 0,0,1
 103 887 103 887 153.5 1027.5 c 128,-1,2
 204 1168 204 1168 294 1266.5 c 128,-1,3
 384 1365 384 1365 508 1417.5 c 128,-1,4
 632 1470 632 1470 778 1470 c 0,5,6
 869 1470 869 1470 966 1448.5 c 128,-1,7
 1063 1427 1063 1427 1166 1382 c 0,8,9
 1199 1368 1199 1368 1214 1342 c 128,-1,10
 1229 1316 1229 1316 1229 1289 c 0,11,12
 1229 1270 1229 1270 1222.5 1252 c 128,-1,13
 1216 1234 1216 1234 1203.5 1219.5 c 128,-1,14
 1191 1205 1191 1205 1173.5 1196.5 c 128,-1,15
 1156 1188 1156 1188 1134 1188 c 0,16,17
 1116 1188 1116 1188 1094 1196 c 0,18,19
 933 1253 933 1253 808 1253 c 0,20,21
 704 1253 704 1253 624 1217 c 128,-1,22
 544 1181 544 1181 490 1112.5 c 128,-1,23
 436 1044 436 1044 408 944.5 c 128,-1,24
 380 845 380 845 380 717 c 0,25,26
 380 600 380 600 404.5 503 c 128,-1,27
 429 406 429 406 479.5 336.5 c 128,-1,28
 530 267 530 267 605.5 228 c 128,-1,29
 681 189 681 189 783 189 c 0,30,31
 854 189 854 189 936 208.5 c 128,-1,32
 1018 228 1018 228 1114 271 c 0,33,34
 1127 277 1127 277 1139.5 279.5 c 128,-1,35
 1152 282 1152 282 1163 282 c 0,36,37
 1184 282 1184 282 1200.5 274 c 128,-1,38
 1217 266 1217 266 1229 252 c 128,-1,39
 1241 238 1241 238 1247.5 220 c 128,-1,40
 1254 202 1254 202 1254 183 c 0,41,42
 1254 152 1254 152 1236 121.5 c 128,-1,43
 1218 91 1218 91 1176 71 c 0,44,45
 954 -33 954 -33 764 -33 c 0,46,47
 617 -33 617 -33 495 21 c 128,-1,48
 373 75 373 75 286 173.5 c 128,-1,49
 199 272 199 272 151 409 c 128,-1,50
 103 546 103 546 103 712 c 0,0,1
EndSplineSet
EndChar

StartChar: D
Encoding: 68 68 39
Width: 1524
GlyphClass: 2
Flags: W
LayerCount: 2
Fore
SplineSet
294 0 m 2,0,1
 267 0 267 0 242.5 10 c 128,-1,2
 218 20 218 20 200 38 c 128,-1,3
 182 56 182 56 171.5 79.5 c 128,-1,4
 161 103 161 103 161 130 c 2,5,-1
 161 1307 l 2,6,7
 161 1334 161 1334 171.5 1358 c 128,-1,8
 182 1382 182 1382 200 1399.5 c 128,-1,9
 218 1417 218 1417 242.5 1427.5 c 128,-1,10
 267 1438 267 1438 294 1438 c 2,11,-1
 650 1438 l 2,12,13
 844 1438 844 1438 988 1389.5 c 128,-1,14
 1132 1341 1132 1341 1227.5 1248.5 c 128,-1,15
 1323 1156 1323 1156 1370 1021 c 128,-1,16
 1417 886 1417 886 1417 713 c 256,17,18
 1417 540 1417 540 1365.5 407 c 128,-1,19
 1314 274 1314 274 1217 183.5 c 128,-1,20
 1120 93 1120 93 979 46.5 c 128,-1,21
 838 0 838 0 660 0 c 2,22,-1
 294 0 l 2,0,1
427 183 m 1,23,-1
 653 183 l 2,24,25
 783 183 783 183 874.5 219.5 c 128,-1,26
 966 256 966 256 1024 325 c 128,-1,27
 1082 394 1082 394 1108.5 493 c 128,-1,28
 1135 592 1135 592 1135 718 c 0,29,30
 1135 857 1135 857 1101 958 c 128,-1,31
 1067 1059 1067 1059 1001 1125 c 128,-1,32
 935 1191 935 1191 838 1222.5 c 128,-1,33
 741 1254 741 1254 616 1254 c 2,34,-1
 427 1254 l 1,35,-1
 427 183 l 1,23,-1
EndSplineSet
EndChar

StartChar: E
Encoding: 69 69 40
Width: 1263
GlyphClass: 2
Flags: W
LayerCount: 2
Fore
SplineSet
309 0 m 2,0,1
 283 0 283 0 259.5 10.5 c 128,-1,2
 236 21 236 21 218 38.5 c 128,-1,3
 200 56 200 56 189 79.5 c 128,-1,4
 178 103 178 103 178 129 c 2,5,-1
 178 1309 l 2,6,7
 178 1334 178 1334 187.5 1357.5 c 128,-1,8
 197 1381 197 1381 214.5 1399 c 128,-1,9
 232 1417 232 1417 255 1427.5 c 128,-1,10
 278 1438 278 1438 305 1438 c 2,11,-1
 1033 1438 l 2,12,13
 1058 1438 1058 1438 1076.5 1429.5 c 128,-1,14
 1095 1421 1095 1421 1107.5 1407 c 128,-1,15
 1120 1393 1120 1393 1126 1375.5 c 128,-1,16
 1132 1358 1132 1358 1132 1339 c 0,17,18
 1132 1321 1132 1321 1126 1303 c 128,-1,19
 1120 1285 1120 1285 1107.5 1271 c 128,-1,20
 1095 1257 1095 1257 1076.5 1248.5 c 128,-1,21
 1058 1240 1058 1240 1033 1240 c 2,22,-1
 439 1240 l 1,23,-1
 439 835 l 1,24,-1
 995 835 l 2,25,26
 1020 835 1020 835 1039 826.5 c 128,-1,27
 1058 818 1058 818 1070.5 804 c 128,-1,28
 1083 790 1083 790 1089 772.5 c 128,-1,29
 1095 755 1095 755 1095 736 c 0,30,31
 1095 718 1095 718 1088.5 700 c 128,-1,32
 1082 682 1082 682 1069.5 668 c 128,-1,33
 1057 654 1057 654 1038.5 645.5 c 128,-1,34
 1020 637 1020 637 995 637 c 2,35,-1
 439 637 l 1,36,-1
 439 198 l 1,37,-1
 1055 198 l 2,38,39
 1080 198 1080 198 1098.5 189.5 c 128,-1,40
 1117 181 1117 181 1129.5 167 c 128,-1,41
 1142 153 1142 153 1148 135.5 c 128,-1,42
 1154 118 1154 118 1154 99 c 0,43,44
 1154 81 1154 81 1148 63 c 128,-1,45
 1142 45 1142 45 1129.5 31 c 128,-1,46
 1117 17 1117 17 1098.5 8.5 c 128,-1,47
 1080 0 1080 0 1055 0 c 2,48,-1
 309 0 l 2,0,1
EndSplineSet
EndChar

StartChar: F
Encoding: 70 70 41
Width: 1172
GlyphClass: 2
Flags: W
LayerCount: 2
Fore
SplineSet
168 1306 m 2,0,1
 168 1334 168 1334 178.5 1358.5 c 128,-1,2
 189 1383 189 1383 207 1400.5 c 128,-1,3
 225 1418 225 1418 248.5 1428 c 128,-1,4
 272 1438 272 1438 298 1438 c 2,5,-1
 988 1438 l 2,6,7
 1013 1438 1013 1438 1031.5 1429.5 c 128,-1,8
 1050 1421 1050 1421 1062.5 1407 c 128,-1,9
 1075 1393 1075 1393 1081 1375.5 c 128,-1,10
 1087 1358 1087 1358 1087 1339 c 0,11,12
 1087 1321 1087 1321 1081 1303 c 128,-1,13
 1075 1285 1075 1285 1062.5 1271 c 128,-1,14
 1050 1257 1050 1257 1031.5 1248.5 c 128,-1,15
 1013 1240 1013 1240 988 1240 c 2,16,-1
 437 1240 l 1,17,-1
 437 842 l 1,18,-1
 960 842 l 2,19,20
 985 842 985 842 1003.5 833.5 c 128,-1,21
 1022 825 1022 825 1034.5 811 c 128,-1,22
 1047 797 1047 797 1053 779 c 128,-1,23
 1059 761 1059 761 1059 743 c 0,24,25
 1059 724 1059 724 1053 706 c 128,-1,26
 1047 688 1047 688 1034.5 674 c 128,-1,27
 1022 660 1022 660 1003.5 651.5 c 128,-1,28
 985 643 985 643 960 643 c 2,29,-1
 437 643 l 1,30,-1
 437 129 l 2,31,32
 437 97 437 97 425.5 72.5 c 128,-1,33
 414 48 414 48 395 32 c 128,-1,34
 376 16 376 16 351.5 8 c 128,-1,35
 327 0 327 0 302 0 c 256,36,37
 277 0 277 0 253 8 c 128,-1,38
 229 16 229 16 210 32 c 128,-1,39
 191 48 191 48 179.5 72.5 c 128,-1,40
 168 97 168 97 168 129 c 2,41,-1
 168 1306 l 2,0,1
EndSplineSet
EndChar

StartChar: G
Encoding: 71 71 42
Width: 1535
GlyphClass: 2
Flags: W
LayerCount: 2
Fore
SplineSet
1282 757 m 2,0,1
 1335 757 1335 757 1357 728.5 c 128,-1,2
 1379 700 1379 700 1379 647 c 2,3,-1
 1379 177 l 2,4,5
 1379 112 1379 112 1345.5 76 c 128,-1,6
 1312 40 1312 40 1262 32 c 1,7,8
 1216 18 1216 18 1160.5 6.5 c 128,-1,9
 1105 -5 1105 -5 1047 -14 c 128,-1,10
 989 -23 989 -23 932.5 -28 c 128,-1,11
 876 -33 876 -33 828 -33 c 0,12,13
 665 -33 665 -33 532 12 c 128,-1,14
 399 57 399 57 304.5 149.5 c 128,-1,15
 210 242 210 242 158.5 383.5 c 128,-1,16
 107 525 107 525 107 718 c 0,17,18
 107 822 107 822 126.5 918 c 128,-1,19
 146 1014 146 1014 186 1097.5 c 128,-1,20
 226 1181 226 1181 286.5 1249.5 c 128,-1,21
 347 1318 347 1318 428.5 1367 c 128,-1,22
 510 1416 510 1416 612.5 1443 c 128,-1,23
 715 1470 715 1470 839 1470 c 0,24,25
 958 1470 958 1470 1067.5 1449 c 128,-1,26
 1177 1428 1177 1428 1266 1391 c 0,27,28
 1299 1377 1299 1377 1314 1352.5 c 128,-1,29
 1329 1328 1329 1328 1329 1300 c 0,30,31
 1329 1281 1329 1281 1322.5 1262.5 c 128,-1,32
 1316 1244 1316 1244 1303 1229.5 c 128,-1,33
 1290 1215 1290 1215 1272 1206 c 128,-1,34
 1254 1197 1254 1197 1232 1197 c 0,35,36
 1226 1197 1226 1197 1219 1198 c 128,-1,37
 1212 1199 1212 1199 1205 1201 c 0,38,39
 1164 1211 1164 1211 1119 1220.5 c 128,-1,40
 1074 1230 1074 1230 1029 1237.5 c 128,-1,41
 984 1245 984 1245 940.5 1249 c 128,-1,42
 897 1253 897 1253 860 1253 c 0,43,44
 733 1253 733 1253 643.5 1212 c 128,-1,45
 554 1171 554 1171 497.5 1098 c 128,-1,46
 441 1025 441 1025 415 926 c 128,-1,47
 389 827 389 827 389 710 c 0,48,49
 389 575 389 575 413 472.5 c 128,-1,50
 437 370 437 370 491 301 c 128,-1,51
 545 232 545 232 631 197 c 128,-1,52
 717 162 717 162 841 162 c 0,53,54
 910 162 910 162 980.5 172 c 128,-1,55
 1051 182 1051 182 1117 198 c 1,56,-1
 1117 587 l 1,57,-1
 885 587 l 2,58,59
 864 587 864 587 848 594.5 c 128,-1,60
 832 602 832 602 821.5 614 c 128,-1,61
 811 626 811 626 806 641.5 c 128,-1,62
 801 657 801 657 801 673 c 256,63,64
 801 689 801 689 806 704 c 128,-1,65
 811 719 811 719 821.5 731 c 128,-1,66
 832 743 832 743 848 750 c 128,-1,67
 864 757 864 757 885 757 c 2,68,-1
 1282 757 l 2,0,1
EndSplineSet
EndChar

StartChar: H
Encoding: 72 72 43
Width: 1524
GlyphClass: 2
Flags: W
LayerCount: 2
Fore
SplineSet
1082 1307 m 2,0,1
 1082 1339 1082 1339 1093.5 1363 c 128,-1,2
 1105 1387 1105 1387 1124 1403.5 c 128,-1,3
 1143 1420 1143 1420 1167 1428 c 128,-1,4
 1191 1436 1191 1436 1217 1436 c 0,5,6
 1242 1436 1242 1436 1266 1428 c 128,-1,7
 1290 1420 1290 1420 1309 1404 c 128,-1,8
 1328 1388 1328 1388 1339.5 1363.5 c 128,-1,9
 1351 1339 1351 1339 1351 1307 c 2,10,-1
 1351 131 l 2,11,12
 1351 99 1351 99 1339.5 74.5 c 128,-1,13
 1328 50 1328 50 1309 34 c 128,-1,14
 1290 18 1290 18 1265.5 10 c 128,-1,15
 1241 2 1241 2 1216 2 c 256,16,17
 1191 2 1191 2 1167 10 c 128,-1,18
 1143 18 1143 18 1124 34 c 128,-1,19
 1105 50 1105 50 1093.5 74.5 c 128,-1,20
 1082 99 1082 99 1082 131 c 2,21,-1
 1082 639 l 1,22,-1
 442 639 l 1,23,-1
 442 131 l 2,24,25
 442 99 442 99 430.5 74.5 c 128,-1,26
 419 50 419 50 400 34 c 128,-1,27
 381 18 381 18 356.5 10 c 128,-1,28
 332 2 332 2 307 2 c 256,29,30
 282 2 282 2 258 10 c 128,-1,31
 234 18 234 18 215 34 c 128,-1,32
 196 50 196 50 184.5 74.5 c 128,-1,33
 173 99 173 99 173 131 c 2,34,-1
 173 1307 l 2,35,36
 173 1339 173 1339 184.5 1363 c 128,-1,37
 196 1387 196 1387 215 1403.5 c 128,-1,38
 234 1420 234 1420 258.5 1428 c 128,-1,39
 283 1436 283 1436 308 1436 c 256,40,41
 333 1436 333 1436 357 1428 c 128,-1,42
 381 1420 381 1420 400 1404 c 128,-1,43
 419 1388 419 1388 430.5 1363.5 c 128,-1,44
 442 1339 442 1339 442 1307 c 2,45,-1
 442 851 l 1,46,-1
 1082 851 l 1,47,-1
 1082 1307 l 2,0,1
EndSplineSet
EndChar

StartChar: I
Encoding: 73 73 44
Width: 637
GlyphClass: 2
Flags: W
LayerCount: 2
Fore
SplineSet
185 1311 m 2,0,1
 185 1343 185 1343 196.5 1367.5 c 128,-1,2
 208 1392 208 1392 227 1408 c 128,-1,3
 246 1424 246 1424 270 1432 c 128,-1,4
 294 1440 294 1440 319 1440 c 256,5,6
 344 1440 344 1440 368 1432 c 128,-1,7
 392 1424 392 1424 411 1408 c 128,-1,8
 430 1392 430 1392 441.5 1367.5 c 128,-1,9
 453 1343 453 1343 453 1311 c 2,10,-1
 453 130 l 2,11,12
 453 98 453 98 441.5 74 c 128,-1,13
 430 50 430 50 411 34 c 128,-1,14
 392 18 392 18 367.5 10 c 128,-1,15
 343 2 343 2 318 2 c 256,16,17
 293 2 293 2 269 10 c 128,-1,18
 245 18 245 18 226.5 34 c 128,-1,19
 208 50 208 50 196.5 74 c 128,-1,20
 185 98 185 98 185 130 c 2,21,-1
 185 1311 l 2,0,1
EndSplineSet
EndChar

StartChar: J
Encoding: 74 74 45
Width: 1126
GlyphClass: 2
Flags: W
LayerCount: 2
Fore
SplineSet
703 1310 m 2,0,1
 703 1342 703 1342 714.5 1366 c 128,-1,2
 726 1390 726 1390 745 1406 c 128,-1,3
 764 1422 764 1422 788.5 1430 c 128,-1,4
 813 1438 813 1438 838 1438 c 256,5,6
 863 1438 863 1438 887 1430 c 128,-1,7
 911 1422 911 1422 930 1406 c 128,-1,8
 949 1390 949 1390 960.5 1366 c 128,-1,9
 972 1342 972 1342 972 1310 c 2,10,-1
 972 443 l 2,11,12
 972 315 972 315 933.5 225 c 128,-1,13
 895 135 895 135 829 78 c 128,-1,14
 763 21 763 21 676 -5 c 128,-1,15
 589 -31 589 -31 492 -31 c 0,16,17
 430 -31 430 -31 371 -16.5 c 128,-1,18
 312 -2 312 -2 259.5 26.5 c 128,-1,19
 207 55 207 55 164.5 98 c 128,-1,20
 122 141 122 141 94 198 c 1,21,22
 67 234 67 234 67 269 c 0,23,24
 67 290 67 290 76 307.5 c 128,-1,25
 85 325 85 325 99.5 338 c 128,-1,26
 114 351 114 351 132 358 c 128,-1,27
 150 365 150 365 169 365 c 0,28,29
 186 365 186 365 202.5 358 c 128,-1,30
 219 351 219 351 232 335 c 1,31,32
 269 258 269 258 329 211.5 c 128,-1,33
 389 165 389 165 476 165 c 0,34,35
 587 165 587 165 645 236.5 c 128,-1,36
 703 308 703 308 703 461 c 2,37,-1
 703 1310 l 2,0,1
EndSplineSet
EndChar

StartChar: K
Encoding: 75 75 46
Width: 1365
GlyphClass: 2
Flags: W
LayerCount: 2
Fore
SplineSet
447 127 m 2,0,1
 447 95 447 95 435.5 71.5 c 128,-1,2
 424 48 424 48 405 32 c 128,-1,3
 386 16 386 16 362.5 8 c 128,-1,4
 339 0 339 0 314 0 c 256,5,6
 289 0 289 0 265.5 8 c 128,-1,7
 242 16 242 16 223.5 31.5 c 128,-1,8
 205 47 205 47 194 71 c 128,-1,9
 183 95 183 95 183 127 c 2,10,-1
 183 1311 l 2,11,12
 183 1343 183 1343 194.5 1367 c 128,-1,13
 206 1391 206 1391 224.5 1406.5 c 128,-1,14
 243 1422 243 1422 266.5 1430 c 128,-1,15
 290 1438 290 1438 315 1438 c 256,16,17
 340 1438 340 1438 363.5 1430 c 128,-1,18
 387 1422 387 1422 405.5 1406.5 c 128,-1,19
 424 1391 424 1391 435.5 1367 c 128,-1,20
 447 1343 447 1343 447 1311 c 2,21,-1
 447 805 l 1,22,-1
 968 1380 l 1,23,24
 988 1410 988 1410 1014.5 1423 c 128,-1,25
 1041 1436 1041 1436 1069 1436 c 0,26,27
 1093 1436 1093 1436 1115.5 1427.5 c 128,-1,28
 1138 1419 1138 1419 1155.5 1404 c 128,-1,29
 1173 1389 1173 1389 1184 1368.5 c 128,-1,30
 1195 1348 1195 1348 1195 1324 c 0,31,32
 1195 1291 1195 1291 1171 1257 c 1,33,-1
 709 780 l 1,34,-1
 1223 197 l 2,35,36
 1237 178 1237 178 1242.5 159.5 c 128,-1,37
 1248 141 1248 141 1248 124 c 0,38,39
 1248 98 1248 98 1236.5 75.5 c 128,-1,40
 1225 53 1225 53 1206 36.5 c 128,-1,41
 1187 20 1187 20 1162.5 10.5 c 128,-1,42
 1138 1 1138 1 1113 1 c 0,43,44
 1084 1 1084 1 1056.5 14.5 c 128,-1,45
 1029 28 1029 28 1009 60 c 1,46,-1
 447 720 l 1,47,-1
 447 127 l 2,0,1
EndSplineSet
EndChar

StartChar: L
Encoding: 76 76 47
Width: 1172
GlyphClass: 2
Flags: W
LayerCount: 2
Fore
SplineSet
310 0 m 2,0,1
 283 0 283 0 258.5 10.5 c 128,-1,2
 234 21 234 21 215.5 39 c 128,-1,3
 197 57 197 57 186 81 c 128,-1,4
 175 105 175 105 175 133 c 2,5,-1
 175 1307 l 2,6,7
 175 1339 175 1339 186.5 1363.5 c 128,-1,8
 198 1388 198 1388 217 1404 c 128,-1,9
 236 1420 236 1420 260 1428 c 128,-1,10
 284 1436 284 1436 310 1436 c 0,11,12
 335 1436 335 1436 359 1428 c 128,-1,13
 383 1420 383 1420 402 1404 c 128,-1,14
 421 1388 421 1388 432.5 1363.5 c 128,-1,15
 444 1339 444 1339 444 1307 c 2,16,-1
 444 202 l 1,17,-1
 1022 202 l 2,18,19
 1047 202 1047 202 1066 193 c 128,-1,20
 1085 184 1085 184 1097.5 170 c 128,-1,21
 1110 156 1110 156 1116.5 138 c 128,-1,22
 1123 120 1123 120 1123 101 c 256,23,24
 1123 82 1123 82 1116.5 64 c 128,-1,25
 1110 46 1110 46 1097.5 31.5 c 128,-1,26
 1085 17 1085 17 1066 8.5 c 128,-1,27
 1047 0 1047 0 1022 0 c 2,28,-1
 310 0 l 2,0,1
EndSplineSet
EndChar

StartChar: M
Encoding: 77 77 48
Width: 2002
GlyphClass: 2
Flags: W
LayerCount: 2
Fore
SplineSet
1004 326 m 1,0,-1
 1409 1243 l 2,1,2
 1432 1300 1432 1300 1455 1337.5 c 128,-1,3
 1478 1375 1478 1375 1504 1397.5 c 128,-1,4
 1530 1420 1530 1420 1560.5 1429 c 128,-1,5
 1591 1438 1591 1438 1630 1438 c 0,6,7
 1668 1438 1668 1438 1702.5 1426 c 128,-1,8
 1737 1414 1737 1414 1763.5 1388 c 128,-1,9
 1790 1362 1790 1362 1805.5 1321 c 128,-1,10
 1821 1280 1821 1280 1821 1222 c 2,11,-1
 1821 116 l 2,12,13
 1821 87 1821 87 1811.5 65.5 c 128,-1,14
 1802 44 1802 44 1786 29.5 c 128,-1,15
 1770 15 1770 15 1749.5 7.5 c 128,-1,16
 1729 0 1729 0 1708 0 c 256,17,18
 1687 0 1687 0 1667.5 7.5 c 128,-1,19
 1648 15 1648 15 1632 29.5 c 128,-1,20
 1616 44 1616 44 1606.5 65.5 c 128,-1,21
 1597 87 1597 87 1597 116 c 2,22,-1
 1597 1180 l 1,23,-1
 1154 163 l 2,24,25
 1144 135 1144 135 1127.5 114 c 128,-1,26
 1111 93 1111 93 1090 78.5 c 128,-1,27
 1069 64 1069 64 1045.5 56.5 c 128,-1,28
 1022 49 1022 49 998 49 c 0,29,30
 952 49 952 49 910.5 76.5 c 128,-1,31
 869 104 869 104 848 163 c 1,32,-1
 406 1174 l 1,33,-1
 406 116 l 2,34,35
 406 87 406 87 396.5 65.5 c 128,-1,36
 387 44 387 44 371 29.5 c 128,-1,37
 355 15 355 15 335 7.5 c 128,-1,38
 315 0 315 0 294 0 c 256,39,40
 273 0 273 0 253 7.5 c 128,-1,41
 233 15 233 15 217.5 29.5 c 128,-1,42
 202 44 202 44 192.5 65.5 c 128,-1,43
 183 87 183 87 183 116 c 2,44,-1
 183 1222 l 2,45,46
 183 1280 183 1280 198.5 1321 c 128,-1,47
 214 1362 214 1362 241 1388 c 128,-1,48
 268 1414 268 1414 303 1426 c 128,-1,49
 338 1438 338 1438 377 1438 c 256,50,51
 416 1438 416 1438 447 1428.5 c 128,-1,52
 478 1419 478 1419 504.5 1396.5 c 128,-1,53
 531 1374 531 1374 554 1336 c 128,-1,54
 577 1298 577 1298 600 1241 c 2,55,-1
 998 326 l 1,56,-1
 1004 326 l 1,0,-1
EndSplineSet
EndChar

StartChar: N
Encoding: 78 78 49
Width: 1547
GlyphClass: 2
Flags: W
LayerCount: 2
Fore
SplineSet
163 1278 m 2,0,1
 163 1316 163 1316 174.5 1345.5 c 128,-1,2
 186 1375 186 1375 206 1395.5 c 128,-1,3
 226 1416 226 1416 251.5 1426.5 c 128,-1,4
 277 1437 277 1437 306 1437 c 0,5,6
 344 1437 344 1437 381.5 1418 c 128,-1,7
 419 1399 419 1399 450 1360 c 2,8,-1
 1149 353 l 1,9,-1
 1149 1324 l 2,10,11
 1149 1352 1149 1352 1159 1373.5 c 128,-1,12
 1169 1395 1169 1395 1185.5 1409 c 128,-1,13
 1202 1423 1202 1423 1223.5 1430.5 c 128,-1,14
 1245 1438 1245 1438 1267 1438 c 256,15,16
 1289 1438 1289 1438 1310 1431 c 128,-1,17
 1331 1424 1331 1424 1347.5 1409.5 c 128,-1,18
 1364 1395 1364 1395 1374 1373.5 c 128,-1,19
 1384 1352 1384 1352 1384 1324 c 2,20,-1
 1384 159 l 2,21,22
 1384 121 1384 121 1372 91.5 c 128,-1,23
 1360 62 1360 62 1340 42 c 128,-1,24
 1320 22 1320 22 1293.5 11 c 128,-1,25
 1267 0 1267 0 1238 0 c 0,26,27
 1201 0 1201 0 1163.5 18.5 c 128,-1,28
 1126 37 1126 37 1094 77 c 2,29,-1
 399 1079 l 1,30,-1
 399 113 l 2,31,32
 399 85 399 85 388.5 64 c 128,-1,33
 378 43 378 43 361.5 28.5 c 128,-1,34
 345 14 345 14 323.5 7 c 128,-1,35
 302 0 302 0 280 0 c 256,36,37
 258 0 258 0 237 7 c 128,-1,38
 216 14 216 14 199.5 28 c 128,-1,39
 183 42 183 42 173 63 c 128,-1,40
 163 84 163 84 163 113 c 2,41,-1
 163 1278 l 2,0,1
EndSplineSet
EndChar

StartChar: O
Encoding: 79 79 50
Width: 1604
GlyphClass: 2
Flags: W
LayerCount: 2
Fore
SplineSet
394 718 m 0,0,1
 394 598 394 598 417.5 496.5 c 128,-1,2
 441 395 441 395 491 321.5 c 128,-1,3
 541 248 541 248 618 206.5 c 128,-1,4
 695 165 695 165 802 165 c 256,5,6
 909 165 909 165 986 206.5 c 128,-1,7
 1063 248 1063 248 1113 321.5 c 128,-1,8
 1163 395 1163 395 1187 496.5 c 128,-1,9
 1211 598 1211 598 1211 718 c 0,10,11
 1211 837 1211 837 1187.5 938.5 c 128,-1,12
 1164 1040 1164 1040 1114 1114 c 128,-1,13
 1064 1188 1064 1188 986.5 1230 c 128,-1,14
 909 1272 909 1272 802 1272 c 256,15,16
 695 1272 695 1272 617.5 1230 c 128,-1,17
 540 1188 540 1188 490.5 1114 c 128,-1,18
 441 1040 441 1040 417.5 938.5 c 128,-1,19
 394 837 394 837 394 718 c 0,0,1
111 718 m 256,20,21
 111 886 111 886 156 1024.5 c 128,-1,22
 201 1163 201 1163 288.5 1262 c 128,-1,23
 376 1361 376 1361 505 1415.5 c 128,-1,24
 634 1470 634 1470 802 1470 c 0,25,26
 971 1470 971 1470 1100 1415.5 c 128,-1,27
 1229 1361 1229 1361 1316.5 1262 c 128,-1,28
 1404 1163 1404 1163 1448.5 1024.5 c 128,-1,29
 1493 886 1493 886 1493 718 c 256,30,31
 1493 550 1493 550 1448.5 412 c 128,-1,32
 1404 274 1404 274 1316.5 175 c 128,-1,33
 1229 76 1229 76 1100 21.5 c 128,-1,34
 971 -33 971 -33 802 -33 c 0,35,36
 634 -33 634 -33 505 21.5 c 128,-1,37
 376 76 376 76 288.5 175 c 128,-1,38
 201 274 201 274 156 412 c 128,-1,39
 111 550 111 550 111 718 c 256,20,21
EndSplineSet
EndChar

StartChar: P
Encoding: 80 80 51
Width: 1331
GlyphClass: 2
Flags: W
LayerCount: 2
Fore
SplineSet
444 581 m 1,0,-1
 444 128 l 2,1,2
 444 96 444 96 432.5 71.5 c 128,-1,3
 421 47 421 47 402 31 c 128,-1,4
 383 15 383 15 358.5 7 c 128,-1,5
 334 -1 334 -1 309 -1 c 256,6,7
 284 -1 284 -1 260 7 c 128,-1,8
 236 15 236 15 217 31 c 128,-1,9
 198 47 198 47 186.5 71.5 c 128,-1,10
 175 96 175 96 175 128 c 2,11,-1
 175 1305 l 2,12,13
 175 1332 175 1332 185.5 1356.5 c 128,-1,14
 196 1381 196 1381 214.5 1399 c 128,-1,15
 233 1417 233 1417 257.5 1427.5 c 128,-1,16
 282 1438 282 1438 310 1438 c 2,17,-1
 715 1438 l 2,18,19
 827 1438 827 1438 928.5 1415 c 128,-1,20
 1030 1392 1030 1392 1106.5 1341 c 128,-1,21
 1183 1290 1183 1290 1228 1209 c 128,-1,22
 1273 1128 1273 1128 1273 1011 c 0,23,24
 1273 892 1273 892 1226.5 810 c 128,-1,25
 1180 728 1180 728 1100.5 677 c 128,-1,26
 1021 626 1021 626 915 603.5 c 128,-1,27
 809 581 809 581 691 581 c 2,28,-1
 444 581 l 1,0,-1
679 765 m 2,29,30
 748 765 748 765 807.5 777 c 128,-1,31
 867 789 867 789 910.5 817.5 c 128,-1,32
 954 846 954 846 979 893.5 c 128,-1,33
 1004 941 1004 941 1004 1011 c 256,34,35
 1004 1081 1004 1081 979.5 1127.5 c 128,-1,36
 955 1174 955 1174 912.5 1202 c 128,-1,37
 870 1230 870 1230 812.5 1242 c 128,-1,38
 755 1254 755 1254 689 1254 c 2,39,-1
 444 1254 l 1,40,-1
 444 765 l 1,41,-1
 679 765 l 2,29,30
EndSplineSet
EndChar

StartChar: Q
Encoding: 81 81 52
Width: 1604
GlyphClass: 2
Flags: W
LayerCount: 2
Fore
SplineSet
111 718 m 256,0,1
 111 886 111 886 156 1024.5 c 128,-1,2
 201 1163 201 1163 288.5 1262 c 128,-1,3
 376 1361 376 1361 505 1415.5 c 128,-1,4
 634 1470 634 1470 802 1470 c 0,5,6
 971 1470 971 1470 1099.5 1416.5 c 128,-1,7
 1228 1363 1228 1363 1314.5 1265 c 128,-1,8
 1401 1167 1401 1167 1445 1029.5 c 128,-1,9
 1489 892 1489 892 1489 724 c 0,10,11
 1489 640 1489 640 1473 564 c 128,-1,12
 1457 488 1457 488 1427.5 421 c 128,-1,13
 1398 354 1398 354 1357 296 c 128,-1,14
 1316 238 1316 238 1266 191 c 1,15,-1
 1448 191 l 2,16,17
 1472 191 1472 191 1490 183 c 128,-1,18
 1508 175 1508 175 1520 161.5 c 128,-1,19
 1532 148 1532 148 1538 131.5 c 128,-1,20
 1544 115 1544 115 1544 97 c 256,21,22
 1544 79 1544 79 1538 62 c 128,-1,23
 1532 45 1532 45 1520 31.5 c 128,-1,24
 1508 18 1508 18 1490 9.5 c 128,-1,25
 1472 1 1472 1 1448 0 c 256,26,27
 1424 -1 1424 -1 1380 -2.5 c 128,-1,28
 1336 -4 1336 -4 1283.5 -5 c 128,-1,29
 1231 -6 1231 -6 1176 -7 c 128,-1,30
 1121 -8 1121 -8 1074.5 -8.5 c 128,-1,31
 1028 -9 1028 -9 996.5 -9.5 c 128,-1,32
 965 -10 965 -10 959 -10 c 0,33,34
 911 -21 911 -21 874.5 -27 c 128,-1,35
 838 -33 838 -33 802 -33 c 0,36,37
 634 -33 634 -33 505 21.5 c 128,-1,38
 376 76 376 76 288.5 175 c 128,-1,39
 201 274 201 274 156 412 c 128,-1,40
 111 550 111 550 111 718 c 256,0,1
394 718 m 0,41,42
 394 598 394 598 417.5 496.5 c 128,-1,43
 441 395 441 395 491 321.5 c 128,-1,44
 541 248 541 248 618 206.5 c 128,-1,45
 695 165 695 165 802 165 c 256,46,47
 909 165 909 165 986 206.5 c 128,-1,48
 1063 248 1063 248 1113 321.5 c 128,-1,49
 1163 395 1163 395 1187 496.5 c 128,-1,50
 1211 598 1211 598 1211 718 c 0,51,52
 1211 837 1211 837 1187.5 938.5 c 128,-1,53
 1164 1040 1164 1040 1114 1114 c 128,-1,54
 1064 1188 1064 1188 986.5 1230 c 128,-1,55
 909 1272 909 1272 802 1272 c 256,56,57
 695 1272 695 1272 617.5 1230 c 128,-1,58
 540 1188 540 1188 490.5 1114 c 128,-1,59
 441 1040 441 1040 417.5 938.5 c 128,-1,60
 394 837 394 837 394 718 c 0,41,42
EndSplineSet
EndChar

StartChar: R
Encoding: 82 82 53
Width: 1422
GlyphClass: 2
Flags: W
LayerCount: 2
Fore
SplineSet
179 1307 m 2,0,1
 179 1334 179 1334 189.5 1358 c 128,-1,2
 200 1382 200 1382 218 1399.5 c 128,-1,3
 236 1417 236 1417 260.5 1427.5 c 128,-1,4
 285 1438 285 1438 312 1438 c 2,5,-1
 762 1438 l 2,6,7
 863 1438 863 1438 956.5 1422 c 128,-1,8
 1050 1406 1050 1406 1122 1364.5 c 128,-1,9
 1194 1323 1194 1323 1237.5 1252 c 128,-1,10
 1281 1181 1281 1181 1281 1071 c 0,11,12
 1281 1011 1281 1011 1262.5 958 c 128,-1,13
 1244 905 1244 905 1206.5 863 c 128,-1,14
 1169 821 1169 821 1111.5 791 c 128,-1,15
 1054 761 1054 761 975 746 c 1,16,-1
 975 742 l 1,17,18
 1050 731 1050 731 1099 707 c 128,-1,19
 1148 683 1148 683 1178.5 644.5 c 128,-1,20
 1209 606 1209 606 1224 553 c 128,-1,21
 1239 500 1239 500 1247 433 c 0,22,23
 1254 373 1254 373 1259 319.5 c 128,-1,24
 1264 266 1264 266 1268 225 c 0,25,26
 1272 177 1272 177 1275 137 c 2,27,-1
 1275 125 l 2,28,29
 1275 95 1275 95 1263.5 72 c 128,-1,30
 1252 49 1252 49 1233.5 33.5 c 128,-1,31
 1215 18 1215 18 1191.5 10 c 128,-1,32
 1168 2 1168 2 1143 2 c 0,33,34
 1120 2 1120 2 1097.5 9 c 128,-1,35
 1075 16 1075 16 1056.5 30 c 128,-1,36
 1038 44 1038 44 1025.5 66 c 128,-1,37
 1013 88 1013 88 1009 117 c 0,38,39
 998 224 998 224 991 304 c 128,-1,40
 984 384 984 384 974.5 441.5 c 128,-1,41
 965 499 965 499 949 536 c 128,-1,42
 933 573 933 573 904.5 594 c 128,-1,43
 876 615 876 615 831.5 623.5 c 128,-1,44
 787 632 787 632 721 632 c 2,45,-1
 444 632 l 1,46,-1
 444 129 l 2,47,48
 444 97 444 97 432.5 73 c 128,-1,49
 421 49 421 49 402 33.5 c 128,-1,50
 383 18 383 18 359.5 10 c 128,-1,51
 336 2 336 2 311 2 c 256,52,53
 286 2 286 2 262.5 10 c 128,-1,54
 239 18 239 18 220.5 33.5 c 128,-1,55
 202 49 202 49 190.5 73 c 128,-1,56
 179 97 179 97 179 129 c 2,57,-1
 179 1307 l 2,0,1
658 814 m 2,58,59
 720 814 720 814 783 820.5 c 128,-1,60
 846 827 846 827 897 850 c 128,-1,61
 948 873 948 873 980 917 c 128,-1,62
 1012 961 1012 961 1012 1037 c 0,63,64
 1012 1112 1012 1112 984 1155 c 128,-1,65
 956 1198 956 1198 912 1220 c 128,-1,66
 868 1242 868 1242 814 1248 c 128,-1,67
 760 1254 760 1254 709 1254 c 2,68,-1
 444 1254 l 1,69,-1
 444 814 l 1,70,-1
 658 814 l 2,58,59
EndSplineSet
EndChar

StartChar: S
Encoding: 83 83 54
Width: 1319
GlyphClass: 2
Flags: W
LayerCount: 2
Fore
SplineSet
390 1077 m 0,0,1
 390 1017 390 1017 422.5 977 c 128,-1,2
 455 937 455 937 509 908.5 c 128,-1,3
 563 880 563 880 633 858.5 c 128,-1,4
 703 837 703 837 777 815 c 0,5,6
 872 786 872 786 954 752 c 128,-1,7
 1036 718 1036 718 1096 669.5 c 128,-1,8
 1156 621 1156 621 1190.5 554 c 128,-1,9
 1225 487 1225 487 1225 393 c 0,10,11
 1225 293 1225 293 1184 213.5 c 128,-1,12
 1143 134 1143 134 1069 78.5 c 128,-1,13
 995 23 995 23 891 -6.5 c 128,-1,14
 787 -36 787 -36 660 -36 c 0,15,16
 565 -36 565 -36 479.5 -20 c 128,-1,17
 394 -4 394 -4 323.5 24.5 c 128,-1,18
 253 53 253 53 200 91.5 c 128,-1,19
 147 130 147 130 117 176 c 0,20,21
 109 191 109 191 109 210 c 0,22,23
 109 228 109 228 117 247 c 128,-1,24
 125 266 125 266 137.5 281.5 c 128,-1,25
 150 297 150 297 165.5 307 c 128,-1,26
 181 317 181 317 196 317 c 0,27,28
 213 317 213 317 230.5 306 c 128,-1,29
 248 295 248 295 265 284 c 0,30,31
 297 263 297 263 338.5 242.5 c 128,-1,32
 380 222 380 222 429.5 206 c 128,-1,33
 479 190 479 190 536.5 180 c 128,-1,34
 594 170 594 170 658 170 c 256,35,36
 722 170 722 170 777 182 c 128,-1,37
 832 194 832 194 872.5 218.5 c 128,-1,38
 913 243 913 243 936 280 c 128,-1,39
 959 317 959 317 959 368 c 0,40,41
 959 434 959 434 926 476 c 128,-1,42
 893 518 893 518 839 547.5 c 128,-1,43
 785 577 785 577 716 597.5 c 128,-1,44
 647 618 647 618 575 641 c 0,45,46
 548 650 548 650 511 663 c 128,-1,47
 474 676 474 676 436.5 691.5 c 128,-1,48
 399 707 399 707 365.5 723.5 c 128,-1,49
 332 740 332 740 311 755 c 1,50,51
 128 846 128 846 128 1063 c 0,52,53
 128 1159 128 1159 169.5 1234.5 c 128,-1,54
 211 1310 211 1310 284 1362.5 c 128,-1,55
 357 1415 357 1415 456 1442.5 c 128,-1,56
 555 1470 555 1470 671 1470 c 0,57,58
 825 1470 825 1470 946 1425.5 c 128,-1,59
 1067 1381 1067 1381 1155 1292 c 0,60,61
 1168 1278 1168 1278 1173 1262.5 c 128,-1,62
 1178 1247 1178 1247 1178 1229 c 0,63,64
 1178 1212 1178 1212 1173 1194 c 128,-1,65
 1168 1176 1168 1176 1157 1161 c 128,-1,66
 1146 1146 1146 1146 1128.5 1136.5 c 128,-1,67
 1111 1127 1111 1127 1086 1127 c 0,68,69
 1058 1127 1058 1127 1023 1157 c 0,70,71
 996 1176 996 1176 960 1195.5 c 128,-1,72
 924 1215 924 1215 881 1230 c 128,-1,73
 838 1245 838 1245 789 1254.5 c 128,-1,74
 740 1264 740 1264 686 1264 c 0,75,76
 633 1264 633 1264 580.5 1253.5 c 128,-1,77
 528 1243 528 1243 485.5 1220.5 c 128,-1,78
 443 1198 443 1198 416.5 1162.5 c 128,-1,79
 390 1127 390 1127 390 1077 c 0,0,1
EndSplineSet
EndChar

StartChar: T
Encoding: 84 84 55
Width: 1195
GlyphClass: 2
Flags: W
LayerCount: 2
Fore
SplineSet
125 1236 m 2,0,1
 99 1236 99 1236 79.5 1244.5 c 128,-1,2
 60 1253 60 1253 47.5 1267 c 128,-1,3
 35 1281 35 1281 28.5 1299 c 128,-1,4
 22 1317 22 1317 22 1336 c 256,5,6
 22 1355 22 1355 28.5 1373.5 c 128,-1,7
 35 1392 35 1392 48 1406 c 128,-1,8
 61 1420 61 1420 80 1429 c 128,-1,9
 99 1438 99 1438 125 1438 c 2,10,-1
 1070 1438 l 2,11,12
 1095 1438 1095 1438 1114 1429 c 128,-1,13
 1133 1420 1133 1420 1146 1406 c 128,-1,14
 1159 1392 1159 1392 1165.5 1374 c 128,-1,15
 1172 1356 1172 1356 1172 1337 c 256,16,17
 1172 1318 1172 1318 1165.5 1300 c 128,-1,18
 1159 1282 1159 1282 1146.5 1267.5 c 128,-1,19
 1134 1253 1134 1253 1114.5 1244.5 c 128,-1,20
 1095 1236 1095 1236 1070 1236 c 2,21,-1
 734 1236 l 1,22,-1
 734 129 l 2,23,24
 734 97 734 97 722.5 72.5 c 128,-1,25
 711 48 711 48 692 31.5 c 128,-1,26
 673 15 673 15 649 7 c 128,-1,27
 625 -1 625 -1 600 -1 c 256,28,29
 575 -1 575 -1 551 7 c 128,-1,30
 527 15 527 15 508 31.5 c 128,-1,31
 489 48 489 48 477.5 72.5 c 128,-1,32
 466 97 466 97 466 129 c 2,33,-1
 466 1236 l 1,34,-1
 125 1236 l 2,0,1
EndSplineSet
EndChar

StartChar: U
Encoding: 85 85 56
Width: 1513
GlyphClass: 2
Flags: W
LayerCount: 2
Fore
SplineSet
168 1308 m 2,0,1
 168 1340 168 1340 179.5 1364.5 c 128,-1,2
 191 1389 191 1389 209.5 1405 c 128,-1,3
 228 1421 228 1421 252 1429 c 128,-1,4
 276 1437 276 1437 302 1437 c 0,5,6
 327 1437 327 1437 351 1429 c 128,-1,7
 375 1421 375 1421 394 1405 c 128,-1,8
 413 1389 413 1389 424.5 1364.5 c 128,-1,9
 436 1340 436 1340 436 1308 c 2,10,-1
 436 499 l 2,11,12
 436 414 436 414 463.5 352.5 c 128,-1,13
 491 291 491 291 536 250.5 c 128,-1,14
 581 210 581 210 638.5 190.5 c 128,-1,15
 696 171 696 171 756 171 c 0,16,17
 817 171 817 171 874.5 190.5 c 128,-1,18
 932 210 932 210 977 250.5 c 128,-1,19
 1022 291 1022 291 1049.5 352.5 c 128,-1,20
 1077 414 1077 414 1077 499 c 2,21,-1
 1077 1308 l 2,22,23
 1077 1340 1077 1340 1088.5 1364.5 c 128,-1,24
 1100 1389 1100 1389 1119 1405 c 128,-1,25
 1138 1421 1138 1421 1162 1429 c 128,-1,26
 1186 1437 1186 1437 1212 1437 c 0,27,28
 1237 1437 1237 1437 1261 1429 c 128,-1,29
 1285 1421 1285 1421 1304 1405 c 128,-1,30
 1323 1389 1323 1389 1334.5 1364.5 c 128,-1,31
 1346 1340 1346 1340 1346 1308 c 2,32,-1
 1346 491 l 2,33,34
 1346 359 1346 359 1299 261 c 128,-1,35
 1252 163 1252 163 1172 98 c 128,-1,36
 1092 33 1092 33 984.5 1 c 128,-1,37
 877 -31 877 -31 756 -31 c 256,38,39
 635 -31 635 -31 528 1 c 128,-1,40
 421 33 421 33 341 98 c 128,-1,41
 261 163 261 163 214.5 261 c 128,-1,42
 168 359 168 359 168 491 c 2,43,-1
 168 1308 l 2,0,1
EndSplineSet
EndChar

StartChar: V
Encoding: 86 86 57
Width: 1365
GlyphClass: 2
Flags: W
LayerCount: 2
Fore
SplineSet
680 208 m 1,0,-1
 684 208 l 1,1,-1
 1061 1346 l 2,2,3
 1074 1389 1074 1389 1107.5 1413 c 128,-1,4
 1141 1437 1141 1437 1181 1437 c 0,5,6
 1206 1437 1206 1437 1228 1428 c 128,-1,7
 1250 1419 1250 1419 1267 1404 c 128,-1,8
 1284 1389 1284 1389 1294 1368 c 128,-1,9
 1304 1347 1304 1347 1304 1323 c 0,10,11
 1303 1314 1303 1314 1302 1305 c 128,-1,12
 1301 1296 1301 1296 1298 1286 c 2,13,-1
 904 173 l 2,14,15
 889 125 889 125 867.5 91.5 c 128,-1,16
 846 58 846 58 817.5 38 c 128,-1,17
 789 18 789 18 754 9 c 128,-1,18
 719 0 719 0 677 0 c 0,19,20
 636 0 636 0 602 8 c 128,-1,21
 568 16 568 16 540 36 c 128,-1,22
 512 56 512 56 490.5 89.5 c 128,-1,23
 469 123 469 123 453 173 c 2,24,-1
 55 1281 l 2,25,26
 49 1299 49 1299 49 1318 c 0,27,28
 49 1343 49 1343 59.5 1365 c 128,-1,29
 70 1387 70 1387 88 1403 c 128,-1,30
 106 1419 106 1419 129.5 1428.5 c 128,-1,31
 153 1438 153 1438 179 1438 c 0,32,33
 219 1438 219 1438 251.5 1414.5 c 128,-1,34
 284 1391 284 1391 297 1349 c 2,35,-1
 680 208 l 1,0,-1
EndSplineSet
EndChar

StartChar: W
Encoding: 87 87 58
Width: 2070
GlyphClass: 2
Flags: W
LayerCount: 2
Fore
SplineSet
1033 1191 m 1,0,-1
 725 150 l 2,1,2
 717 114 717 114 697 86.5 c 128,-1,3
 677 59 677 59 649 39.5 c 128,-1,4
 621 20 621 20 588.5 10 c 128,-1,5
 556 0 556 0 522 0 c 0,6,7
 491 0 491 0 461.5 9 c 128,-1,8
 432 18 432 18 407 36 c 128,-1,9
 382 54 382 54 363 82.5 c 128,-1,10
 344 111 344 111 335 150 c 2,11,-1
 40 1287 l 2,12,13
 36 1302 36 1302 36 1319 c 0,14,15
 36 1346 36 1346 48 1367.5 c 128,-1,16
 60 1389 60 1389 78.5 1404 c 128,-1,17
 97 1419 97 1419 121 1427.5 c 128,-1,18
 145 1436 145 1436 169 1436 c 0,19,20
 206 1436 206 1436 236.5 1415.5 c 128,-1,21
 267 1395 267 1395 276 1349 c 2,22,-1
 542 235 l 1,23,-1
 859 1295 l 2,24,25
 867 1331 867 1331 884.5 1358 c 128,-1,26
 902 1385 902 1385 925.5 1403 c 128,-1,27
 949 1421 949 1421 977 1430 c 128,-1,28
 1005 1439 1005 1439 1034 1439 c 256,29,30
 1063 1439 1063 1439 1091 1430 c 128,-1,31
 1119 1421 1119 1421 1143 1403 c 128,-1,32
 1167 1385 1167 1385 1185 1358 c 128,-1,33
 1203 1331 1203 1331 1211 1295 c 2,34,-1
 1540 237 l 1,35,-1
 1803 1347 l 2,36,37
 1812 1395 1812 1395 1843.5 1416.5 c 128,-1,38
 1875 1438 1875 1438 1912 1438 c 0,39,40
 1935 1438 1935 1438 1957.5 1430 c 128,-1,41
 1980 1422 1980 1422 1998 1407.5 c 128,-1,42
 2016 1393 2016 1393 2027 1372.5 c 128,-1,43
 2038 1352 2038 1352 2038 1326 c 0,44,45
 2038 1310 2038 1310 2034 1295 c 2,46,-1
 1735 150 l 2,47,48
 1726 112 1726 112 1706 83.5 c 128,-1,49
 1686 55 1686 55 1659.5 35.5 c 128,-1,50
 1633 16 1633 16 1601.5 6 c 128,-1,51
 1570 -4 1570 -4 1538 -4 c 256,52,53
 1506 -4 1506 -4 1475.5 5.5 c 128,-1,54
 1445 15 1445 15 1419 34.5 c 128,-1,55
 1393 54 1393 54 1374 82.5 c 128,-1,56
 1355 111 1355 111 1346 150 c 2,57,-1
 1033 1191 l 1,0,-1
EndSplineSet
EndChar

StartChar: X
Encoding: 88 88 59
Width: 1321
GlyphClass: 2
Flags: W
LayerCount: 2
Fore
SplineSet
291 62 m 2,0,1
 268 28 268 28 239.5 13 c 128,-1,2
 211 -2 211 -2 182 -1 c 0,3,4
 159 -1 159 -1 137.5 7.5 c 128,-1,5
 116 16 116 16 99.5 31 c 128,-1,6
 83 46 83 46 73.5 65.5 c 128,-1,7
 64 85 64 85 64 107 c 0,8,9
 64 139 64 139 87 171 c 2,10,-1
 502 739 l 1,11,-1
 115 1264 l 2,12,13
 94 1292 94 1292 94 1323 c 0,14,15
 94 1346 94 1346 105 1367 c 128,-1,16
 116 1388 116 1388 135 1403.5 c 128,-1,17
 154 1419 154 1419 178 1428.5 c 128,-1,18
 202 1438 202 1438 228 1438 c 0,19,20
 260 1438 260 1438 290 1422.5 c 128,-1,21
 320 1407 320 1407 343 1372 c 2,22,-1
 675 889 l 1,23,-1
 1016 1372 l 2,24,25
 1039 1407 1039 1407 1068 1422 c 128,-1,26
 1097 1437 1097 1437 1126 1437 c 0,27,28
 1149 1437 1149 1437 1170 1428.5 c 128,-1,29
 1191 1420 1191 1420 1207.5 1405.5 c 128,-1,30
 1224 1391 1224 1391 1233.5 1372 c 128,-1,31
 1243 1353 1243 1353 1243 1331 c 0,32,33
 1243 1316 1243 1316 1237.5 1300 c 128,-1,34
 1232 1284 1232 1284 1220 1268 c 2,35,-1
 825 739 l 1,36,-1
 1233 177 l 2,37,38
 1254 147 1254 147 1254 117 c 0,39,40
 1254 93 1254 93 1242.5 72 c 128,-1,41
 1231 51 1231 51 1212 35 c 128,-1,42
 1193 19 1193 19 1168.5 9.5 c 128,-1,43
 1144 0 1144 0 1119 0 c 0,44,45
 1089 0 1089 0 1060.5 14.5 c 128,-1,46
 1032 29 1032 29 1010 63 c 2,47,-1
 653 581 l 1,48,-1
 291 62 l 2,0,1
EndSplineSet
EndChar

StartChar: Y
Encoding: 89 89 60
Width: 1331
GlyphClass: 2
Flags: W
LayerCount: 2
Fore
SplineSet
801 586 m 1,0,-1
 801 129 l 2,1,2
 801 97 801 97 789.5 72.5 c 128,-1,3
 778 48 778 48 759 31.5 c 128,-1,4
 740 15 740 15 715.5 7 c 128,-1,5
 691 -1 691 -1 666 -1 c 256,6,7
 641 -1 641 -1 617 7 c 128,-1,8
 593 15 593 15 574 31.5 c 128,-1,9
 555 48 555 48 543.5 72.5 c 128,-1,10
 532 97 532 97 532 129 c 2,11,-1
 532 581 l 1,12,-1
 98 1271 l 2,13,14
 90 1285 90 1285 87 1298 c 128,-1,15
 84 1311 84 1311 83 1323 c 0,16,17
 83 1347 83 1347 95 1368 c 128,-1,18
 107 1389 107 1389 127 1404 c 128,-1,19
 147 1419 147 1419 172 1427.5 c 128,-1,20
 197 1436 197 1436 223 1436 c 0,21,22
 257 1436 257 1436 287 1419.5 c 128,-1,23
 317 1403 317 1403 334 1366 c 2,24,-1
 679 771 l 1,25,-1
 683 771 l 1,26,-1
 1031 1371 l 2,27,28
 1047 1406 1047 1406 1075 1421 c 128,-1,29
 1103 1436 1103 1436 1135 1436 c 0,30,31
 1158 1436 1158 1436 1180 1429 c 128,-1,32
 1202 1422 1202 1422 1219 1409 c 128,-1,33
 1236 1396 1236 1396 1246.5 1378 c 128,-1,34
 1257 1360 1257 1360 1257 1338 c 0,35,36
 1257 1327 1257 1327 1254 1314 c 128,-1,37
 1251 1301 1251 1301 1243 1288 c 2,38,-1
 801 586 l 1,0,-1
EndSplineSet
EndChar

StartChar: Z
Encoding: 90 90 61
Width: 1218
GlyphClass: 2
Flags: W
LayerCount: 2
Fore
SplineSet
192 0 m 2,0,1
 159 0 159 0 135 9 c 128,-1,2
 111 18 111 18 95 33 c 128,-1,3
 79 48 79 48 71.5 68 c 128,-1,4
 64 88 64 88 64 109 c 0,5,6
 64 150 64 150 90 187 c 2,7,-1
 826 1240 l 1,8,-1
 176 1240 l 2,9,10
 151 1240 151 1240 132.5 1248.5 c 128,-1,11
 114 1257 114 1257 101.5 1271 c 128,-1,12
 89 1285 89 1285 83 1303 c 128,-1,13
 77 1321 77 1321 77 1339 c 0,14,15
 77 1358 77 1358 83 1375.5 c 128,-1,16
 89 1393 89 1393 101.5 1407 c 128,-1,17
 114 1421 114 1421 132.5 1429.5 c 128,-1,18
 151 1438 151 1438 176 1438 c 2,19,-1
 1037 1438 l 2,20,21
 1090 1438 1090 1438 1121 1407 c 128,-1,22
 1152 1376 1152 1376 1152 1332 c 0,23,24
 1152 1312 1152 1312 1145.5 1292 c 128,-1,25
 1139 1272 1139 1272 1125 1252 c 2,26,-1
 385 198 l 1,27,-1
 1047 198 l 2,28,29
 1072 198 1072 198 1090.5 189.5 c 128,-1,30
 1109 181 1109 181 1121.5 167 c 128,-1,31
 1134 153 1134 153 1140 135.5 c 128,-1,32
 1146 118 1146 118 1146 99 c 0,33,34
 1146 81 1146 81 1140 63 c 128,-1,35
 1134 45 1134 45 1121.5 31 c 128,-1,36
 1109 17 1109 17 1090.5 8.5 c 128,-1,37
 1072 0 1072 0 1047 0 c 2,38,-1
 192 0 l 2,0,1
EndSplineSet
EndChar

StartChar: bracketleft
Encoding: 91 91 62
Width: 694
GlyphClass: 2
Flags: W
LayerCount: 2
Fore
SplineSet
171 1327 m 2,0,1
 171 1350 171 1350 179.5 1370 c 128,-1,2
 188 1390 188 1390 203 1405 c 128,-1,3
 218 1420 218 1420 238.5 1429 c 128,-1,4
 259 1438 259 1438 283 1438 c 2,5,-1
 507 1438 l 2,6,7
 528 1438 528 1438 544 1431 c 128,-1,8
 560 1424 560 1424 570.5 1412 c 128,-1,9
 581 1400 581 1400 586.5 1384.5 c 128,-1,10
 592 1369 592 1369 592 1353 c 256,11,12
 592 1337 592 1337 586.5 1322 c 128,-1,13
 581 1307 581 1307 570.5 1295 c 128,-1,14
 560 1283 560 1283 544 1275.5 c 128,-1,15
 528 1268 528 1268 507 1268 c 2,16,-1
 394 1268 l 1,17,-1
 394 -50 l 1,18,-1
 507 -50 l 2,19,20
 528 -50 528 -50 544 -57 c 128,-1,21
 560 -64 560 -64 570.5 -76 c 128,-1,22
 581 -88 581 -88 586.5 -103 c 128,-1,23
 592 -118 592 -118 592 -134 c 0,24,25
 592 -166 592 -166 571 -192.5 c 128,-1,26
 550 -219 550 -219 507 -221 c 2,27,-1
 283 -221 l 2,28,29
 259 -221 259 -221 238.5 -212.5 c 128,-1,30
 218 -204 218 -204 203 -189 c 128,-1,31
 188 -174 188 -174 179.5 -154 c 128,-1,32
 171 -134 171 -134 171 -111 c 2,33,-1
 171 1327 l 2,0,1
EndSplineSet
EndChar

StartChar: backslash
Encoding: 92 92 63
Width: 626
GlyphClass: 2
Flags: W
LayerCount: 2
Fore
SplineSet
-5 1390 m 2,0,1
 -11 1408 -11 1408 -11 1423 c 0,2,3
 -11 1442 -11 1442 -3.5 1456.5 c 128,-1,4
 4 1471 4 1471 16 1481 c 128,-1,5
 28 1491 28 1491 43.5 1496.5 c 128,-1,6
 59 1502 59 1502 75 1502 c 0,7,8
 101 1502 101 1502 124 1488 c 128,-1,9
 147 1474 147 1474 158 1443 c 2,10,-1
 631 21 l 2,11,12
 636 3 636 3 636 -10 c 0,13,14
 636 -28 636 -28 628.5 -43 c 128,-1,15
 621 -58 621 -58 609 -68 c 128,-1,16
 597 -78 597 -78 581.5 -83.5 c 128,-1,17
 566 -89 566 -89 550 -89 c 0,18,19
 526 -89 526 -89 503.5 -75.5 c 128,-1,20
 481 -62 481 -62 471 -31 c 2,21,-1
 -5 1390 l 2,0,1
EndSplineSet
EndChar

StartChar: bracketright
Encoding: 93 93 64
Width: 694
GlyphClass: 2
Flags: W
LayerCount: 2
Fore
SplineSet
522 -111 m 2,0,1
 522 -134 522 -134 513.5 -154 c 128,-1,2
 505 -174 505 -174 490 -189 c 128,-1,3
 475 -204 475 -204 454.5 -212.5 c 128,-1,4
 434 -221 434 -221 410 -221 c 2,5,-1
 186 -221 l 2,6,7
 143 -219 143 -219 122 -192.5 c 128,-1,8
 101 -166 101 -166 101 -134 c 0,9,10
 101 -118 101 -118 106.5 -103 c 128,-1,11
 112 -88 112 -88 122.5 -76 c 128,-1,12
 133 -64 133 -64 149 -57 c 128,-1,13
 165 -50 165 -50 186 -50 c 2,14,-1
 299 -50 l 1,15,-1
 299 1268 l 1,16,-1
 186 1268 l 2,17,18
 165 1268 165 1268 149 1275.5 c 128,-1,19
 133 1283 133 1283 122.5 1295 c 128,-1,20
 112 1307 112 1307 106.5 1322 c 128,-1,21
 101 1337 101 1337 101 1353 c 256,22,23
 101 1369 101 1369 106.5 1384.5 c 128,-1,24
 112 1400 112 1400 122.5 1412 c 128,-1,25
 133 1424 133 1424 149 1431 c 128,-1,26
 165 1438 165 1438 186 1438 c 2,27,-1
 410 1438 l 2,28,29
 434 1438 434 1438 454.5 1429 c 128,-1,30
 475 1420 475 1420 490 1405 c 128,-1,31
 505 1390 505 1390 513.5 1370 c 128,-1,32
 522 1350 522 1350 522 1327 c 2,33,-1
 522 -111 l 2,0,1
EndSplineSet
EndChar

StartChar: asciicircum
Encoding: 94 94 65
Width: 1315
GlyphClass: 2
Flags: W
LayerCount: 2
Fore
SplineSet
656 1224 m 1,0,-1
 343 593 l 2,1,2
 330 567 330 567 311.5 556 c 128,-1,3
 293 545 293 545 272 545 c 0,4,5
 257 545 257 545 242 550.5 c 128,-1,6
 227 556 227 556 215.5 566.5 c 128,-1,7
 204 577 204 577 197 590.5 c 128,-1,8
 190 604 190 604 190 621 c 0,9,10
 191 629 191 629 192 637.5 c 128,-1,11
 193 646 193 646 198 655 c 2,12,-1
 555 1355 l 2,13,14
 572 1387 572 1387 599 1404 c 128,-1,15
 626 1421 626 1421 657 1421 c 0,16,17
 687 1421 687 1421 714 1404.5 c 128,-1,18
 741 1388 741 1388 758 1355 c 2,19,-1
 1113 655 l 2,20,21
 1118 646 1118 646 1119.5 637.5 c 128,-1,22
 1121 629 1121 629 1121 621 c 0,23,24
 1121 605 1121 605 1114 591.5 c 128,-1,25
 1107 578 1107 578 1096 568 c 128,-1,26
 1085 558 1085 558 1070 552.5 c 128,-1,27
 1055 547 1055 547 1040 547 c 0,28,29
 1020 547 1020 547 1000.5 557.5 c 128,-1,30
 981 568 981 568 967 593 c 2,31,-1
 656 1224 l 1,0,-1
EndSplineSet
EndChar

StartChar: underscore
Encoding: 95 95 66
Width: 1024
GlyphClass: 2
Flags: W
LayerCount: 2
Fore
SplineSet
60 -255 m 2,0,1
 30 -255 30 -255 15 -235 c 128,-1,2
 0 -215 0 -215 0 -191 c 256,3,4
 0 -167 0 -167 15 -147 c 128,-1,5
 30 -127 30 -127 60 -127 c 2,6,-1
 961 -127 l 2,7,8
 992 -127 992 -127 1007.5 -147 c 128,-1,9
 1023 -167 1023 -167 1023 -191 c 256,10,11
 1023 -215 1023 -215 1007.5 -235 c 128,-1,12
 992 -255 992 -255 961 -255 c 2,13,-1
 60 -255 l 2,0,1
EndSplineSet
EndChar

StartChar: grave
Encoding: 96 96 67
Width: 569
GlyphClass: 2
Flags: W
LayerCount: 2
Fore
SplineSet
78 1384 m 2,0,1
 63 1396 63 1396 56.5 1410.5 c 128,-1,2
 50 1425 50 1425 50 1440 c 0,3,4
 50 1460 50 1460 60 1479.5 c 128,-1,5
 70 1499 70 1499 86 1514 c 128,-1,6
 102 1529 102 1529 122.5 1538.5 c 128,-1,7
 143 1548 143 1548 164 1548 c 0,8,9
 182 1548 182 1548 199.5 1539.5 c 128,-1,10
 217 1531 217 1531 231 1511 c 2,11,-1
 483 1197 l 2,12,13
 494 1180 494 1180 494 1163 c 0,14,15
 494 1141 494 1141 479 1125 c 128,-1,16
 464 1109 464 1109 441 1109 c 256,17,18
 418 1109 418 1109 394 1129 c 2,19,-1
 78 1384 l 2,0,1
EndSplineSet
EndChar

StartChar: a
Encoding: 97 97 68
Width: 1080
GlyphClass: 2
Flags: W
LayerCount: 2
Fore
SplineSet
726 666 m 2,0,1
 726 717 726 717 711.5 751 c 128,-1,2
 697 785 697 785 671 806 c 128,-1,3
 645 827 645 827 608.5 836 c 128,-1,4
 572 845 572 845 528 845 c 0,5,6
 478 845 478 845 437 839.5 c 128,-1,7
 396 834 396 834 360.5 824 c 128,-1,8
 325 814 325 814 294 801.5 c 128,-1,9
 263 789 263 789 233 775 c 0,10,11
 218 769 218 769 203 769 c 0,12,13
 189 769 189 769 176.5 774.5 c 128,-1,14
 164 780 164 780 154.5 789.5 c 128,-1,15
 145 799 145 799 139.5 811.5 c 128,-1,16
 134 824 134 824 134 837 c 0,17,18
 134 848 134 848 137.5 856.5 c 128,-1,19
 141 865 141 865 148 876 c 0,20,21
 196 948 196 948 297 980.5 c 128,-1,22
 398 1013 398 1013 541 1013 c 0,23,24
 628 1013 628 1013 702.5 993 c 128,-1,25
 777 973 777 973 831 929.5 c 128,-1,26
 885 886 885 886 915.5 816.5 c 128,-1,27
 946 747 946 747 946 648 c 2,28,-1
 946 103 l 2,29,30
 945 77 945 77 935.5 58 c 128,-1,31
 926 39 926 39 910.5 26 c 128,-1,32
 895 13 895 13 875.5 6.5 c 128,-1,33
 856 0 856 0 836 0 c 0,34,35
 817 0 817 0 798.5 6 c 128,-1,36
 780 12 780 12 765.5 24 c 128,-1,37
 751 36 751 36 742 54 c 128,-1,38
 733 72 733 72 732 96 c 2,39,-1
 732 171 l 1,40,41
 711 135 711 135 676.5 98.5 c 128,-1,42
 642 62 642 62 597.5 37.5 c 128,-1,43
 553 13 553 13 503 0.5 c 128,-1,44
 453 -12 453 -12 402 -12 c 0,45,46
 330 -12 330 -12 267.5 8 c 128,-1,47
 205 28 205 28 159.5 66 c 128,-1,48
 114 104 114 104 88 160 c 128,-1,49
 62 216 62 216 62 275 c 0,50,51
 62 367 62 367 101.5 431.5 c 128,-1,52
 141 496 141 496 214.5 536.5 c 128,-1,53
 288 577 288 577 392 595 c 128,-1,54
 496 613 496 613 625 613 c 0,55,56
 645 613 645 613 674.5 612.5 c 128,-1,57
 704 612 704 612 726 611 c 1,58,-1
 726 666 l 2,0,1
725 480 m 1,59,60
 717 480 717 480 705.5 479.5 c 128,-1,61
 694 479 694 479 681.5 479 c 128,-1,62
 669 479 669 479 656.5 479 c 128,-1,63
 644 479 644 479 634 479 c 0,64,65
 571 479 571 479 508 472 c 128,-1,66
 445 465 445 465 394.5 444.5 c 128,-1,67
 344 424 344 424 312.5 386.5 c 128,-1,68
 281 349 281 349 281 289 c 0,69,70
 281 259 281 259 296 227 c 128,-1,71
 311 195 311 195 336.5 174 c 128,-1,72
 362 153 362 153 397 142.5 c 128,-1,73
 432 132 432 132 472 131 c 0,74,75
 525 132 525 132 570.5 150 c 128,-1,76
 616 168 616 168 650 203.5 c 128,-1,77
 684 239 684 239 703.5 285 c 128,-1,78
 723 331 723 331 725 400 c 2,79,-1
 725 480 l 1,59,60
EndSplineSet
EndChar

StartChar: b
Encoding: 98 98 69
Width: 1203
GlyphClass: 2
Flags: W
LayerCount: 2
Fore
SplineSet
356 101 m 0,0,1
 353 76 353 76 342.5 57 c 128,-1,2
 332 38 332 38 316 25.5 c 128,-1,3
 300 13 300 13 280 6.5 c 128,-1,4
 260 0 260 0 240 0 c 0,5,6
 219 0 219 0 198.5 7 c 128,-1,7
 178 14 178 14 162 28 c 128,-1,8
 146 42 146 42 136.5 63 c 128,-1,9
 127 84 127 84 127 112 c 2,10,-1
 127 1327 l 2,11,12
 127 1354 127 1354 137 1375 c 128,-1,13
 147 1396 147 1396 163.5 1409.5 c 128,-1,14
 180 1423 180 1423 201 1430 c 128,-1,15
 222 1437 222 1437 244 1437 c 256,16,17
 266 1437 266 1437 287 1430 c 128,-1,18
 308 1423 308 1423 324.5 1409.5 c 128,-1,19
 341 1396 341 1396 351 1375.5 c 128,-1,20
 361 1355 361 1355 361 1327 c 2,21,-1
 361 830 l 1,22,23
 387 866 387 866 425.5 902.5 c 128,-1,24
 464 939 464 939 509.5 963.5 c 128,-1,25
 555 988 555 988 605.5 1000.5 c 128,-1,26
 656 1013 656 1013 707 1013 c 0,27,28
 809 1013 809 1013 887 973 c 128,-1,29
 965 933 965 933 1017.5 863.5 c 128,-1,30
 1070 794 1070 794 1097 699 c 128,-1,31
 1124 604 1124 604 1124 506 c 0,32,33
 1124 414 1124 414 1098.5 318.5 c 128,-1,34
 1073 223 1073 223 1021.5 149.5 c 128,-1,35
 970 76 970 76 892.5 32 c 128,-1,36
 815 -12 815 -12 712 -12 c 0,37,38
 604 -12 604 -12 512.5 39 c 128,-1,39
 421 90 421 90 357 184 c 1,40,41
 357 183 357 183 357 170.5 c 128,-1,42
 357 158 357 158 357 142.5 c 128,-1,43
 357 127 357 127 356.5 114.5 c 128,-1,44
 356 102 356 102 356 101 c 0,0,1
361 514 m 0,45,46
 361 428 361 428 374.5 364 c 128,-1,47
 388 300 388 300 420 249.5 c 128,-1,48
 452 199 452 199 505.5 170.5 c 128,-1,49
 559 142 559 142 640 142 c 0,50,51
 714 142 714 142 761 177 c 128,-1,52
 808 212 808 212 835 266.5 c 128,-1,53
 862 321 862 321 872 387.5 c 128,-1,54
 882 454 882 454 882 509 c 0,55,56
 882 568 882 568 869.5 632.5 c 128,-1,57
 857 697 857 697 827.5 747 c 128,-1,58
 798 797 798 797 749.5 827 c 128,-1,59
 701 857 701 857 628 857 c 0,60,61
 554 857 554 857 503 829.5 c 128,-1,62
 452 802 452 802 420.5 754 c 128,-1,63
 389 706 389 706 375 648.5 c 128,-1,64
 361 591 361 591 361 514 c 0,45,46
EndSplineSet
EndChar

StartChar: c
Encoding: 99 99 70
Width: 999
GlyphClass: 2
Flags: W
LayerCount: 2
Fore
SplineSet
82 501 m 0,0,1
 82 601 82 601 118.5 697 c 128,-1,2
 155 793 155 793 221.5 863.5 c 128,-1,3
 288 934 288 934 380 973.5 c 128,-1,4
 472 1013 472 1013 583 1013 c 0,5,6
 637 1013 637 1013 693.5 1003.5 c 128,-1,7
 750 994 750 994 796.5 975 c 128,-1,8
 843 956 843 956 873 928 c 128,-1,9
 903 900 903 900 903 864 c 0,10,11
 903 833 903 833 883 808.5 c 128,-1,12
 863 784 863 784 828 784 c 0,13,14
 818 784 818 784 806 787 c 0,15,16
 754 808 754 808 704 820.5 c 128,-1,17
 654 833 654 833 607 833 c 0,18,19
 544 833 544 833 491.5 809 c 128,-1,20
 439 785 439 785 401.5 741 c 128,-1,21
 364 697 364 697 343.5 633 c 128,-1,22
 323 569 323 569 323 503 c 0,23,24
 323 450 323 450 339 388 c 128,-1,25
 355 326 355 326 389.5 278 c 128,-1,26
 424 230 424 230 476.5 200.5 c 128,-1,27
 529 171 529 171 603 171 c 0,28,29
 651 171 651 171 708.5 184.5 c 128,-1,30
 766 198 766 198 822 223 c 0,31,32
 834 226 834 226 845 226 c 0,33,34
 879 226 879 226 899 202 c 128,-1,35
 919 178 919 178 919 147 c 0,36,37
 919 111 919 111 886.5 82 c 128,-1,38
 854 53 854 53 803.5 32 c 128,-1,39
 753 11 753 11 691.5 -0.5 c 128,-1,40
 630 -12 630 -12 573 -12 c 0,41,42
 462 -12 462 -12 371 27.5 c 128,-1,43
 280 67 280 67 216 136.5 c 128,-1,44
 152 206 152 206 117 302.5 c 128,-1,45
 82 399 82 399 82 501 c 0,0,1
EndSplineSet
EndChar

StartChar: d
Encoding: 100 100 71
Width: 1207
GlyphClass: 2
Flags: W
LayerCount: 2
Fore
SplineSet
1083 112 m 2,0,1
 1083 84 1083 84 1073 63 c 128,-1,2
 1063 42 1063 42 1047 28 c 128,-1,3
 1031 14 1031 14 1010.5 7 c 128,-1,4
 990 0 990 0 968 0 c 0,5,6
 947 0 947 0 926 6.5 c 128,-1,7
 905 13 905 13 888.5 26.5 c 128,-1,8
 872 40 872 40 861 60 c 128,-1,9
 850 80 850 80 848 106 c 2,10,-1
 848 116 l 2,11,12
 848 127 848 127 847.5 140.5 c 128,-1,13
 847 154 847 154 846 164 c 2,14,-1
 846 175 l 1,15,16
 780 82 780 82 692 34 c 128,-1,17
 604 -14 604 -14 497 -14 c 0,18,19
 394 -14 394 -14 317 30 c 128,-1,20
 240 74 240 74 188.5 147.5 c 128,-1,21
 137 221 137 221 111 316.5 c 128,-1,22
 85 412 85 412 85 506 c 0,23,24
 85 604 85 604 112 699 c 128,-1,25
 139 794 139 794 191.5 863.5 c 128,-1,26
 244 933 244 933 322 973 c 128,-1,27
 400 1013 400 1013 502 1013 c 0,28,29
 553 1013 553 1013 604 1000.5 c 128,-1,30
 655 988 655 988 700.5 963.5 c 128,-1,31
 746 939 746 939 784 902.5 c 128,-1,32
 822 866 822 866 848 830 c 1,33,-1
 848 1327 l 2,34,35
 848 1355 848 1355 858 1375.5 c 128,-1,36
 868 1396 868 1396 884.5 1409.5 c 128,-1,37
 901 1423 901 1423 922 1430 c 128,-1,38
 943 1437 943 1437 965 1437 c 256,39,40
 987 1437 987 1437 1008.5 1430 c 128,-1,41
 1030 1423 1030 1423 1046.5 1409.5 c 128,-1,42
 1063 1396 1063 1396 1073 1375 c 128,-1,43
 1083 1354 1083 1354 1083 1327 c 2,44,-1
 1083 112 l 2,0,1
581 857 m 0,45,46
 508 857 508 857 459.5 827 c 128,-1,47
 411 797 411 797 381.5 747 c 128,-1,48
 352 697 352 697 339.5 632.5 c 128,-1,49
 327 568 327 568 327 509 c 0,50,51
 327 452 327 452 337 385.5 c 128,-1,52
 347 319 347 319 374 264.5 c 128,-1,53
 401 210 401 210 448 175 c 128,-1,54
 495 140 495 140 569 140 c 0,55,56
 650 140 650 140 703 168.5 c 128,-1,57
 756 197 756 197 787.5 247.5 c 128,-1,58
 819 298 819 298 832 363 c 128,-1,59
 845 428 845 428 845 514 c 0,60,61
 845 591 845 591 831.5 648.5 c 128,-1,62
 818 706 818 706 787 754 c 128,-1,63
 756 802 756 802 705.5 829.5 c 128,-1,64
 655 857 655 857 581 857 c 0,45,46
EndSplineSet
EndChar

StartChar: e
Encoding: 101 101 72
Width: 1158
GlyphClass: 2
Flags: W
LayerCount: 2
Fore
SplineSet
1073 533 m 0,0,1
 1073 506 1073 506 1055.5 485.5 c 128,-1,2
 1038 465 1038 465 1002 465 c 2,3,-1
 321 465 l 1,4,5
 330 320 330 320 410.5 240 c 128,-1,6
 491 160 491 160 623 160 c 0,7,8
 704 160 704 160 776 183 c 128,-1,9
 848 206 848 206 923 244 c 0,10,11
 941 253 941 253 957 253 c 0,12,13
 984 253 984 253 1000.5 233 c 128,-1,14
 1017 213 1017 213 1017 187 c 0,15,16
 1017 176 1017 176 1013.5 163.5 c 128,-1,17
 1010 151 1010 151 1002 140 c 0,18,19
 970 99 970 99 923.5 70 c 128,-1,20
 877 41 877 41 823 23 c 128,-1,21
 769 5 769 5 711.5 -3.5 c 128,-1,22
 654 -12 654 -12 600 -12 c 0,23,24
 491 -12 491 -12 397 24 c 128,-1,25
 303 60 303 60 233.5 128.5 c 128,-1,26
 164 197 164 197 124.5 297.5 c 128,-1,27
 85 398 85 398 85 505 c 0,28,29
 85 596 85 596 122 690 c 128,-1,30
 159 784 159 784 223.5 854 c 128,-1,31
 288 924 288 924 378.5 968.5 c 128,-1,32
 469 1013 469 1013 589 1013 c 0,33,34
 712 1013 712 1013 801.5 974 c 128,-1,35
 891 935 891 935 950.5 870 c 128,-1,36
 1010 805 1010 805 1040.5 714.5 c 128,-1,37
 1071 624 1071 624 1073 533 c 0,0,1
865 585 m 1,38,39
 861 633 861 633 842 687 c 128,-1,40
 823 741 823 741 788.5 779.5 c 128,-1,41
 754 818 754 818 704.5 837.5 c 128,-1,42
 655 857 655 857 591 857 c 0,43,44
 533 857 533 857 485.5 836 c 128,-1,45
 438 815 438 815 403.5 775 c 128,-1,46
 369 735 369 735 348 682 c 128,-1,47
 327 629 327 629 323 585 c 1,48,-1
 865 585 l 1,38,39
EndSplineSet
EndChar

StartChar: f
Encoding: 102 102 73
Width: 723
GlyphClass: 2
Flags: W
LayerCount: 2
Fore
SplineSet
456 852 m 1,0,-1
 456 115 l 2,1,2
 456 86 456 86 446 64.5 c 128,-1,3
 436 43 436 43 419.5 28.5 c 128,-1,4
 403 14 403 14 381.5 7 c 128,-1,5
 360 0 360 0 338 0 c 256,6,7
 316 0 316 0 295 7 c 128,-1,8
 274 14 274 14 257.5 28.5 c 128,-1,9
 241 43 241 43 231 64.5 c 128,-1,10
 221 86 221 86 221 115 c 2,11,-1
 221 852 l 1,12,-1
 114 852 l 2,13,14
 72 852 72 852 51.5 875 c 128,-1,15
 31 898 31 898 31 927 c 0,16,17
 31 955 31 955 51.5 978 c 128,-1,18
 72 1001 72 1001 114 1001 c 2,19,-1
 221 1001 l 1,20,-1
 221 1089 l 2,21,22
 221 1191 221 1191 240.5 1261.5 c 128,-1,23
 260 1332 260 1332 297.5 1375.5 c 128,-1,24
 335 1419 335 1419 389.5 1438.5 c 128,-1,25
 444 1458 444 1458 515 1458 c 0,26,27
 557 1458 557 1458 600 1452 c 128,-1,28
 643 1446 643 1446 684 1435 c 0,29,30
 712 1427 712 1427 725 1406 c 128,-1,31
 738 1385 738 1385 738 1360 c 0,32,33
 738 1345 738 1345 733.5 1331 c 128,-1,34
 729 1317 729 1317 720.5 1306 c 128,-1,35
 712 1295 712 1295 699 1288.5 c 128,-1,36
 686 1282 686 1282 669 1282 c 0,37,38
 643 1282 643 1282 624 1285.5 c 128,-1,39
 605 1289 605 1289 585 1289 c 0,40,41
 543 1289 543 1289 517.5 1277.5 c 128,-1,42
 492 1266 492 1266 478.5 1237 c 128,-1,43
 465 1208 465 1208 460.5 1157.5 c 128,-1,44
 456 1107 456 1107 456 1029 c 2,45,-1
 456 1001 l 1,46,-1
 598 1001 l 2,47,48
 640 1001 640 1001 660.5 978 c 128,-1,49
 681 955 681 955 681 927 c 0,50,51
 681 898 681 898 660.5 875 c 128,-1,52
 640 852 640 852 598 852 c 2,53,-1
 456 852 l 1,0,-1
EndSplineSet
EndChar

StartChar: g
Encoding: 103 103 74
Width: 1207
GlyphClass: 2
Flags: W
LayerCount: 2
Fore
SplineSet
855 498 m 0,0,1
 855 576 855 576 841.5 636.5 c 128,-1,2
 828 697 828 697 797 747.5 c 128,-1,3
 766 798 766 798 714.5 827.5 c 128,-1,4
 663 857 663 857 587 857 c 0,5,6
 513 857 513 857 464.5 829 c 128,-1,7
 416 801 416 801 386.5 751.5 c 128,-1,8
 357 702 357 702 345 635 c 128,-1,9
 333 568 333 568 333 501 c 0,10,11
 333 407 333 407 353 343 c 128,-1,12
 373 279 373 279 407.5 236.5 c 128,-1,13
 442 194 442 194 489 173 c 128,-1,14
 536 152 536 152 589 152 c 0,15,16
 643 152 643 152 691.5 173.5 c 128,-1,17
 740 195 740 195 776 237.5 c 128,-1,18
 812 280 812 280 833.5 343.5 c 128,-1,19
 855 407 855 407 855 498 c 0,0,1
856 189 m 1,20,21
 829 141 829 141 791 105 c 128,-1,22
 753 69 753 69 708 46 c 128,-1,23
 663 23 663 23 613.5 11.5 c 128,-1,24
 564 0 564 0 514 0 c 0,25,26
 407 0 407 0 326 37 c 128,-1,27
 245 74 245 74 190.5 139 c 128,-1,28
 136 204 136 204 108.5 293.5 c 128,-1,29
 81 383 81 383 81 494 c 0,30,31
 81 594 81 594 108 691 c 128,-1,32
 135 788 135 788 188.5 859.5 c 128,-1,33
 242 931 242 931 320.5 972 c 128,-1,34
 399 1013 399 1013 502 1013 c 0,35,36
 557 1013 557 1013 608.5 1003 c 128,-1,37
 660 993 660 993 705.5 969.5 c 128,-1,38
 751 946 751 946 790.5 907.5 c 128,-1,39
 830 869 830 869 861 826 c 1,40,-1
 861 912 l 2,41,42
 864 934 864 934 874 950.5 c 128,-1,43
 884 967 884 967 899 978.5 c 128,-1,44
 914 990 914 990 932 995.5 c 128,-1,45
 950 1001 950 1001 969 1001 c 0,46,47
 990 1001 990 1001 1009.5 994 c 128,-1,48
 1029 987 1029 987 1045 973 c 128,-1,49
 1061 959 1061 959 1070.5 938.5 c 128,-1,50
 1080 918 1080 918 1080 890 c 2,51,-1
 1080 0 l 2,52,53
 1080 -121 1080 -121 1042 -205.5 c 128,-1,54
 1004 -290 1004 -290 936.5 -342.5 c 128,-1,55
 869 -395 869 -395 777 -418.5 c 128,-1,56
 685 -442 685 -442 576 -442 c 0,57,58
 423 -442 423 -442 333 -407 c 128,-1,59
 243 -372 243 -372 201 -300 c 0,60,61
 187 -277 187 -277 187 -257 c 0,62,63
 187 -227 187 -227 208 -204 c 128,-1,64
 229 -181 229 -181 259 -181 c 0,65,66
 272 -181 272 -181 287 -187 c 0,67,68
 315 -199 315 -199 343.5 -212 c 128,-1,69
 372 -225 372 -225 404 -235 c 128,-1,70
 436 -245 436 -245 474 -251.5 c 128,-1,71
 512 -258 512 -258 559 -258 c 0,72,73
 626 -258 626 -258 680.5 -246 c 128,-1,74
 735 -234 735 -234 774 -206.5 c 128,-1,75
 813 -179 813 -179 834.5 -133.5 c 128,-1,76
 856 -88 856 -88 856 -20 c 2,77,-1
 856 189 l 1,20,21
EndSplineSet
EndChar

StartChar: h
Encoding: 104 104 75
Width: 1195
GlyphClass: 2
Flags: W
LayerCount: 2
Fore
SplineSet
824 633 m 2,0,1
 824 690 824 690 808 732 c 128,-1,2
 792 774 792 774 765 802 c 128,-1,3
 738 830 738 830 702 843.5 c 128,-1,4
 666 857 666 857 626 857 c 0,5,6
 573 857 573 857 527 840 c 128,-1,7
 481 823 481 823 446.5 788.5 c 128,-1,8
 412 754 412 754 392 708 c 128,-1,9
 372 662 372 662 372 592 c 2,10,-1
 372 113 l 2,11,12
 372 85 372 85 362 64 c 128,-1,13
 352 43 352 43 335.5 28.5 c 128,-1,14
 319 14 319 14 297.5 7 c 128,-1,15
 276 0 276 0 254 0 c 256,16,17
 232 0 232 0 211 7 c 128,-1,18
 190 14 190 14 173.5 28.5 c 128,-1,19
 157 43 157 43 147 64 c 128,-1,20
 137 85 137 85 137 113 c 2,21,-1
 137 1327 l 2,22,23
 137 1354 137 1354 147 1375 c 128,-1,24
 157 1396 157 1396 173.5 1409.5 c 128,-1,25
 190 1423 190 1423 211.5 1430 c 128,-1,26
 233 1437 233 1437 255 1437 c 256,27,28
 277 1437 277 1437 298 1430 c 128,-1,29
 319 1423 319 1423 335.5 1409.5 c 128,-1,30
 352 1396 352 1396 362 1375 c 128,-1,31
 372 1354 372 1354 372 1327 c 2,32,-1
 372 815 l 1,33,34
 390 852 390 852 424.5 891.5 c 128,-1,35
 459 931 459 931 504 958 c 128,-1,36
 549 985 549 985 601 999 c 128,-1,37
 653 1013 653 1013 707 1013 c 0,38,39
 777 1013 777 1013 840.5 991 c 128,-1,40
 904 969 904 969 952.5 922.5 c 128,-1,41
 1001 876 1001 876 1029.5 803.5 c 128,-1,42
 1058 731 1058 731 1058 631 c 2,43,-1
 1058 113 l 2,44,45
 1058 85 1058 85 1048 64 c 128,-1,46
 1038 43 1038 43 1021.5 28.5 c 128,-1,47
 1005 14 1005 14 983.5 7 c 128,-1,48
 962 0 962 0 940 0 c 256,49,50
 918 0 918 0 897.5 7 c 128,-1,51
 877 14 877 14 860.5 28.5 c 128,-1,52
 844 43 844 43 834 64 c 128,-1,53
 824 85 824 85 824 113 c 2,54,-1
 824 633 l 2,0,1
EndSplineSet
EndChar

StartChar: i
Encoding: 105 105 76
Width: 511
GlyphClass: 2
Flags: W
LayerCount: 2
Fore
SplineSet
394 1333 m 0,0,1
 394 1284 394 1284 355 1252.5 c 128,-1,2
 316 1221 316 1221 255 1221 c 0,3,4
 225 1221 225 1221 199.5 1229.5 c 128,-1,5
 174 1238 174 1238 155.5 1253 c 128,-1,6
 137 1268 137 1268 126.5 1288.5 c 128,-1,7
 116 1309 116 1309 116 1333 c 256,8,9
 116 1357 116 1357 126.5 1377.5 c 128,-1,10
 137 1398 137 1398 155.5 1413 c 128,-1,11
 174 1428 174 1428 200 1436.5 c 128,-1,12
 226 1445 226 1445 256 1445 c 256,13,14
 286 1445 286 1445 311.5 1436.5 c 128,-1,15
 337 1428 337 1428 355 1413 c 128,-1,16
 373 1398 373 1398 383.5 1377.5 c 128,-1,17
 394 1357 394 1357 394 1333 c 0,0,1
138 885 m 2,18,19
 138 914 138 914 148 935.5 c 128,-1,20
 158 957 158 957 174.5 971.5 c 128,-1,21
 191 986 191 986 212.5 993.5 c 128,-1,22
 234 1001 234 1001 256 1001 c 256,23,24
 278 1001 278 1001 299 993.5 c 128,-1,25
 320 986 320 986 336.5 971.5 c 128,-1,26
 353 957 353 957 363 935.5 c 128,-1,27
 373 914 373 914 373 885 c 2,28,-1
 373 116 l 2,29,30
 373 87 373 87 362.5 65.5 c 128,-1,31
 352 44 352 44 335.5 29.5 c 128,-1,32
 319 15 319 15 297.5 7.5 c 128,-1,33
 276 0 276 0 254 0 c 256,34,35
 232 0 232 0 211 7 c 128,-1,36
 190 14 190 14 174 28.5 c 128,-1,37
 158 43 158 43 148 65 c 128,-1,38
 138 87 138 87 138 116 c 2,39,-1
 138 885 l 2,18,19
EndSplineSet
EndChar

StartChar: j
Encoding: 106 106 77
Width: 519
GlyphClass: 2
Flags: W
LayerCount: 2
Fore
SplineSet
381 -13 m 2,0,1
 381 -110 381 -110 370 -177 c 128,-1,2
 359 -244 359 -244 326.5 -286 c 128,-1,3
 294 -328 294 -328 235 -347 c 128,-1,4
 176 -366 176 -366 79 -366 c 0,5,6
 35 -366 35 -366 6 -352 c 128,-1,7
 -23 -338 -23 -338 -23 -321 c 1,8,9
 -37 -316 -37 -316 -44 -303 c 128,-1,10
 -51 -290 -51 -290 -51 -275 c 0,11,12
 -51 -252 -51 -252 -36 -232 c 128,-1,13
 -21 -212 -21 -212 8 -212 c 0,14,15
 54 -212 54 -212 81 -207 c 128,-1,16
 108 -202 108 -202 122.5 -184 c 128,-1,17
 137 -166 137 -166 141.5 -132 c 128,-1,18
 146 -98 146 -98 146 -41 c 2,19,-1
 146 885 l 2,20,21
 146 914 146 914 156 935.5 c 128,-1,22
 166 957 166 957 182.5 971.5 c 128,-1,23
 199 986 199 986 220.5 993.5 c 128,-1,24
 242 1001 242 1001 264 1001 c 256,25,26
 286 1001 286 1001 307 993.5 c 128,-1,27
 328 986 328 986 344.5 971.5 c 128,-1,28
 361 957 361 957 371 935.5 c 128,-1,29
 381 914 381 914 381 885 c 2,30,-1
 381 -13 l 2,0,1
403 1333 m 256,31,32
 403 1309 403 1309 392.5 1288.5 c 128,-1,33
 382 1268 382 1268 363.5 1253 c 128,-1,34
 345 1238 345 1238 319 1229.5 c 128,-1,35
 293 1221 293 1221 263 1221 c 256,36,37
 233 1221 233 1221 207.5 1229.5 c 128,-1,38
 182 1238 182 1238 163.5 1253 c 128,-1,39
 145 1268 145 1268 134.5 1288.5 c 128,-1,40
 124 1309 124 1309 124 1333 c 256,41,42
 124 1357 124 1357 134.5 1377.5 c 128,-1,43
 145 1398 145 1398 163.5 1413 c 128,-1,44
 182 1428 182 1428 208 1436.5 c 128,-1,45
 234 1445 234 1445 264 1445 c 256,46,47
 294 1445 294 1445 319.5 1436.5 c 128,-1,48
 345 1428 345 1428 363.5 1413 c 128,-1,49
 382 1398 382 1398 392.5 1377.5 c 128,-1,50
 403 1357 403 1357 403 1333 c 256,31,32
EndSplineSet
EndChar

StartChar: k
Encoding: 107 107 78
Width: 1047
GlyphClass: 2
Flags: W
LayerCount: 2
Fore
SplineSet
380 533 m 1,0,-1
 380 117 l 2,1,2
 380 88 380 88 369.5 66 c 128,-1,3
 359 44 359 44 342.5 29.5 c 128,-1,4
 326 15 326 15 304.5 7.5 c 128,-1,5
 283 0 283 0 261 0 c 256,6,7
 239 0 239 0 218.5 7.5 c 128,-1,8
 198 15 198 15 182 29.5 c 128,-1,9
 166 44 166 44 156 66 c 128,-1,10
 146 88 146 88 146 117 c 2,11,-1
 146 1321 l 2,12,13
 146 1349 146 1349 156 1371 c 128,-1,14
 166 1393 166 1393 182.5 1407.5 c 128,-1,15
 199 1422 199 1422 220 1429.5 c 128,-1,16
 241 1437 241 1437 264 1437 c 0,17,18
 286 1437 286 1437 306.5 1429.5 c 128,-1,19
 327 1422 327 1422 343.5 1407.5 c 128,-1,20
 360 1393 360 1393 370 1371 c 128,-1,21
 380 1349 380 1349 380 1321 c 2,22,-1
 380 599 l 1,23,-1
 775 959 l 2,24,25
 797 979 797 979 816.5 990 c 128,-1,26
 836 1001 836 1001 858 1001 c 0,27,28
 879 1001 879 1001 898 993.5 c 128,-1,29
 917 986 917 986 932 973 c 128,-1,30
 947 960 947 960 956 943 c 128,-1,31
 965 926 965 926 965 907 c 0,32,33
 965 891 965 891 959.5 876.5 c 128,-1,34
 954 862 954 862 940 850 c 2,35,-1
 608 565 l 1,36,-1
 986 152 l 2,37,38
 998 139 998 139 1001 125 c 128,-1,39
 1004 111 1004 111 1004 98 c 0,40,41
 1004 78 1004 78 994.5 60 c 128,-1,42
 985 42 985 42 969 28.5 c 128,-1,43
 953 15 953 15 932.5 7.5 c 128,-1,44
 912 0 912 0 891 0 c 0,45,46
 867 0 867 0 846 13 c 128,-1,47
 825 26 825 26 805 49 c 2,48,-1
 380 533 l 1,0,-1
EndSplineSet
EndChar

StartChar: l
Encoding: 108 108 79
Width: 511
GlyphClass: 2
Flags: W
LayerCount: 2
Fore
SplineSet
138 1321 m 2,0,1
 138 1350 138 1350 148 1371.5 c 128,-1,2
 158 1393 158 1393 174.5 1407.5 c 128,-1,3
 191 1422 191 1422 212.5 1429.5 c 128,-1,4
 234 1437 234 1437 256 1437 c 256,5,6
 278 1437 278 1437 299 1429.5 c 128,-1,7
 320 1422 320 1422 336.5 1407.5 c 128,-1,8
 353 1393 353 1393 363 1371.5 c 128,-1,9
 373 1350 373 1350 373 1321 c 2,10,-1
 373 116 l 2,11,12
 373 87 373 87 362.5 65.5 c 128,-1,13
 352 44 352 44 335.5 29.5 c 128,-1,14
 319 15 319 15 297.5 7.5 c 128,-1,15
 276 0 276 0 254 0 c 256,16,17
 232 0 232 0 211 7 c 128,-1,18
 190 14 190 14 174 28.5 c 128,-1,19
 158 43 158 43 148 65 c 128,-1,20
 138 87 138 87 138 116 c 2,21,-1
 138 1321 l 2,0,1
EndSplineSet
EndChar

StartChar: m
Encoding: 109 109 80
Width: 1877
GlyphClass: 2
Flags: W
LayerCount: 2
Fore
SplineSet
1505 633 m 2,0,1
 1505 690 1505 690 1489 732 c 128,-1,2
 1473 774 1473 774 1446 802 c 128,-1,3
 1419 830 1419 830 1383.5 843.5 c 128,-1,4
 1348 857 1348 857 1310 857 c 0,5,6
 1262 857 1262 857 1216.5 842 c 128,-1,7
 1171 827 1171 827 1135 794 c 128,-1,8
 1099 761 1099 761 1077.5 709 c 128,-1,9
 1056 657 1056 657 1056 582 c 2,10,-1
 1056 113 l 2,11,12
 1056 85 1056 85 1046 64 c 128,-1,13
 1036 43 1036 43 1019.5 28.5 c 128,-1,14
 1003 14 1003 14 981.5 7 c 128,-1,15
 960 0 960 0 938 0 c 256,16,17
 916 0 916 0 895.5 7 c 128,-1,18
 875 14 875 14 858.5 28.5 c 128,-1,19
 842 43 842 43 832 64 c 128,-1,20
 822 85 822 85 822 113 c 2,21,-1
 822 633 l 2,22,23
 822 690 822 690 805.5 732 c 128,-1,24
 789 774 789 774 762 802 c 128,-1,25
 735 830 735 830 699.5 843.5 c 128,-1,26
 664 857 664 857 626 857 c 0,27,28
 574 857 574 857 528 840 c 128,-1,29
 482 823 482 823 448 788.5 c 128,-1,30
 414 754 414 754 394 709 c 128,-1,31
 374 664 374 664 374 594 c 2,32,-1
 374 112 l 2,33,34
 374 84 374 84 363.5 63 c 128,-1,35
 353 42 353 42 336.5 28 c 128,-1,36
 320 14 320 14 298.5 7 c 128,-1,37
 277 0 277 0 255 0 c 256,38,39
 233 0 233 0 212.5 7 c 128,-1,40
 192 14 192 14 175.5 28 c 128,-1,41
 159 42 159 42 149 63 c 128,-1,42
 139 84 139 84 139 112 c 2,43,-1
 139 891 l 2,44,45
 139 918 139 918 149 939 c 128,-1,46
 159 960 159 960 175.5 973.5 c 128,-1,47
 192 987 192 987 213.5 994 c 128,-1,48
 235 1001 235 1001 257 1001 c 0,49,50
 278 1001 278 1001 298 994.5 c 128,-1,51
 318 988 318 988 334.5 975.5 c 128,-1,52
 351 963 351 963 361 943.5 c 128,-1,53
 371 924 371 924 373 898 c 0,54,55
 373 897 373 897 373.5 885 c 128,-1,56
 374 873 374 873 374 859 c 128,-1,57
 374 845 374 845 374 831.5 c 128,-1,58
 374 818 374 818 374 817 c 1,59,60
 393 854 393 854 428 893 c 128,-1,61
 463 932 463 932 507.5 958.5 c 128,-1,62
 552 985 552 985 603.5 999 c 128,-1,63
 655 1013 655 1013 708 1013 c 0,64,65
 762 1013 762 1013 813 999.5 c 128,-1,66
 864 986 864 986 906.5 958 c 128,-1,67
 949 930 949 930 982 887 c 128,-1,68
 1015 844 1015 844 1034 784 c 1,69,70
 1068 848 1068 848 1109.5 891.5 c 128,-1,71
 1151 935 1151 935 1197 962 c 128,-1,72
 1243 989 1243 989 1292.5 1001 c 128,-1,73
 1342 1013 1342 1013 1392 1013 c 0,74,75
 1462 1013 1462 1013 1525 990.5 c 128,-1,76
 1588 968 1588 968 1636 921.5 c 128,-1,77
 1684 875 1684 875 1712 803 c 128,-1,78
 1740 731 1740 731 1740 631 c 2,79,-1
 1740 112 l 2,80,81
 1740 84 1740 84 1729.5 63 c 128,-1,82
 1719 42 1719 42 1702.5 28 c 128,-1,83
 1686 14 1686 14 1664.5 7 c 128,-1,84
 1643 0 1643 0 1621 0 c 256,85,86
 1599 0 1599 0 1578.5 7 c 128,-1,87
 1558 14 1558 14 1541.5 28 c 128,-1,88
 1525 42 1525 42 1515 63 c 128,-1,89
 1505 84 1505 84 1505 112 c 2,90,-1
 1505 633 l 2,0,1
EndSplineSet
EndChar

StartChar: n
Encoding: 110 110 81
Width: 1195
GlyphClass: 2
Flags: W
LayerCount: 2
Fore
SplineSet
137 891 m 2,0,1
 137 918 137 918 147 939 c 128,-1,2
 157 960 157 960 173.5 973.5 c 128,-1,3
 190 987 190 987 211.5 994 c 128,-1,4
 233 1001 233 1001 255 1001 c 256,5,6
 277 1001 277 1001 297.5 994.5 c 128,-1,7
 318 988 318 988 334.5 974.5 c 128,-1,8
 351 961 351 961 361 941.5 c 128,-1,9
 371 922 371 922 372 895 c 2,10,-1
 372 817 l 1,11,12
 390 854 390 854 424.5 893 c 128,-1,13
 459 932 459 932 504 958.5 c 128,-1,14
 549 985 549 985 601 999 c 128,-1,15
 653 1013 653 1013 707 1013 c 0,16,17
 777 1013 777 1013 840.5 991 c 128,-1,18
 904 969 904 969 952.5 922.5 c 128,-1,19
 1001 876 1001 876 1029.5 803.5 c 128,-1,20
 1058 731 1058 731 1058 631 c 2,21,-1
 1058 113 l 2,22,23
 1058 85 1058 85 1048 64 c 128,-1,24
 1038 43 1038 43 1021.5 28.5 c 128,-1,25
 1005 14 1005 14 983.5 7 c 128,-1,26
 962 0 962 0 940 0 c 256,27,28
 918 0 918 0 897.5 7 c 128,-1,29
 877 14 877 14 860.5 28.5 c 128,-1,30
 844 43 844 43 834 64 c 128,-1,31
 824 85 824 85 824 113 c 2,32,-1
 824 633 l 2,33,34
 824 690 824 690 808 732 c 128,-1,35
 792 774 792 774 765 802 c 128,-1,36
 738 830 738 830 702 843.5 c 128,-1,37
 666 857 666 857 626 857 c 0,38,39
 573 857 573 857 527 840 c 128,-1,40
 481 823 481 823 446.5 788.5 c 128,-1,41
 412 754 412 754 392 709 c 128,-1,42
 372 664 372 664 372 594 c 2,43,-1
 372 113 l 2,44,45
 372 85 372 85 362 64 c 128,-1,46
 352 43 352 43 335.5 28.5 c 128,-1,47
 319 14 319 14 297.5 7 c 128,-1,48
 276 0 276 0 254 0 c 256,49,50
 232 0 232 0 211 7 c 128,-1,51
 190 14 190 14 173.5 28.5 c 128,-1,52
 157 43 157 43 147 64 c 128,-1,53
 137 85 137 85 137 113 c 2,54,-1
 137 891 l 2,0,1
EndSplineSet
EndChar

StartChar: o
Encoding: 111 111 82
Width: 1207
GlyphClass: 2
Flags: W
LayerCount: 2
Fore
SplineSet
79 499 m 0,0,1
 79 591 79 591 111 686.5 c 128,-1,2
 143 782 143 782 208 854.5 c 128,-1,3
 273 927 273 927 371.5 970 c 128,-1,4
 470 1013 470 1013 603 1013 c 256,5,6
 736 1013 736 1013 834.5 970 c 128,-1,7
 933 927 933 927 998.5 854.5 c 128,-1,8
 1064 782 1064 782 1096 686.5 c 128,-1,9
 1128 591 1128 591 1128 499 c 0,10,11
 1128 408 1128 408 1096 313.5 c 128,-1,12
 1064 219 1064 219 998.5 146.5 c 128,-1,13
 933 74 933 74 834.5 31 c 128,-1,14
 736 -12 736 -12 603 -12 c 256,15,16
 470 -12 470 -12 371.5 31 c 128,-1,17
 273 74 273 74 208 146.5 c 128,-1,18
 143 219 143 219 111 313.5 c 128,-1,19
 79 408 79 408 79 499 c 0,0,1
326 499 m 256,20,21
 326 440 326 440 341.5 373.5 c 128,-1,22
 357 307 357 307 390.5 255.5 c 128,-1,23
 424 204 424 204 476.5 173 c 128,-1,24
 529 142 529 142 603 142 c 256,25,26
 677 142 677 142 729.5 173 c 128,-1,27
 782 204 782 204 815.5 255.5 c 128,-1,28
 849 307 849 307 864.5 373.5 c 128,-1,29
 880 440 880 440 880 499 c 256,30,31
 880 558 880 558 864.5 624.5 c 128,-1,32
 849 691 849 691 815.5 743 c 128,-1,33
 782 795 782 795 729.5 826 c 128,-1,34
 677 857 677 857 603 857 c 256,35,36
 529 857 529 857 476.5 826 c 128,-1,37
 424 795 424 795 390.5 743 c 128,-1,38
 357 691 357 691 341.5 624.5 c 128,-1,39
 326 558 326 558 326 499 c 256,20,21
EndSplineSet
EndChar

StartChar: p
Encoding: 112 112 83
Width: 1207
GlyphClass: 2
Flags: W
LayerCount: 2
Fore
SplineSet
361 820 m 1,0,1
 388 861 388 861 426 899 c 128,-1,2
 464 937 464 937 509.5 962.5 c 128,-1,3
 555 988 555 988 606.5 1000.5 c 128,-1,4
 658 1013 658 1013 712 1013 c 0,5,6
 815 1013 815 1013 892.5 970 c 128,-1,7
 970 927 970 927 1021.5 854 c 128,-1,8
 1073 781 1073 781 1098.5 685.5 c 128,-1,9
 1124 590 1124 590 1124 494 c 256,10,11
 1124 398 1124 398 1096.5 303 c 128,-1,12
 1069 208 1069 208 1016 138 c 128,-1,13
 963 68 963 68 885.5 28 c 128,-1,14
 808 -12 808 -12 707 -12 c 0,15,16
 656 -12 656 -12 606 0.5 c 128,-1,17
 556 13 556 13 511 38 c 128,-1,18
 466 63 466 63 427.5 100.5 c 128,-1,19
 389 138 389 138 361 175 c 1,20,-1
 361 -272 l 2,21,22
 361 -299 361 -299 351 -320 c 128,-1,23
 341 -341 341 -341 324.5 -354.5 c 128,-1,24
 308 -368 308 -368 287 -375 c 128,-1,25
 266 -382 266 -382 244 -382 c 256,26,27
 222 -382 222 -382 201 -375 c 128,-1,28
 180 -368 180 -368 163.5 -354.5 c 128,-1,29
 147 -341 147 -341 137 -320 c 128,-1,30
 127 -299 127 -299 127 -272 c 2,31,-1
 127 890 l 2,32,33
 127 918 127 918 137 938.5 c 128,-1,34
 147 959 147 959 163 973 c 128,-1,35
 179 987 179 987 199.5 994 c 128,-1,36
 220 1001 220 1001 242 1001 c 0,37,38
 263 1001 263 1001 283 994.5 c 128,-1,39
 303 988 303 988 319.5 975.5 c 128,-1,40
 336 963 336 963 347 944 c 128,-1,41
 358 925 358 925 361 900 c 2,42,-1
 361 820 l 1,0,1
362 497 m 0,43,44
 362 427 362 427 376.5 367 c 128,-1,45
 391 307 391 307 423 257 c 128,-1,46
 455 207 455 207 506.5 177.5 c 128,-1,47
 558 148 558 148 632 148 c 256,48,49
 706 148 706 148 754.5 180 c 128,-1,50
 803 212 803 212 831.5 264 c 128,-1,51
 860 316 860 316 871 382 c 128,-1,52
 882 448 882 448 882 501 c 0,53,54
 882 556 882 556 871 621 c 128,-1,55
 860 686 860 686 832 738.5 c 128,-1,56
 804 791 804 791 756 824 c 128,-1,57
 708 857 708 857 634 857 c 0,58,59
 553 857 553 857 500.5 830.5 c 128,-1,60
 448 804 448 804 417.5 755.5 c 128,-1,61
 387 707 387 707 374.5 645.5 c 128,-1,62
 362 584 362 584 362 497 c 0,43,44
EndSplineSet
EndChar

StartChar: q
Encoding: 113 113 84
Width: 1207
GlyphClass: 2
Flags: W
LayerCount: 2
Fore
SplineSet
849 820 m 1,0,1
 849 821 849 821 849 833.5 c 128,-1,2
 849 846 849 846 849.5 861 c 128,-1,3
 850 876 850 876 850 889 c 128,-1,4
 850 902 850 902 850 903 c 0,5,6
 857 952 857 952 891.5 976.5 c 128,-1,7
 926 1001 926 1001 966 1001 c 0,8,9
 987 1001 987 1001 1007.5 994 c 128,-1,10
 1028 987 1028 987 1044 973 c 128,-1,11
 1060 959 1060 959 1069.5 938.5 c 128,-1,12
 1079 918 1079 918 1079 890 c 2,13,-1
 1079 -270 l 2,14,15
 1079 -297 1079 -297 1069 -318 c 128,-1,16
 1059 -339 1059 -339 1042.5 -352.5 c 128,-1,17
 1026 -366 1026 -366 1004.5 -373 c 128,-1,18
 983 -380 983 -380 961 -380 c 256,19,20
 939 -380 939 -380 918 -373 c 128,-1,21
 897 -366 897 -366 880.5 -352.5 c 128,-1,22
 864 -339 864 -339 854 -318.5 c 128,-1,23
 844 -298 844 -298 844 -270 c 2,24,-1
 844 175 l 1,25,26
 817 138 817 138 778.5 100.5 c 128,-1,27
 740 63 740 63 695 38 c 128,-1,28
 650 13 650 13 600 0.5 c 128,-1,29
 550 -12 550 -12 499 -12 c 0,30,31
 398 -12 398 -12 320.5 28 c 128,-1,32
 243 68 243 68 190 138 c 128,-1,33
 137 208 137 208 109.5 303 c 128,-1,34
 82 398 82 398 82 494 c 256,35,36
 82 590 82 590 107.5 685.5 c 128,-1,37
 133 781 133 781 184.5 854 c 128,-1,38
 236 927 236 927 313.5 970 c 128,-1,39
 391 1013 391 1013 494 1013 c 0,40,41
 548 1013 548 1013 600 1000.5 c 128,-1,42
 652 988 652 988 698.5 962.5 c 128,-1,43
 745 937 745 937 783.5 899 c 128,-1,44
 822 861 822 861 849 820 c 1,0,1
844 497 m 0,45,46
 844 583 844 583 831.5 645 c 128,-1,47
 819 707 819 707 788.5 755.5 c 128,-1,48
 758 804 758 804 705.5 830.5 c 128,-1,49
 653 857 653 857 572 857 c 0,50,51
 498 857 498 857 450 824 c 128,-1,52
 402 791 402 791 374 738.5 c 128,-1,53
 346 686 346 686 335 620.5 c 128,-1,54
 324 555 324 555 324 501 c 0,55,56
 324 448 324 448 335 382 c 128,-1,57
 346 316 346 316 374.5 264 c 128,-1,58
 403 212 403 212 451.5 180 c 128,-1,59
 500 148 500 148 574 148 c 256,60,61
 648 148 648 148 699.5 177.5 c 128,-1,62
 751 207 751 207 783 257 c 128,-1,63
 815 307 815 307 829.5 367 c 128,-1,64
 844 427 844 427 844 497 c 0,45,46
EndSplineSet
EndChar

StartChar: r
Encoding: 114 114 85
Width: 763
GlyphClass: 2
Flags: W
LayerCount: 2
Fore
SplineSet
137 891 m 2,0,1
 137 918 137 918 147.5 939 c 128,-1,2
 158 960 158 960 174.5 973.5 c 128,-1,3
 191 987 191 987 212.5 994 c 128,-1,4
 234 1001 234 1001 256 1001 c 0,5,6
 277 1001 277 1001 297 994.5 c 128,-1,7
 317 988 317 988 333 975.5 c 128,-1,8
 349 963 349 963 359.5 943.5 c 128,-1,9
 370 924 370 924 371 898 c 0,10,11
 371 897 371 897 371.5 885 c 128,-1,12
 372 873 372 873 372 857.5 c 128,-1,13
 372 842 372 842 372 830 c 128,-1,14
 372 818 372 818 372 817 c 1,15,16
 395 902 395 902 460 957.5 c 128,-1,17
 525 1013 525 1013 634 1013 c 0,18,19
 659 1013 659 1013 678.5 1004.5 c 128,-1,20
 698 996 698 996 711 983 c 128,-1,21
 724 970 724 970 730.5 953 c 128,-1,22
 737 936 737 936 737 918 c 256,23,24
 737 900 737 900 730.5 883 c 128,-1,25
 724 866 724 866 710.5 852.5 c 128,-1,26
 697 839 697 839 676.5 830.5 c 128,-1,27
 656 822 656 822 629 822 c 0,28,29
 571 822 571 822 523.5 805 c 128,-1,30
 476 788 476 788 442.5 753.5 c 128,-1,31
 409 719 409 719 390.5 674 c 128,-1,32
 372 629 372 629 372 559 c 2,33,-1
 372 111 l 2,34,35
 372 83 372 83 361.5 62.5 c 128,-1,36
 351 42 351 42 334.5 28 c 128,-1,37
 318 14 318 14 296.5 7 c 128,-1,38
 275 0 275 0 253 0 c 256,39,40
 231 0 231 0 210.5 7 c 128,-1,41
 190 14 190 14 173.5 27.5 c 128,-1,42
 157 41 157 41 147 62 c 128,-1,43
 137 83 137 83 137 111 c 2,44,-1
 137 891 l 2,0,1
EndSplineSet
EndChar

StartChar: s
Encoding: 115 115 86
Width: 1046
GlyphClass: 2
Flags: W
LayerCount: 2
Fore
SplineSet
325 743 m 0,0,1
 325 712 325 712 343 691 c 128,-1,2
 361 670 361 670 392 654.5 c 128,-1,3
 423 639 423 639 465 628 c 128,-1,4
 507 617 507 617 556 606 c 128,-1,5
 605 595 605 595 658.5 580 c 128,-1,6
 712 565 712 565 765 547 c 0,7,8
 860 519 860 519 914.5 459 c 128,-1,9
 969 399 969 399 969 309 c 0,10,11
 969 235 969 235 934 173 c 128,-1,12
 899 111 899 111 838 70 c 128,-1,13
 777 29 777 29 695.5 8.5 c 128,-1,14
 614 -12 614 -12 521 -12 c 0,15,16
 437 -12 437 -12 361.5 2 c 128,-1,17
 286 16 286 16 229 40 c 128,-1,18
 172 64 172 64 138.5 96 c 128,-1,19
 105 128 105 128 105 164 c 0,20,21
 105 192 105 192 127 211 c 128,-1,22
 149 230 149 230 183 230 c 0,23,24
 203 230 203 230 237 217 c 128,-1,25
 271 204 271 204 317 186 c 128,-1,26
 363 168 363 168 419 155 c 128,-1,27
 475 142 475 142 540 142 c 0,28,29
 580 142 580 142 618 150.5 c 128,-1,30
 656 159 656 159 685.5 177.5 c 128,-1,31
 715 196 715 196 733 224.5 c 128,-1,32
 751 253 751 253 751 292 c 0,33,34
 751 328 751 328 719.5 359.5 c 128,-1,35
 688 391 688 391 631 408 c 0,36,37
 564 427 564 427 499.5 441 c 128,-1,38
 435 455 435 455 376.5 470.5 c 128,-1,39
 318 486 318 486 268.5 506 c 128,-1,40
 219 526 219 526 183.5 556.5 c 128,-1,41
 148 587 148 587 127.5 631 c 128,-1,42
 107 675 107 675 107 737 c 0,43,44
 107 798 107 798 139 852.5 c 128,-1,45
 171 907 171 907 227.5 943 c 128,-1,46
 284 979 284 979 361 996 c 128,-1,47
 438 1013 438 1013 528 1013 c 0,48,49
 622 1013 622 1013 692 999 c 128,-1,50
 762 985 762 985 808.5 962.5 c 128,-1,51
 855 940 855 940 878 911.5 c 128,-1,52
 901 883 901 883 901 854 c 0,53,54
 901 826 901 826 879 810.5 c 128,-1,55
 857 795 857 795 825 795 c 0,56,57
 814 795 814 795 802.5 797.5 c 128,-1,58
 791 800 791 800 780 806 c 0,59,60
 740 829 740 829 681.5 843 c 128,-1,61
 623 857 623 857 538 857 c 0,62,63
 490 857 490 857 450.5 850.5 c 128,-1,64
 411 844 411 844 383.5 829 c 128,-1,65
 356 814 356 814 340.5 788 c 128,-1,66
 325 762 325 762 325 743 c 0,0,1
EndSplineSet
EndChar

StartChar: t
Encoding: 116 116 87
Width: 743
GlyphClass: 2
Flags: W
LayerCount: 2
Fore
SplineSet
226 1001 m 1,0,-1
 245 1270 l 2,1,2
 247 1292 247 1292 257.5 1309.5 c 128,-1,3
 268 1327 268 1327 284 1339 c 128,-1,4
 300 1351 300 1351 319 1357 c 128,-1,5
 338 1363 338 1363 357 1363 c 0,6,7
 393 1363 393 1363 421 1341 c 128,-1,8
 449 1319 449 1319 449 1272 c 2,9,-1
 449 1001 l 1,10,-1
 602 1001 l 2,11,12
 643 1001 643 1001 664 975.5 c 128,-1,13
 685 950 685 950 685 920 c 256,14,15
 685 890 685 890 664.5 865 c 128,-1,16
 644 840 644 840 602 840 c 2,17,-1
 449 840 l 1,18,-1
 449 424 l 2,19,20
 449 353 449 353 451.5 304 c 128,-1,21
 454 255 454 255 464.5 224.5 c 128,-1,22
 475 194 475 194 497.5 180.5 c 128,-1,23
 520 167 520 167 560 167 c 0,24,25
 570 167 570 167 582 168 c 128,-1,26
 594 169 594 169 606 170.5 c 128,-1,27
 618 172 618 172 628.5 173 c 128,-1,28
 639 174 639 174 645 174 c 0,29,30
 683 174 683 174 704 149 c 128,-1,31
 725 124 725 124 725 93 c 0,32,33
 725 61 725 61 705.5 41 c 128,-1,34
 686 21 686 21 654.5 9 c 128,-1,35
 623 -3 623 -3 584 -7.5 c 128,-1,36
 545 -12 545 -12 505 -12 c 0,37,38
 435 -12 435 -12 381 6 c 128,-1,39
 327 24 327 24 290 65.5 c 128,-1,40
 253 107 253 107 233.5 175 c 128,-1,41
 214 243 214 243 214 342 c 2,42,-1
 214 840 l 1,43,-1
 117 840 l 2,44,45
 75 840 75 840 54.5 865 c 128,-1,46
 34 890 34 890 34 920 c 256,47,48
 34 950 34 950 55 975.5 c 128,-1,49
 76 1001 76 1001 118 1001 c 2,50,-1
 226 1001 l 1,0,-1
EndSplineSet
EndChar

StartChar: u
Encoding: 117 117 88
Width: 1195
GlyphClass: 2
Flags: W
LayerCount: 2
Fore
SplineSet
1058 112 m 2,0,1
 1058 84 1058 84 1048 63 c 128,-1,2
 1038 42 1038 42 1021.5 28 c 128,-1,3
 1005 14 1005 14 983.5 7 c 128,-1,4
 962 0 962 0 940 0 c 0,5,6
 919 0 919 0 898.5 6.5 c 128,-1,7
 878 13 878 13 861.5 26.5 c 128,-1,8
 845 40 845 40 835 59.5 c 128,-1,9
 825 79 825 79 824 106 c 2,10,-1
 824 181 l 1,11,12
 804 144 804 144 769 106 c 128,-1,13
 734 68 734 68 689 41.5 c 128,-1,14
 644 15 644 15 592.5 1.5 c 128,-1,15
 541 -12 541 -12 489 -12 c 0,16,17
 419 -12 419 -12 355 10.5 c 128,-1,18
 291 33 291 33 242.5 80 c 128,-1,19
 194 127 194 127 165.5 199 c 128,-1,20
 137 271 137 271 137 366 c 2,21,-1
 137 888 l 2,22,23
 137 916 137 916 147 937 c 128,-1,24
 157 958 157 958 173.5 972.5 c 128,-1,25
 190 987 190 987 211 994 c 128,-1,26
 232 1001 232 1001 254 1001 c 256,27,28
 276 1001 276 1001 297.5 994 c 128,-1,29
 319 987 319 987 335.5 972.5 c 128,-1,30
 352 958 352 958 362 937 c 128,-1,31
 372 916 372 916 372 888 c 2,32,-1
 372 362 l 2,33,34
 372 309 372 309 388 267 c 128,-1,35
 404 225 404 225 431 197 c 128,-1,36
 458 169 458 169 494 155.5 c 128,-1,37
 530 142 530 142 569 142 c 0,38,39
 619 142 619 142 664 157.5 c 128,-1,40
 709 173 709 173 743 204.5 c 128,-1,41
 777 236 777 236 798.5 277.5 c 128,-1,42
 820 319 820 319 824 383 c 1,43,-1
 824 889 l 2,44,45
 824 917 824 917 834 938 c 128,-1,46
 844 959 844 959 860.5 973 c 128,-1,47
 877 987 877 987 898 994 c 128,-1,48
 919 1001 919 1001 941 1001 c 256,49,50
 963 1001 963 1001 984 994 c 128,-1,51
 1005 987 1005 987 1021.5 973 c 128,-1,52
 1038 959 1038 959 1048 938 c 128,-1,53
 1058 917 1058 917 1058 889 c 2,54,-1
 1058 112 l 2,0,1
EndSplineSet
EndChar

StartChar: v
Encoding: 118 118 89
Width: 1069
GlyphClass: 2
Flags: W
LayerCount: 2
Fore
SplineSet
738 168 m 2,0,1
 721 124 721 124 702 92.5 c 128,-1,2
 683 61 683 61 659 40.5 c 128,-1,3
 635 20 635 20 605.5 10 c 128,-1,4
 576 0 576 0 538 0 c 256,5,6
 500 0 500 0 471 10 c 128,-1,7
 442 20 442 20 418.5 40.5 c 128,-1,8
 395 61 395 61 376 92.5 c 128,-1,9
 357 124 357 124 339 168 c 2,10,-1
 61 861 l 2,11,12
 54 878 54 878 54 899 c 0,13,14
 54 922 54 922 64 941 c 128,-1,15
 74 960 74 960 90.5 973.5 c 128,-1,16
 107 987 107 987 128 994 c 128,-1,17
 149 1001 149 1001 171 1001 c 0,18,19
 204 1001 204 1001 231 982 c 128,-1,20
 258 963 258 963 274 922 c 2,21,-1
 538 230 l 1,22,-1
 793 921 l 2,23,24
 808 963 808 963 836 982 c 128,-1,25
 864 1001 864 1001 898 1001 c 0,26,27
 919 1001 919 1001 940 994 c 128,-1,28
 961 987 961 987 977.5 973.5 c 128,-1,29
 994 960 994 960 1004 941 c 128,-1,30
 1014 922 1014 922 1014 899 c 0,31,32
 1013 890 1013 890 1012 880 c 128,-1,33
 1011 870 1011 870 1007 860 c 2,34,-1
 738 168 l 2,0,1
EndSplineSet
EndChar

StartChar: w
Encoding: 119 119 90
Width: 1742
GlyphClass: 2
Flags: W
LayerCount: 2
Fore
SplineSet
877 807 m 1,0,-1
 644 145 l 2,1,2
 629 102 629 102 610 74 c 128,-1,3
 591 46 591 46 569.5 29.5 c 128,-1,4
 548 13 548 13 523.5 6.5 c 128,-1,5
 499 0 499 0 473 0 c 0,6,7
 425 0 425 0 386 29.5 c 128,-1,8
 347 59 347 59 322 130 c 2,9,-1
 70 855 l 2,10,11
 66 866 66 866 65.5 875 c 128,-1,12
 65 884 65 884 65 891 c 0,13,14
 65 916 65 916 74 936.5 c 128,-1,15
 83 957 83 957 98 971.5 c 128,-1,16
 113 986 113 986 131.5 993.5 c 128,-1,17
 150 1001 150 1001 169 1001 c 0,18,19
 203 1001 203 1001 231 980 c 128,-1,20
 259 959 259 959 273 917 c 2,21,-1
 494 218 l 1,22,-1
 728 881 l 2,23,24
 750 943 750 943 786 972 c 128,-1,25
 822 1001 822 1001 880 1001 c 0,26,27
 940 1001 940 1001 976.5 972.5 c 128,-1,28
 1013 944 1013 944 1034 881 c 2,29,-1
 1253 226 l 1,30,-1
 1474 917 l 2,31,32
 1488 959 1488 959 1515.5 980 c 128,-1,33
 1543 1001 1543 1001 1577 1001 c 0,34,35
 1625 1001 1625 1001 1651.5 972 c 128,-1,36
 1678 943 1678 943 1678 898 c 0,37,38
 1678 876 1678 876 1671 855 c 2,39,-1
 1411 131 l 2,40,41
 1385 60 1385 60 1347 30 c 128,-1,42
 1309 0 1309 0 1260 0 c 0,43,44
 1235 0 1235 0 1212.5 6.5 c 128,-1,45
 1190 13 1190 13 1170.5 29.5 c 128,-1,46
 1151 46 1151 46 1134 74 c 128,-1,47
 1117 102 1117 102 1102 146 c 2,48,-1
 877 807 l 1,0,-1
EndSplineSet
EndChar

StartChar: x
Encoding: 120 120 91
Width: 1076
GlyphClass: 2
Flags: W
LayerCount: 2
Fore
SplineSet
386 513 m 1,0,-1
 132 833 l 2,1,2
 109 862 109 862 109 893 c 0,3,4
 109 915 109 915 119 934.5 c 128,-1,5
 129 954 129 954 146 969 c 128,-1,6
 163 984 163 984 184 992.5 c 128,-1,7
 205 1001 205 1001 228 1001 c 256,8,9
 251 1001 251 1001 274.5 990 c 128,-1,10
 298 979 298 979 316 953 c 2,11,-1
 544 648 l 1,12,-1
 780 957 l 2,13,14
 797 981 797 981 818 991 c 128,-1,15
 839 1001 839 1001 861 1001 c 0,16,17
 882 1001 882 1001 901.5 993 c 128,-1,18
 921 985 921 985 936 971.5 c 128,-1,19
 951 958 951 958 960.5 940 c 128,-1,20
 970 922 970 922 970 902 c 0,21,22
 970 873 970 873 948 845 c 2,23,-1
 692 516 l 1,24,-1
 969 166 l 2,25,26
 992 137 992 137 992 106 c 0,27,28
 992 85 992 85 982 65.5 c 128,-1,29
 972 46 972 46 955 31.5 c 128,-1,30
 938 17 938 17 916.5 8.5 c 128,-1,31
 895 0 895 0 873 0 c 0,32,33
 849 0 849 0 826 11 c 128,-1,34
 803 22 803 22 784 47 c 2,35,-1
 530 382 l 1,36,-1
 276 44 l 2,37,38
 259 21 259 21 238.5 10.5 c 128,-1,39
 218 0 218 0 196 0 c 0,40,41
 175 0 175 0 155 8.5 c 128,-1,42
 135 17 135 17 119 31 c 128,-1,43
 103 45 103 45 93.5 63.5 c 128,-1,44
 84 82 84 82 84 102 c 0,45,46
 84 131 84 131 104 157 c 2,47,-1
 386 513 l 1,0,-1
EndSplineSet
EndChar

StartChar: y
Encoding: 121 121 92
Width: 1058
GlyphClass: 2
Flags: W
LayerCount: 2
Fore
SplineSet
423 11 m 1,0,-1
 56 857 l 2,1,2
 51 868 51 868 49 878.5 c 128,-1,3
 47 889 47 889 47 899 c 0,4,5
 47 921 47 921 57 940 c 128,-1,6
 67 959 67 959 83.5 972.5 c 128,-1,7
 100 986 100 986 120.5 993.5 c 128,-1,8
 141 1001 141 1001 163 1001 c 0,9,10
 194 1001 194 1001 221 984.5 c 128,-1,11
 248 968 248 968 263 930 c 2,12,-1
 534 241 l 1,13,-1
 809 931 l 2,14,15
 821 968 821 968 847 984.5 c 128,-1,16
 873 1001 873 1001 902 1001 c 0,17,18
 923 1001 923 1001 942.5 993.5 c 128,-1,19
 962 986 962 986 978 972.5 c 128,-1,20
 994 959 994 959 1003.5 940 c 128,-1,21
 1013 921 1013 921 1013 898 c 0,22,23
 1013 889 1013 889 1011.5 878.5 c 128,-1,24
 1010 868 1010 868 1006 858 c 2,25,-1
 525 -333 l 2,26,27
 510 -373 510 -373 482 -390.5 c 128,-1,28
 454 -408 454 -408 422 -408 c 0,29,30
 401 -408 401 -408 380.5 -400.5 c 128,-1,31
 360 -393 360 -393 344 -379 c 128,-1,32
 328 -365 328 -365 318 -346 c 128,-1,33
 308 -327 308 -327 308 -303 c 0,34,35
 309 -295 309 -295 310 -285 c 128,-1,36
 311 -275 311 -275 315 -265 c 2,37,-1
 423 11 l 1,0,-1
EndSplineSet
EndChar

StartChar: z
Encoding: 122 122 93
Width: 966
GlyphClass: 2
Flags: W
LayerCount: 2
Fore
SplineSet
808 176 m 2,0,1
 852 176 852 176 874 148.5 c 128,-1,2
 896 121 896 121 896 88 c 256,3,4
 896 55 896 55 874 27.5 c 128,-1,5
 852 0 852 0 808 0 c 2,6,-1
 177 0 l 2,7,8
 152 0 152 0 132.5 7.5 c 128,-1,9
 113 15 113 15 99.5 28 c 128,-1,10
 86 41 86 41 78.5 58.5 c 128,-1,11
 71 76 71 76 71 95 c 0,12,13
 71 113 71 113 77.5 132 c 128,-1,14
 84 151 84 151 98 169 c 2,15,-1
 616 824 l 1,16,-1
 177 824 l 2,17,18
 155 824 155 824 138.5 831.5 c 128,-1,19
 122 839 122 839 111 851.5 c 128,-1,20
 100 864 100 864 94.5 880 c 128,-1,21
 89 896 89 896 89 913 c 0,22,23
 89 946 89 946 111 973.5 c 128,-1,24
 133 1001 133 1001 177 1001 c 2,25,-1
 787 1001 l 2,26,27
 844 1001 844 1001 872 975 c 128,-1,28
 900 949 900 949 900 912 c 0,29,30
 900 894 900 894 892.5 873.5 c 128,-1,31
 885 853 885 853 871 834 c 2,32,-1
 353 176 l 1,33,-1
 808 176 l 2,0,1
EndSplineSet
EndChar

StartChar: braceleft
Encoding: 123 123 94
Width: 694
GlyphClass: 2
Flags: W
LayerCount: 2
Fore
SplineSet
595 -54 m 2,0,1
 614 -54 614 -54 629 -61.5 c 128,-1,2
 644 -69 644 -69 653.5 -81 c 128,-1,3
 663 -93 663 -93 668 -108.5 c 128,-1,4
 673 -124 673 -124 673 -140 c 256,5,6
 673 -156 673 -156 668 -171.5 c 128,-1,7
 663 -187 663 -187 653.5 -199 c 128,-1,8
 644 -211 644 -211 629 -218.5 c 128,-1,9
 614 -226 614 -226 595 -226 c 2,10,-1
 446 -226 l 2,11,12
 404 -226 404 -226 365.5 -208.5 c 128,-1,13
 327 -191 327 -191 298 -159.5 c 128,-1,14
 269 -128 269 -128 251.5 -85 c 128,-1,15
 234 -42 234 -42 234 8 c 2,16,-1
 234 316 l 2,17,18
 234 367 234 367 228.5 406.5 c 128,-1,19
 223 446 223 446 207.5 473 c 128,-1,20
 192 500 192 500 164.5 515.5 c 128,-1,21
 137 531 137 531 93 535 c 0,22,23
 72 535 72 535 56 542.5 c 128,-1,24
 40 550 40 550 29.5 563 c 128,-1,25
 19 576 19 576 14 591.5 c 128,-1,26
 9 607 9 607 9 624 c 256,27,28
 9 641 9 641 14 657 c 128,-1,29
 19 673 19 673 29.5 686 c 128,-1,30
 40 699 40 699 56 706.5 c 128,-1,31
 72 714 72 714 93 714 c 0,32,33
 137 718 137 718 164.5 733.5 c 128,-1,34
 192 749 192 749 207.5 776.5 c 128,-1,35
 223 804 223 804 228.5 843.5 c 128,-1,36
 234 883 234 883 234 935 c 2,37,-1
 234 1245 l 2,38,39
 234 1295 234 1295 251.5 1337.5 c 128,-1,40
 269 1380 269 1380 298 1411.5 c 128,-1,41
 327 1443 327 1443 365.5 1461 c 128,-1,42
 404 1479 404 1479 446 1479 c 2,43,-1
 595 1479 l 2,44,45
 634 1479 634 1479 653.5 1452 c 128,-1,46
 673 1425 673 1425 673 1392 c 0,47,48
 673 1376 673 1376 668 1360.5 c 128,-1,49
 663 1345 663 1345 653.5 1333 c 128,-1,50
 644 1321 644 1321 629 1313.5 c 128,-1,51
 614 1306 614 1306 595 1306 c 2,52,-1
 541 1306 l 2,53,54
 493 1306 493 1306 475 1269 c 128,-1,55
 457 1232 457 1232 457 1162 c 2,56,-1
 457 886 l 2,57,58
 457 824 457 824 439.5 780 c 128,-1,59
 422 736 422 736 398 705.5 c 128,-1,60
 374 675 374 675 347.5 657.5 c 128,-1,61
 321 640 321 640 303 631 c 0,62,63
 299 628 299 628 295 624 c 1,64,65
 309 619 309 619 336 603.5 c 128,-1,66
 363 588 363 588 390 557.5 c 128,-1,67
 417 527 417 527 437 479.5 c 128,-1,68
 457 432 457 432 457 365 c 2,69,-1
 457 91 l 2,70,71
 457 20 457 20 475 -17 c 128,-1,72
 493 -54 493 -54 541 -54 c 2,73,-1
 595 -54 l 2,0,1
EndSplineSet
EndChar

StartChar: bar
Encoding: 124 124 95
Width: 455
GlyphClass: 2
Flags: W
LayerCount: 2
Fore
SplineSet
143 1402 m 2,0,1
 143 1423 143 1423 150.5 1438.5 c 128,-1,2
 158 1454 158 1454 170 1464.5 c 128,-1,3
 182 1475 182 1475 197 1480.5 c 128,-1,4
 212 1486 212 1486 228 1486 c 256,5,6
 244 1486 244 1486 259 1480.5 c 128,-1,7
 274 1475 274 1475 286 1464.5 c 128,-1,8
 298 1454 298 1454 305 1438.5 c 128,-1,9
 312 1423 312 1423 312 1402 c 2,10,-1
 312 -271 l 2,11,12
 312 -292 312 -292 304.5 -308 c 128,-1,13
 297 -324 297 -324 285 -334.5 c 128,-1,14
 273 -345 273 -345 258 -350.5 c 128,-1,15
 243 -356 243 -356 227 -356 c 256,16,17
 211 -356 211 -356 196 -350.5 c 128,-1,18
 181 -345 181 -345 169 -334.5 c 128,-1,19
 157 -324 157 -324 150 -308 c 128,-1,20
 143 -292 143 -292 143 -271 c 2,21,-1
 143 1402 l 2,0,1
EndSplineSet
EndChar

StartChar: braceright
Encoding: 125 125 96
Width: 694
GlyphClass: 2
Flags: W
LayerCount: 2
Fore
SplineSet
151 -54 m 2,0,1
 199 -54 199 -54 217 -17 c 128,-1,2
 235 20 235 20 235 91 c 2,3,-1
 235 365 l 2,4,5
 235 432 235 432 255 479.5 c 128,-1,6
 275 527 275 527 302 557.5 c 128,-1,7
 329 588 329 588 356 603.5 c 128,-1,8
 383 619 383 619 397 624 c 1,9,10
 396 625 396 625 394.5 626.5 c 128,-1,11
 393 628 393 628 391 630 c 0,12,13
 374 637 374 637 347.5 654.5 c 128,-1,14
 321 672 321 672 296 702 c 128,-1,15
 271 732 271 732 253 777.5 c 128,-1,16
 235 823 235 823 235 886 c 2,17,-1
 235 1162 l 2,18,19
 235 1232 235 1232 217 1269 c 128,-1,20
 199 1306 199 1306 151 1306 c 2,21,-1
 97 1306 l 2,22,23
 77 1306 77 1306 62.5 1313.5 c 128,-1,24
 48 1321 48 1321 38.5 1333 c 128,-1,25
 29 1345 29 1345 24 1360.5 c 128,-1,26
 19 1376 19 1376 19 1392 c 0,27,28
 19 1425 19 1425 38.5 1452 c 128,-1,29
 58 1479 58 1479 97 1479 c 2,30,-1
 246 1479 l 2,31,32
 288 1479 288 1479 326.5 1461 c 128,-1,33
 365 1443 365 1443 394.5 1411.5 c 128,-1,34
 424 1380 424 1380 441 1337.5 c 128,-1,35
 458 1295 458 1295 458 1245 c 2,36,-1
 458 935 l 2,37,38
 458 883 458 883 463.5 843.5 c 128,-1,39
 469 804 469 804 484.5 776.5 c 128,-1,40
 500 749 500 749 527.5 733.5 c 128,-1,41
 555 718 555 718 599 714 c 0,42,43
 620 714 620 714 635.5 706.5 c 128,-1,44
 651 699 651 699 661.5 686 c 128,-1,45
 672 673 672 673 677.5 657 c 128,-1,46
 683 641 683 641 683 624 c 256,47,48
 683 607 683 607 677.5 591.5 c 128,-1,49
 672 576 672 576 661.5 563 c 128,-1,50
 651 550 651 550 635.5 542.5 c 128,-1,51
 620 535 620 535 599 535 c 0,52,53
 555 531 555 531 527.5 515.5 c 128,-1,54
 500 500 500 500 484.5 473 c 128,-1,55
 469 446 469 446 463.5 406.5 c 128,-1,56
 458 367 458 367 458 316 c 2,57,-1
 458 8 l 2,58,59
 458 -42 458 -42 441 -85 c 128,-1,60
 424 -128 424 -128 394.5 -159.5 c 128,-1,61
 365 -191 365 -191 326.5 -208.5 c 128,-1,62
 288 -226 288 -226 246 -226 c 2,63,-1
 97 -226 l 2,64,65
 77 -226 77 -226 62.5 -218.5 c 128,-1,66
 48 -211 48 -211 38.5 -199 c 128,-1,67
 29 -187 29 -187 24 -171.5 c 128,-1,68
 19 -156 19 -156 19 -140 c 256,69,70
 19 -124 19 -124 24 -108.5 c 128,-1,71
 29 -93 29 -93 38.5 -81 c 128,-1,72
 48 -69 48 -69 62.5 -61.5 c 128,-1,73
 77 -54 77 -54 97 -54 c 2,74,-1
 151 -54 l 2,0,1
EndSplineSet
EndChar

StartChar: asciitilde
Encoding: 126 126 97
Width: 1315
GlyphClass: 2
Flags: W
LayerCount: 2
Fore
SplineSet
782 1304 m 0,0,1
 802 1304 802 1304 816 1316 c 128,-1,2
 830 1328 830 1328 842 1349 c 0,3,4
 855 1371 855 1371 870.5 1380 c 128,-1,5
 886 1389 886 1389 902 1389 c 0,6,7
 925 1389 925 1389 943.5 1371.5 c 128,-1,8
 962 1354 962 1354 962 1330 c 0,9,10
 962 1325 962 1325 960 1315 c 0,11,12
 943 1240 943 1240 899 1199 c 128,-1,13
 855 1158 855 1158 778 1158 c 0,14,15
 741 1158 741 1158 705.5 1171.5 c 128,-1,16
 670 1185 670 1185 636.5 1201 c 128,-1,17
 603 1217 603 1217 573 1230.5 c 128,-1,18
 543 1244 543 1244 518 1244 c 0,19,20
 495 1244 495 1244 477 1231 c 128,-1,21
 459 1218 459 1218 442 1194 c 0,22,23
 420 1162 420 1162 386 1162 c 0,24,25
 363 1162 363 1162 344.5 1177.5 c 128,-1,26
 326 1193 326 1193 326 1218 c 0,27,28
 326 1226 326 1226 329 1237 c 0,29,30
 349 1312 349 1312 394 1350.5 c 128,-1,31
 439 1389 439 1389 512 1389 c 0,32,33
 554 1389 554 1389 592.5 1375.5 c 128,-1,34
 631 1362 631 1362 665 1346.5 c 128,-1,35
 699 1331 699 1331 728.5 1317.5 c 128,-1,36
 758 1304 758 1304 782 1304 c 0,0,1
EndSplineSet
EndChar

StartChar: cent
Encoding: 162 162 100
Width: 1046
GlyphClass: 2
Flags: W
LayerCount: 2
Fore
SplineSet
93 501 m 0,0,1
 93 605 93 605 126 695 c 128,-1,2
 159 785 159 785 217 854 c 128,-1,3
 275 923 275 923 354.5 967 c 128,-1,4
 434 1011 434 1011 527 1022 c 1,5,-1
 527 1221 l 2,6,7
 527 1254 527 1254 548 1271 c 128,-1,8
 569 1288 569 1288 595 1288 c 256,9,10
 621 1288 621 1288 641.5 1271.5 c 128,-1,11
 662 1255 662 1255 662 1221 c 2,12,-1
 662 1023 l 1,13,14
 707 1019 707 1019 754.5 1007 c 128,-1,15
 802 995 802 995 841.5 977 c 128,-1,16
 881 959 881 959 906 935.5 c 128,-1,17
 931 912 931 912 931 884 c 0,18,19
 931 870 931 870 926.5 856 c 128,-1,20
 922 842 922 842 913 830.5 c 128,-1,21
 904 819 904 819 891 811.5 c 128,-1,22
 878 804 878 804 862 804 c 0,23,24
 856 804 856 804 853 805 c 0,25,26
 794 822 794 822 742.5 834.5 c 128,-1,27
 691 847 691 847 640 847 c 0,28,29
 575 847 575 847 519.5 826.5 c 128,-1,30
 464 806 464 806 422.5 764 c 128,-1,31
 381 722 381 722 357.5 657 c 128,-1,32
 334 592 334 592 334 503 c 0,33,34
 334 421 334 421 355 357 c 128,-1,35
 376 293 376 293 415 249 c 128,-1,36
 454 205 454 205 510 182 c 128,-1,37
 566 159 566 159 636 159 c 0,38,39
 688 159 688 159 747.5 171 c 128,-1,40
 807 183 807 183 870 205 c 0,41,42
 874 206 874 206 883 206 c 0,43,44
 899 206 899 206 911.5 199 c 128,-1,45
 924 192 924 192 933 181 c 128,-1,46
 942 170 942 170 947 156 c 128,-1,47
 952 142 952 142 952 129 c 0,48,49
 952 103 952 103 935 88 c 0,50,51
 896 40 896 40 823.5 13.5 c 128,-1,52
 751 -13 751 -13 662 -21 c 1,53,-1
 662 -214 l 2,54,55
 662 -248 662 -248 641 -265 c 128,-1,56
 620 -282 620 -282 594 -282 c 256,57,58
 568 -282 568 -282 547.5 -265 c 128,-1,59
 527 -248 527 -248 527 -214 c 2,60,-1
 527 -21 l 1,61,62
 427 -12 427 -12 346.5 31 c 128,-1,63
 266 74 266 74 210 143 c 128,-1,64
 154 212 154 212 123.5 303 c 128,-1,65
 93 394 93 394 93 501 c 0,0,1
EndSplineSet
EndChar

StartChar: sterling
Encoding: 163 163 101
Width: 1379
GlyphClass: 2
Flags: W
LayerCount: 2
Fore
SplineSet
194 713 m 2,0,1
 150 713 150 713 128 740.5 c 128,-1,2
 106 768 106 768 106 801 c 0,3,4
 106 817 106 817 111.5 833 c 128,-1,5
 117 849 117 849 128 862 c 128,-1,6
 139 875 139 875 155.5 882.5 c 128,-1,7
 172 890 172 890 194 890 c 2,8,-1
 307 890 l 1,9,-1
 307 1087 l 2,10,11
 307 1189 307 1189 340 1260.5 c 128,-1,12
 373 1332 373 1332 430 1377.5 c 128,-1,13
 487 1423 487 1423 564.5 1443.5 c 128,-1,14
 642 1464 642 1464 731 1464 c 0,15,16
 808 1464 808 1464 891.5 1451 c 128,-1,17
 975 1438 975 1438 1049 1412 c 1,18,19
 1076 1398 1076 1398 1090 1374.5 c 128,-1,20
 1104 1351 1104 1351 1104 1325 c 0,21,22
 1104 1295 1104 1295 1083.5 1271.5 c 128,-1,23
 1063 1248 1063 1248 1019 1248 c 0,24,25
 1008 1248 1008 1248 994 1250 c 128,-1,26
 980 1252 980 1252 965 1257 c 0,27,28
 910 1266 910 1266 860 1273.5 c 128,-1,29
 810 1281 810 1281 753 1281 c 0,30,31
 686 1281 686 1281 645.5 1266.5 c 128,-1,32
 605 1252 605 1252 583 1220 c 128,-1,33
 561 1188 561 1188 554 1136 c 128,-1,34
 547 1084 547 1084 547 1008 c 2,35,-1
 547 890 l 1,36,-1
 865 890 l 2,37,38
 909 890 909 890 931 862.5 c 128,-1,39
 953 835 953 835 953 802 c 0,40,41
 953 785 953 785 947.5 769.5 c 128,-1,42
 942 754 942 754 931 741 c 128,-1,43
 920 728 920 728 903.5 720.5 c 128,-1,44
 887 713 887 713 865 713 c 2,45,-1
 547 713 l 1,46,-1
 547 201 l 1,47,-1
 1143 201 l 2,48,49
 1168 201 1168 201 1187 192 c 128,-1,50
 1206 183 1206 183 1218.5 169 c 128,-1,51
 1231 155 1231 155 1237 137 c 128,-1,52
 1243 119 1243 119 1243 100 c 256,53,54
 1243 81 1243 81 1237 63 c 128,-1,55
 1231 45 1231 45 1218.5 30.5 c 128,-1,56
 1206 16 1206 16 1187 7.5 c 128,-1,57
 1168 -1 1168 -1 1143 -1 c 2,58,-1
 230 -1 l 2,59,60
 204 -1 204 -1 185 8 c 128,-1,61
 166 17 166 17 153 31 c 128,-1,62
 140 45 140 45 134 63.5 c 128,-1,63
 128 82 128 82 128 101 c 0,64,65
 128 119 128 119 134 136.5 c 128,-1,66
 140 154 140 154 151.5 167.5 c 128,-1,67
 163 181 163 181 180 189.5 c 128,-1,68
 197 198 197 198 220 198 c 2,69,-1
 307 198 l 1,70,-1
 307 713 l 1,71,-1
 194 713 l 2,0,1
EndSplineSet
EndChar

StartChar: currency
Encoding: 164 164 102
Width: 1207
GlyphClass: 2
Flags: W
LayerCount: 2
Fore
SplineSet
609 190 m 0,0,1
 531 190 531 190 467 209 c 128,-1,2
 403 228 403 228 352 263 c 1,3,-1
 266 176 l 2,4,5
 256 166 256 166 245.5 162 c 128,-1,6
 235 158 235 158 225 158 c 0,7,8
 201 158 201 158 183 176 c 128,-1,9
 165 194 165 194 165 218 c 0,10,11
 165 229 165 229 169 239.5 c 128,-1,12
 173 250 173 250 183 260 c 2,13,-1
 266 343 l 1,14,15
 221 399 221 399 199 467 c 128,-1,16
 177 535 177 535 177 607 c 0,17,18
 177 677 177 677 198.5 744 c 128,-1,19
 220 811 220 811 263 867 c 1,20,-1
 183 947 l 2,21,22
 165 965 165 965 165 988 c 0,23,24
 165 1012 165 1012 183 1030 c 128,-1,25
 201 1048 201 1048 224 1048 c 0,26,27
 235 1048 235 1048 245.5 1044 c 128,-1,28
 256 1040 256 1040 266 1030 c 2,29,-1
 347 948 l 1,30,31
 398 984 398 984 463 1005 c 128,-1,32
 528 1026 528 1026 609 1026 c 256,33,34
 690 1026 690 1026 755.5 1005.5 c 128,-1,35
 821 985 821 985 872 948 c 1,36,-1
 953 1030 l 2,37,38
 963 1040 963 1040 973.5 1044 c 128,-1,39
 984 1048 984 1048 995 1048 c 0,40,41
 1019 1048 1019 1048 1037 1030 c 128,-1,42
 1055 1012 1055 1012 1055 988 c 0,43,44
 1055 978 1055 978 1051 967 c 128,-1,45
 1047 956 1047 956 1037 947 c 2,46,-1
 956 867 l 1,47,48
 1000 810 1000 810 1021 743 c 128,-1,49
 1042 676 1042 676 1042 607 c 0,50,51
 1042 535 1042 535 1020 467 c 128,-1,52
 998 399 998 399 953 342 c 1,53,-1
 1037 260 l 2,54,55
 1047 250 1047 250 1051 239.5 c 128,-1,56
 1055 229 1055 229 1055 218 c 0,57,58
 1055 194 1055 194 1037 176 c 128,-1,59
 1019 158 1019 158 995 158 c 0,60,61
 984 158 984 158 973.5 162 c 128,-1,62
 963 166 963 166 954 176 c 2,63,-1
 867 264 l 1,64,65
 816 229 816 229 752 209.5 c 128,-1,66
 688 190 688 190 609 190 c 0,0,1
609 913 m 256,67,68
 535 913 535 913 479.5 886.5 c 128,-1,69
 424 860 424 860 387.5 817 c 128,-1,70
 351 774 351 774 332.5 719 c 128,-1,71
 314 664 314 664 314 607 c 256,72,73
 314 550 314 550 332.5 495 c 128,-1,74
 351 440 351 440 387.5 397.5 c 128,-1,75
 424 355 424 355 479.5 328.5 c 128,-1,76
 535 302 535 302 609 302 c 256,77,78
 683 302 683 302 738.5 328.5 c 128,-1,79
 794 355 794 355 831 397.5 c 128,-1,80
 868 440 868 440 886.5 495 c 128,-1,81
 905 550 905 550 905 607 c 256,82,83
 905 664 905 664 886.5 719 c 128,-1,84
 868 774 868 774 831 817 c 128,-1,85
 794 860 794 860 738.5 886.5 c 128,-1,86
 683 913 683 913 609 913 c 256,67,68
EndSplineSet
EndChar

StartChar: yen
Encoding: 165 165 103
Width: 1252
GlyphClass: 2
Flags: W
LayerCount: 2
Fore
SplineSet
775 639 m 1,0,-1
 1075 639 l 2,1,2
 1107 639 1107 639 1122.5 619 c 128,-1,3
 1138 599 1138 599 1138 576 c 0,4,5
 1138 552 1138 552 1122.5 532.5 c 128,-1,6
 1107 513 1107 513 1075 513 c 2,7,-1
 763 513 l 1,8,-1
 763 398 l 1,9,-1
 1075 398 l 2,10,11
 1107 398 1107 398 1122.5 378 c 128,-1,12
 1138 358 1138 358 1138 335 c 0,13,14
 1138 311 1138 311 1122.5 291.5 c 128,-1,15
 1107 272 1107 272 1075 272 c 2,16,-1
 762 272 l 1,17,-1
 762 124 l 2,18,19
 762 93 762 93 750.5 70 c 128,-1,20
 739 47 739 47 720 32 c 128,-1,21
 701 17 701 17 677 9.5 c 128,-1,22
 653 2 653 2 628 2 c 256,23,24
 603 2 603 2 579 9.5 c 128,-1,25
 555 17 555 17 536 32 c 128,-1,26
 517 47 517 47 505.5 70 c 128,-1,27
 494 93 494 93 494 124 c 2,28,-1
 494 272 l 1,29,-1
 186 272 l 2,30,31
 154 272 154 272 138.5 292 c 128,-1,32
 123 312 123 312 123 336 c 0,33,34
 123 359 123 359 138.5 378.5 c 128,-1,35
 154 398 154 398 186 398 c 2,36,-1
 494 398 l 1,37,-1
 494 513 l 1,38,-1
 186 513 l 2,39,40
 154 513 154 513 138.5 533 c 128,-1,41
 123 553 123 553 123 577 c 0,42,43
 123 600 123 600 138.5 619.5 c 128,-1,44
 154 639 154 639 186 639 c 2,45,-1
 477 639 l 1,46,-1
 69 1271 l 2,47,48
 60 1285 60 1285 56.5 1299 c 128,-1,49
 53 1313 53 1313 52 1326 c 0,50,51
 52 1349 52 1349 63.5 1369 c 128,-1,52
 75 1389 75 1389 93.5 1403.5 c 128,-1,53
 112 1418 112 1418 135.5 1426 c 128,-1,54
 159 1434 159 1434 184 1434 c 0,55,56
 216 1434 216 1434 246.5 1418 c 128,-1,57
 277 1402 277 1402 295 1366 c 2,58,-1
 642 799 l 1,59,-1
 993 1371 l 2,60,61
 1010 1405 1010 1405 1038.5 1420 c 128,-1,62
 1067 1435 1067 1435 1097 1435 c 0,63,64
 1118 1435 1118 1435 1138.5 1428 c 128,-1,65
 1159 1421 1159 1421 1175 1408.5 c 128,-1,66
 1191 1396 1191 1396 1200.5 1379 c 128,-1,67
 1210 1362 1210 1362 1210 1341 c 0,68,69
 1210 1329 1210 1329 1206 1315.5 c 128,-1,70
 1202 1302 1202 1302 1194 1288 c 2,71,-1
 775 639 l 1,0,-1
EndSplineSet
EndChar

StartChar: brokenbar
Encoding: 166 166 104
Width: 455
GlyphClass: 2
Flags: W
LayerCount: 2
Fore
SplineSet
141 629 m 2,0,1
 141 650 141 650 148 666 c 128,-1,2
 155 682 155 682 167 692.5 c 128,-1,3
 179 703 179 703 194.5 708.5 c 128,-1,4
 210 714 210 714 226 714 c 256,5,6
 242 714 242 714 257 708.5 c 128,-1,7
 272 703 272 703 284 692.5 c 128,-1,8
 296 682 296 682 303 666 c 128,-1,9
 310 650 310 650 310 629 c 2,10,-1
 310 58 l 2,11,12
 310 37 310 37 302.5 21 c 128,-1,13
 295 5 295 5 283 -5.5 c 128,-1,14
 271 -16 271 -16 256 -21.5 c 128,-1,15
 241 -27 241 -27 225 -27 c 256,16,17
 209 -27 209 -27 194 -21.5 c 128,-1,18
 179 -16 179 -16 167 -5.5 c 128,-1,19
 155 5 155 5 148 21 c 128,-1,20
 141 37 141 37 141 58 c 2,21,-1
 141 629 l 2,0,1
143 1365 m 2,22,23
 143 1386 143 1386 150 1402 c 128,-1,24
 157 1418 157 1418 169 1428.5 c 128,-1,25
 181 1439 181 1439 196.5 1444.5 c 128,-1,26
 212 1450 212 1450 228 1450 c 256,27,28
 244 1450 244 1450 259 1444.5 c 128,-1,29
 274 1439 274 1439 286 1428.5 c 128,-1,30
 298 1418 298 1418 305 1402 c 128,-1,31
 312 1386 312 1386 312 1365 c 2,32,-1
 312 808 l 2,33,34
 312 787 312 787 304.5 771 c 128,-1,35
 297 755 297 755 285 744.5 c 128,-1,36
 273 734 273 734 258 728.5 c 128,-1,37
 243 723 243 723 227 723 c 256,38,39
 211 723 211 723 196 728.5 c 128,-1,40
 181 734 181 734 169 744.5 c 128,-1,41
 157 755 157 755 150 771 c 128,-1,42
 143 787 143 787 143 808 c 2,43,-1
 143 1365 l 2,22,23
EndSplineSet
EndChar

StartChar: section
Encoding: 167 167 105
Width: 1230
GlyphClass: 2
Flags: W
LayerCount: 2
Fore
SplineSet
576 925 m 1,0,1
 546 907 546 907 519 889.5 c 128,-1,2
 492 872 492 872 471.5 852.5 c 128,-1,3
 451 833 451 833 439 809.5 c 128,-1,4
 427 786 427 786 427 756 c 0,5,6
 427 724 427 724 446.5 699.5 c 128,-1,7
 466 675 466 675 496 655.5 c 128,-1,8
 526 636 526 636 561.5 621 c 128,-1,9
 597 606 597 606 629 592 c 1,10,11
 660 609 660 609 690 626.5 c 128,-1,12
 720 644 720 644 744 664 c 128,-1,13
 768 684 768 684 783 708 c 128,-1,14
 798 732 798 732 798 763 c 0,15,16
 798 797 798 797 777 820.5 c 128,-1,17
 756 844 756 844 723.5 862 c 128,-1,18
 691 880 691 880 652 894.5 c 128,-1,19
 613 909 613 909 576 925 c 1,0,1
917 1474 m 0,20,21
 949 1466 949 1466 963 1445 c 128,-1,22
 977 1424 977 1424 977 1401 c 0,23,24
 977 1371 977 1371 957 1346 c 128,-1,25
 937 1321 937 1321 903 1321 c 0,26,27
 898 1321 898 1321 893.5 1321 c 128,-1,28
 889 1321 889 1321 884 1323 c 0,29,30
 839 1334 839 1334 793.5 1343.5 c 128,-1,31
 748 1353 748 1353 704 1353 c 0,32,33
 672 1353 672 1353 637.5 1347.5 c 128,-1,34
 603 1342 603 1342 575 1328 c 128,-1,35
 547 1314 547 1314 529 1290 c 128,-1,36
 511 1266 511 1266 511 1229 c 0,37,38
 511 1184 511 1184 548 1153.5 c 128,-1,39
 585 1123 585 1123 640.5 1098 c 128,-1,40
 696 1073 696 1073 760.5 1049 c 128,-1,41
 825 1025 825 1025 880.5 991.5 c 128,-1,42
 936 958 936 958 973 910.5 c 128,-1,43
 1010 863 1010 863 1010 792 c 0,44,45
 1010 745 1010 745 993 705 c 128,-1,46
 976 665 976 665 946 631.5 c 128,-1,47
 916 598 916 598 875.5 571.5 c 128,-1,48
 835 545 835 545 789 526 c 1,49,50
 833 509 833 509 870.5 486 c 128,-1,51
 908 463 908 463 935 432.5 c 128,-1,52
 962 402 962 402 977.5 363.5 c 128,-1,53
 993 325 993 325 993 277 c 0,54,55
 993 200 993 200 961.5 142 c 128,-1,56
 930 84 930 84 874 45 c 128,-1,57
 818 6 818 6 741.5 -13.5 c 128,-1,58
 665 -33 665 -33 576 -33 c 0,59,60
 493 -33 493 -33 411.5 -22 c 128,-1,61
 330 -11 330 -11 252 12 c 0,62,63
 220 22 220 22 206 41 c 128,-1,64
 192 60 192 60 192 83 c 0,65,66
 192 113 192 113 213.5 138 c 128,-1,67
 235 163 235 163 268 163 c 0,68,69
 282 163 282 163 294 159 c 0,70,71
 340 143 340 143 393.5 134.5 c 128,-1,72
 447 126 447 126 517 126 c 0,73,74
 556 126 556 126 594.5 135 c 128,-1,75
 633 144 633 144 663.5 163 c 128,-1,76
 694 182 694 182 713 212.5 c 128,-1,77
 732 243 732 243 732 287 c 0,78,79
 732 323 732 323 709.5 347.5 c 128,-1,80
 687 372 687 372 650.5 391.5 c 128,-1,81
 614 411 614 411 567 427 c 128,-1,82
 520 443 520 443 470.5 460.5 c 128,-1,83
 421 478 421 478 374 499.5 c 128,-1,84
 327 521 327 521 290.5 552 c 128,-1,85
 254 583 254 583 231.5 625.5 c 128,-1,86
 209 668 209 668 209 727 c 0,87,88
 209 770 209 770 227 809.5 c 128,-1,89
 245 849 245 849 276 882.5 c 128,-1,90
 307 916 307 916 347.5 941.5 c 128,-1,91
 388 967 388 967 433 982 c 1,92,93
 429 985 429 985 423 989 c 0,94,95
 342 1027 342 1027 294 1084.5 c 128,-1,96
 246 1142 246 1142 246 1224 c 0,97,98
 246 1300 246 1300 276 1354.5 c 128,-1,99
 306 1409 306 1409 360 1444 c 128,-1,100
 414 1479 414 1479 489 1495.5 c 128,-1,101
 564 1512 564 1512 654 1512 c 0,102,103
 722 1512 722 1512 787.5 1501 c 128,-1,104
 853 1490 853 1490 917 1474 c 0,20,21
EndSplineSet
EndChar

StartChar: dieresis
Encoding: 168 168 106
Width: 569
GlyphClass: 2
Flags: W
LayerCount: 2
Fore
SplineSet
77 1191 m 0,0,1
 48 1191 48 1191 25 1200.5 c 128,-1,2
 2 1210 2 1210 -14 1226.5 c 128,-1,3
 -30 1243 -30 1243 -39 1264 c 128,-1,4
 -48 1285 -48 1285 -48 1308 c 256,5,6
 -48 1331 -48 1331 -39 1352 c 128,-1,7
 -30 1373 -30 1373 -14 1389.5 c 128,-1,8
 2 1406 2 1406 25 1415.5 c 128,-1,9
 48 1425 48 1425 77 1425 c 0,10,11
 105 1425 105 1425 128 1415.5 c 128,-1,12
 151 1406 151 1406 167.5 1389.5 c 128,-1,13
 184 1373 184 1373 192.5 1352 c 128,-1,14
 201 1331 201 1331 201 1308 c 256,15,16
 201 1285 201 1285 192.5 1264 c 128,-1,17
 184 1243 184 1243 167.5 1226.5 c 128,-1,18
 151 1210 151 1210 128 1200.5 c 128,-1,19
 105 1191 105 1191 77 1191 c 0,0,1
493 1191 m 0,20,21
 464 1191 464 1191 441 1200.5 c 128,-1,22
 418 1210 418 1210 402 1226.5 c 128,-1,23
 386 1243 386 1243 377 1264 c 128,-1,24
 368 1285 368 1285 368 1308 c 256,25,26
 368 1331 368 1331 377 1352 c 128,-1,27
 386 1373 386 1373 402 1389.5 c 128,-1,28
 418 1406 418 1406 441 1415.5 c 128,-1,29
 464 1425 464 1425 493 1425 c 0,30,31
 521 1425 521 1425 544 1415.5 c 128,-1,32
 567 1406 567 1406 583.5 1389.5 c 128,-1,33
 600 1373 600 1373 608.5 1352 c 128,-1,34
 617 1331 617 1331 617 1308 c 256,35,36
 617 1285 617 1285 608.5 1264 c 128,-1,37
 600 1243 600 1243 583.5 1226.5 c 128,-1,38
 567 1210 567 1210 544 1200.5 c 128,-1,39
 521 1191 521 1191 493 1191 c 0,20,21
EndSplineSet
EndChar

StartChar: copyright
Encoding: 169 169 107
Width: 1692
GlyphClass: 2
Flags: W
LayerCount: 2
Fore
SplineSet
854 99 m 256,0,1
 756 99 756 99 665 123.5 c 128,-1,2
 574 148 574 148 495 192 c 128,-1,3
 416 236 416 236 351 298 c 128,-1,4
 286 360 286 360 239.5 436 c 128,-1,5
 193 512 193 512 167.5 598.5 c 128,-1,6
 142 685 142 685 142 779 c 256,7,8
 142 873 142 873 167.5 960 c 128,-1,9
 193 1047 193 1047 239.5 1122.5 c 128,-1,10
 286 1198 286 1198 351 1260.5 c 128,-1,11
 416 1323 416 1323 495 1367.5 c 128,-1,12
 574 1412 574 1412 665 1436.5 c 128,-1,13
 756 1461 756 1461 854 1461 c 256,14,15
 952 1461 952 1461 1042.5 1436.5 c 128,-1,16
 1133 1412 1133 1412 1211.5 1367.5 c 128,-1,17
 1290 1323 1290 1323 1355 1260.5 c 128,-1,18
 1420 1198 1420 1198 1466 1122.5 c 128,-1,19
 1512 1047 1512 1047 1537.5 960 c 128,-1,20
 1563 873 1563 873 1563 779 c 256,21,22
 1563 685 1563 685 1537.5 598.5 c 128,-1,23
 1512 512 1512 512 1466 436 c 128,-1,24
 1420 360 1420 360 1355 298 c 128,-1,25
 1290 236 1290 236 1211.5 192 c 128,-1,26
 1133 148 1133 148 1042.5 123.5 c 128,-1,27
 952 99 952 99 854 99 c 256,0,1
282 779 m 256,28,29
 282 660 282 660 325 558 c 128,-1,30
 368 456 368 456 444.5 382 c 128,-1,31
 521 308 521 308 626 266 c 128,-1,32
 731 224 731 224 854 224 c 0,33,34
 976 224 976 224 1080.5 266 c 128,-1,35
 1185 308 1185 308 1261 382 c 128,-1,36
 1337 456 1337 456 1380 558 c 128,-1,37
 1423 660 1423 660 1423 779 c 256,38,39
 1423 898 1423 898 1380 999.5 c 128,-1,40
 1337 1101 1337 1101 1261 1175 c 128,-1,41
 1185 1249 1185 1249 1080.5 1291 c 128,-1,42
 976 1333 976 1333 854 1333 c 0,43,44
 731 1333 731 1333 626 1291 c 128,-1,45
 521 1249 521 1249 444.5 1175 c 128,-1,46
 368 1101 368 1101 325 999.5 c 128,-1,47
 282 898 282 898 282 779 c 256,28,29
1060 546 m 0,48,49
 1072 551 1072 551 1080 551 c 0,50,51
 1099 551 1099 551 1112.5 535 c 128,-1,52
 1126 519 1126 519 1126 499 c 0,53,54
 1126 470 1126 470 1096.5 448.5 c 128,-1,55
 1067 427 1067 427 1026 413 c 128,-1,56
 985 399 985 399 939.5 392.5 c 128,-1,57
 894 386 894 386 863 386 c 0,58,59
 788 386 788 386 718 411 c 128,-1,60
 648 436 648 436 594 486 c 128,-1,61
 540 536 540 536 508 610 c 128,-1,62
 476 684 476 684 476 783 c 0,63,64
 476 881 476 881 507.5 954.5 c 128,-1,65
 539 1028 539 1028 592.5 1076.5 c 128,-1,66
 646 1125 646 1125 715.5 1149.5 c 128,-1,67
 785 1174 785 1174 862 1174 c 0,68,69
 891 1174 891 1174 937 1167.5 c 128,-1,70
 983 1161 983 1161 1026.5 1148 c 128,-1,71
 1070 1135 1070 1135 1101 1115 c 128,-1,72
 1132 1095 1132 1095 1132 1068 c 0,73,74
 1132 1046 1132 1046 1118 1027.5 c 128,-1,75
 1104 1009 1104 1009 1081 1009 c 0,76,77
 1073 1009 1073 1009 1061 1014 c 0,78,79
 1016 1036 1016 1036 968.5 1047.5 c 128,-1,80
 921 1059 921 1059 876 1059 c 0,81,82
 823 1059 823 1059 776.5 1043.5 c 128,-1,83
 730 1028 730 1028 695 995 c 128,-1,84
 660 962 660 962 639.5 910 c 128,-1,85
 619 858 619 858 619 785 c 0,86,87
 619 714 619 714 640.5 660.5 c 128,-1,88
 662 607 662 607 698.5 571.5 c 128,-1,89
 735 536 735 536 783.5 518 c 128,-1,90
 832 500 832 500 885 500 c 0,91,92
 929 500 929 500 972.5 512 c 128,-1,93
 1016 524 1016 524 1060 546 c 0,48,49
EndSplineSet
EndChar

StartChar: ordfeminine
Encoding: 170 170 108
Width: 1080
GlyphClass: 2
Flags: W
LayerCount: 2
Fore
SplineSet
635 1252 m 2,0,1
 635 1290 635 1290 624 1316 c 128,-1,2
 613 1342 613 1342 593 1358 c 128,-1,3
 573 1374 573 1374 545 1381 c 128,-1,4
 517 1388 517 1388 483 1388 c 0,5,6
 445 1388 445 1388 414 1383 c 128,-1,7
 383 1378 383 1378 356.5 1370 c 128,-1,8
 330 1362 330 1362 306.5 1351.5 c 128,-1,9
 283 1341 283 1341 260 1330 c 0,10,11
 250 1325 250 1325 237 1325 c 0,12,13
 215 1325 215 1325 200.5 1340 c 128,-1,14
 186 1355 186 1355 186 1375 c 0,15,16
 186 1383 186 1383 188.5 1390.5 c 128,-1,17
 191 1398 191 1398 197 1405 c 0,18,19
 233 1459 233 1459 309.5 1485.5 c 128,-1,20
 386 1512 386 1512 491 1512 c 0,21,22
 557 1512 557 1512 613 1497 c 128,-1,23
 669 1482 669 1482 709.5 1449 c 128,-1,24
 750 1416 750 1416 772.5 1364 c 128,-1,25
 795 1312 795 1312 795 1238 c 2,26,-1
 794 813 l 2,27,28
 794 794 794 794 787 780 c 128,-1,29
 780 766 780 766 769 756.5 c 128,-1,30
 758 747 758 747 744 742.5 c 128,-1,31
 730 738 730 738 715 738 c 0,32,33
 687 738 687 738 663.5 755.5 c 128,-1,34
 640 773 640 773 639 808 c 2,35,-1
 638 866 l 1,36,37
 623 830 623 830 597 802 c 128,-1,38
 571 774 571 774 537.5 755.5 c 128,-1,39
 504 737 504 737 466 727.5 c 128,-1,40
 428 718 428 718 390 718 c 0,41,42
 335 718 335 718 288 733 c 128,-1,43
 241 748 241 748 206.5 777.5 c 128,-1,44
 172 807 172 807 152.5 849 c 128,-1,45
 133 891 133 891 133 945 c 0,46,47
 133 1014 133 1014 163 1062.5 c 128,-1,48
 193 1111 193 1111 248.5 1141.5 c 128,-1,49
 304 1172 304 1172 382 1186 c 128,-1,50
 460 1200 460 1200 557 1200 c 0,51,52
 573 1200 573 1200 595.5 1199.5 c 128,-1,53
 618 1199 618 1199 635 1198 c 1,54,-1
 635 1252 l 2,0,1
635 1100 m 1,55,56
 600 1100 600 1100 561 1099.5 c 128,-1,57
 522 1099 522 1099 484 1095.5 c 128,-1,58
 446 1092 446 1092 411.5 1083.5 c 128,-1,59
 377 1075 377 1075 351 1059 c 128,-1,60
 325 1043 325 1043 309.5 1017.5 c 128,-1,61
 294 992 294 992 294 955 c 0,62,63
 294 922 294 922 305.5 898 c 128,-1,64
 317 874 317 874 336.5 857.5 c 128,-1,65
 356 841 356 841 382.5 833 c 128,-1,66
 409 825 409 825 439 824 c 0,67,68
 480 825 480 825 515 839 c 128,-1,69
 550 853 550 853 576 880 c 128,-1,70
 602 907 602 907 617.5 946.5 c 128,-1,71
 633 986 633 986 635 1039 c 2,72,-1
 635 1100 l 1,55,56
EndSplineSet
EndChar

StartChar: guillemotleft
Encoding: 171 171 109
Width: 1195
GlyphClass: 2
Flags: W
LayerCount: 2
Fore
SplineSet
385 947 m 2,0,1
 405 981 405 981 429.5 995 c 128,-1,2
 454 1009 454 1009 479 1009 c 0,3,4
 496 1009 496 1009 511 1003 c 128,-1,5
 526 997 526 997 537.5 987 c 128,-1,6
 549 977 549 977 556 963 c 128,-1,7
 563 949 563 949 563 933 c 0,8,9
 563 916 563 916 556 901 c 2,10,-1
 389 537 l 1,11,-1
 556 172 l 2,12,13
 563 157 563 157 563 140 c 0,14,15
 563 124 563 124 556 110 c 128,-1,16
 549 96 549 96 537.5 86 c 128,-1,17
 526 76 526 76 511 70 c 128,-1,18
 496 64 496 64 479 64 c 0,19,20
 455 64 455 64 429.5 78 c 128,-1,21
 404 92 404 92 385 126 c 2,22,-1
 151 537 l 1,23,-1
 385 947 l 2,0,1
825 947 m 2,24,25
 845 981 845 981 870 995 c 128,-1,26
 895 1009 895 1009 920 1009 c 0,27,28
 937 1009 937 1009 952 1003 c 128,-1,29
 967 997 967 997 978.5 987 c 128,-1,30
 990 977 990 977 997 963 c 128,-1,31
 1004 949 1004 949 1004 933 c 0,32,33
 1004 916 1004 916 997 901 c 2,34,-1
 829 537 l 1,35,-1
 997 172 l 2,36,37
 1004 157 1004 157 1004 140 c 0,38,39
 1004 124 1004 124 997 110 c 128,-1,40
 990 96 990 96 978.5 86 c 128,-1,41
 967 76 967 76 952 70 c 128,-1,42
 937 64 937 64 920 64 c 0,43,44
 895 64 895 64 870 78 c 128,-1,45
 845 92 845 92 825 126 c 2,46,-1
 591 537 l 1,47,-1
 825 947 l 2,24,25
EndSplineSet
EndChar

StartChar: logicalnot
Encoding: 172 172 110
Width: 1315
GlyphClass: 2
Flags: W
LayerCount: 2
Fore
SplineSet
1172 317 m 2,0,1
 1172 296 1172 296 1164.5 280.5 c 128,-1,2
 1157 265 1157 265 1145 254.5 c 128,-1,3
 1133 244 1133 244 1118 239 c 128,-1,4
 1103 234 1103 234 1087 234 c 256,5,6
 1071 234 1071 234 1055.5 239 c 128,-1,7
 1040 244 1040 244 1028 254.5 c 128,-1,8
 1016 265 1016 265 1009 280.5 c 128,-1,9
 1002 296 1002 296 1002 317 c 2,10,-1
 1002 644 l 1,11,-1
 224 644 l 2,12,13
 204 644 204 644 189 651 c 128,-1,14
 174 658 174 658 164.5 670 c 128,-1,15
 155 682 155 682 150 697.5 c 128,-1,16
 145 713 145 713 145 729 c 256,17,18
 145 745 145 745 150 760 c 128,-1,19
 155 775 155 775 164.5 787 c 128,-1,20
 174 799 174 799 189 806.5 c 128,-1,21
 204 814 204 814 224 814 c 2,22,-1
 1085 814 l 2,23,24
 1102 814 1102 814 1117.5 806.5 c 128,-1,25
 1133 799 1133 799 1145 787 c 128,-1,26
 1157 775 1157 775 1164.5 759.5 c 128,-1,27
 1172 744 1172 744 1172 728 c 2,28,-1
 1172 317 l 2,0,1
EndSplineSet
EndChar

StartChar: registered
Encoding: 174 174 112
Width: 1696
GlyphClass: 2
Flags: W
LayerCount: 2
Fore
SplineSet
586 1051 m 2,0,1
 586 1089 586 1089 606 1114.5 c 128,-1,2
 626 1140 626 1140 668 1140 c 2,3,-1
 910 1140 l 2,4,5
 990 1140 990 1140 1045 1127 c 128,-1,6
 1100 1114 1100 1114 1134.5 1087.5 c 128,-1,7
 1169 1061 1169 1061 1184.5 1020.5 c 128,-1,8
 1200 980 1200 980 1200 926 c 0,9,10
 1200 873 1200 873 1183.5 836 c 128,-1,11
 1167 799 1167 799 1137.5 775 c 128,-1,12
 1108 751 1108 751 1067 738 c 128,-1,13
 1026 725 1026 725 978 719 c 1,14,-1
 1146 473 l 2,15,16
 1151 465 1151 465 1153 457.5 c 128,-1,17
 1155 450 1155 450 1155 442 c 0,18,19
 1155 416 1155 416 1134 398.5 c 128,-1,20
 1113 381 1113 381 1087 381 c 0,21,22
 1056 381 1056 381 1037 411 c 2,23,-1
 848 716 l 1,24,-1
 718 716 l 1,25,-1
 718 443 l 2,26,27
 718 412 718 412 697 396.5 c 128,-1,28
 676 381 676 381 651 381 c 256,29,30
 626 381 626 381 606 396 c 128,-1,31
 586 411 586 411 586 443 c 2,32,-1
 586 1051 l 2,0,1
718 1031 m 1,33,-1
 718 824 l 1,34,35
 757 827 757 827 798 826 c 128,-1,36
 839 825 839 825 877.5 824 c 128,-1,37
 916 823 916 823 949.5 825 c 128,-1,38
 983 827 983 827 1008.5 838 c 128,-1,39
 1034 849 1034 849 1048.5 871.5 c 128,-1,40
 1063 894 1063 894 1063 933 c 0,41,42
 1063 963 1063 963 1050.5 982 c 128,-1,43
 1038 1001 1038 1001 1015.5 1012 c 128,-1,44
 993 1023 993 1023 963 1027 c 128,-1,45
 933 1031 933 1031 897 1031 c 2,46,-1
 718 1031 l 1,33,-1
852 72 m 256,47,48
 753 72 753 72 661 96.5 c 128,-1,49
 569 121 569 121 489 166 c 128,-1,50
 409 211 409 211 343 274 c 128,-1,51
 277 337 277 337 230 413 c 128,-1,52
 183 489 183 489 157 576 c 128,-1,53
 131 663 131 663 131 757 c 0,54,55
 131 852 131 852 157 940 c 128,-1,56
 183 1028 183 1028 230 1104.5 c 128,-1,57
 277 1181 277 1181 343 1244 c 128,-1,58
 409 1307 409 1307 489 1352 c 128,-1,59
 569 1397 569 1397 661 1422 c 128,-1,60
 753 1447 753 1447 852 1447 c 256,61,62
 951 1447 951 1447 1042.5 1422 c 128,-1,63
 1134 1397 1134 1397 1213.5 1352 c 128,-1,64
 1293 1307 1293 1307 1359 1244 c 128,-1,65
 1425 1181 1425 1181 1471.5 1104.5 c 128,-1,66
 1518 1028 1518 1028 1544 940 c 128,-1,67
 1570 852 1570 852 1570 757 c 0,68,69
 1570 663 1570 663 1544 576 c 128,-1,70
 1518 489 1518 489 1471.5 413 c 128,-1,71
 1425 337 1425 337 1359 274 c 128,-1,72
 1293 211 1293 211 1213.5 166 c 128,-1,73
 1134 121 1134 121 1042.5 96.5 c 128,-1,74
 951 72 951 72 852 72 c 256,47,48
275 757 m 256,75,76
 275 637 275 637 318.5 534.5 c 128,-1,77
 362 432 362 432 439.5 357 c 128,-1,78
 517 282 517 282 622.5 239.5 c 128,-1,79
 728 197 728 197 852 197 c 0,80,81
 975 197 975 197 1080.5 239.5 c 128,-1,82
 1186 282 1186 282 1263 357 c 128,-1,83
 1340 432 1340 432 1383.5 534.5 c 128,-1,84
 1427 637 1427 637 1427 757 c 256,85,86
 1427 877 1427 877 1383.5 979.5 c 128,-1,87
 1340 1082 1340 1082 1263 1156.5 c 128,-1,88
 1186 1231 1186 1231 1080.5 1273.5 c 128,-1,89
 975 1316 975 1316 852 1316 c 0,90,91
 728 1316 728 1316 622.5 1273.5 c 128,-1,92
 517 1231 517 1231 439.5 1156.5 c 128,-1,93
 362 1082 362 1082 318.5 979.5 c 128,-1,94
 275 877 275 877 275 757 c 256,75,76
EndSplineSet
EndChar

StartChar: macron
Encoding: 175 175 113
Width: 569
GlyphClass: 2
Flags: W
LayerCount: 2
Fore
SplineSet
56 1285 m 2,0,1
 17 1285 17 1285 -2 1309.5 c 128,-1,2
 -21 1334 -21 1334 -21 1364 c 0,3,4
 -21 1379 -21 1379 -16.5 1393 c 128,-1,5
 -12 1407 -12 1407 -2 1418 c 128,-1,6
 8 1429 8 1429 22 1436 c 128,-1,7
 36 1443 36 1443 56 1443 c 2,8,-1
 518 1443 l 2,9,10
 537 1443 537 1443 551 1436 c 128,-1,11
 565 1429 565 1429 574.5 1418 c 128,-1,12
 584 1407 584 1407 588.5 1393 c 128,-1,13
 593 1379 593 1379 593 1364 c 0,14,15
 593 1334 593 1334 574.5 1309.5 c 128,-1,16
 556 1285 556 1285 518 1285 c 2,17,-1
 56 1285 l 2,0,1
EndSplineSet
EndChar

StartChar: degree
Encoding: 176 176 114
Width: 819
GlyphClass: 2
Flags: W
LayerCount: 2
Fore
SplineSet
713 1134 m 256,0,1
 713 1073 713 1073 689 1019.5 c 128,-1,2
 665 966 665 966 623.5 926 c 128,-1,3
 582 886 582 886 527 863 c 128,-1,4
 472 840 472 840 410 840 c 0,5,6
 347 840 347 840 292 863 c 128,-1,7
 237 886 237 886 195.5 926 c 128,-1,8
 154 966 154 966 130.5 1019.5 c 128,-1,9
 107 1073 107 1073 107 1134 c 256,10,11
 107 1195 107 1195 130.5 1248.5 c 128,-1,12
 154 1302 154 1302 195 1342 c 128,-1,13
 236 1382 236 1382 291.5 1405 c 128,-1,14
 347 1428 347 1428 410 1428 c 0,15,16
 472 1428 472 1428 527 1405 c 128,-1,17
 582 1382 582 1382 623.5 1342 c 128,-1,18
 665 1302 665 1302 689 1248.5 c 128,-1,19
 713 1195 713 1195 713 1134 c 256,0,1
226 1134 m 0,20,21
 226 1095 226 1095 240 1062.5 c 128,-1,22
 254 1030 254 1030 278.5 1006.5 c 128,-1,23
 303 983 303 983 336.5 969.5 c 128,-1,24
 370 956 370 956 410 956 c 0,25,26
 449 956 449 956 482.5 969.5 c 128,-1,27
 516 983 516 983 541 1006.5 c 128,-1,28
 566 1030 566 1030 580 1062.5 c 128,-1,29
 594 1095 594 1095 594 1134 c 0,30,31
 594 1172 594 1172 580 1204.5 c 128,-1,32
 566 1237 566 1237 541 1261 c 128,-1,33
 516 1285 516 1285 482 1299 c 128,-1,34
 448 1313 448 1313 409 1313 c 0,35,36
 369 1313 369 1313 335.5 1299 c 128,-1,37
 302 1285 302 1285 277.5 1261 c 128,-1,38
 253 1237 253 1237 239.5 1204.5 c 128,-1,39
 226 1172 226 1172 226 1134 c 0,20,21
EndSplineSet
EndChar

StartChar: plusminus
Encoding: 177 177 115
Width: 1315
GlyphClass: 2
Flags: W
LayerCount: 2
Fore
SplineSet
742 320 m 2,0,1
 742 300 742 300 734.5 284.5 c 128,-1,2
 727 269 727 269 715 258.5 c 128,-1,3
 703 248 703 248 687.5 243 c 128,-1,4
 672 238 672 238 656 238 c 256,5,6
 640 238 640 238 625 243 c 128,-1,7
 610 248 610 248 598 258.5 c 128,-1,8
 586 269 586 269 579 284 c 128,-1,9
 572 299 572 299 572 320 c 2,10,-1
 572 535 l 1,11,-1
 229 535 l 2,12,13
 208 535 208 535 192.5 542 c 128,-1,14
 177 549 177 549 166.5 561 c 128,-1,15
 156 573 156 573 151 588 c 128,-1,16
 146 603 146 603 146 618 c 0,17,18
 146 634 146 634 151 649 c 128,-1,19
 156 664 156 664 166.5 675.5 c 128,-1,20
 177 687 177 687 192.5 694 c 128,-1,21
 208 701 208 701 229 701 c 2,22,-1
 572 701 l 1,23,-1
 572 918 l 2,24,25
 572 938 572 938 579.5 953.5 c 128,-1,26
 587 969 587 969 599 979 c 128,-1,27
 611 989 611 989 626 994 c 128,-1,28
 641 999 641 999 657 999 c 256,29,30
 673 999 673 999 688.5 994 c 128,-1,31
 704 989 704 989 716 979 c 128,-1,32
 728 969 728 969 735 953.5 c 128,-1,33
 742 938 742 938 742 918 c 2,34,-1
 742 701 l 1,35,-1
 1086 701 l 2,36,37
 1128 701 1128 701 1149 675.5 c 128,-1,38
 1170 650 1170 650 1170 618 c 0,39,40
 1170 603 1170 603 1164.5 588 c 128,-1,41
 1159 573 1159 573 1148.5 561 c 128,-1,42
 1138 549 1138 549 1122.5 542 c 128,-1,43
 1107 535 1107 535 1086 535 c 2,44,-1
 742 535 l 1,45,-1
 742 320 l 2,0,1
1086 166 m 2,46,47
 1128 166 1128 166 1149 140.5 c 128,-1,48
 1170 115 1170 115 1170 83 c 0,49,50
 1170 68 1170 68 1164.5 53 c 128,-1,51
 1159 38 1159 38 1148.5 26 c 128,-1,52
 1138 14 1138 14 1122.5 7 c 128,-1,53
 1107 0 1107 0 1086 0 c 2,54,-1
 229 0 l 2,55,56
 208 0 208 0 192.5 7 c 128,-1,57
 177 14 177 14 166.5 26 c 128,-1,58
 156 38 156 38 151 53 c 128,-1,59
 146 68 146 68 146 83 c 0,60,61
 146 99 146 99 151 114 c 128,-1,62
 156 129 156 129 166.5 140.5 c 128,-1,63
 177 152 177 152 192.5 159 c 128,-1,64
 208 166 208 166 229 166 c 2,65,-1
 1086 166 l 2,46,47
EndSplineSet
EndChar

StartChar: twosuperior
Encoding: 178 178 116
Width: 754
GlyphClass: 2
Flags: W
LayerCount: 2
Fore
SplineSet
364 1315 m 0,0,1
 320 1315 320 1315 277.5 1300.5 c 128,-1,2
 235 1286 235 1286 203 1270 c 0,3,4
 189 1263 189 1263 173 1263 c 0,5,6
 150 1263 150 1263 135.5 1278.5 c 128,-1,7
 121 1294 121 1294 121 1315 c 0,8,9
 121 1339 121 1339 148.5 1360.5 c 128,-1,10
 176 1382 176 1382 216 1397.5 c 128,-1,11
 256 1413 256 1413 301 1422 c 128,-1,12
 346 1431 346 1431 382 1431 c 0,13,14
 438 1431 438 1431 486.5 1417.5 c 128,-1,15
 535 1404 535 1404 571 1377.5 c 128,-1,16
 607 1351 607 1351 627.5 1312 c 128,-1,17
 648 1273 648 1273 648 1222 c 0,18,19
 648 1157 648 1157 610.5 1087.5 c 128,-1,20
 573 1018 573 1018 515.5 950 c 128,-1,21
 458 882 458 882 389.5 819.5 c 128,-1,22
 321 757 321 757 258 707 c 1,23,-1
 601 707 l 2,24,25
 628 707 628 707 642 689 c 128,-1,26
 656 671 656 671 656 650 c 256,27,28
 656 629 656 629 642.5 611.5 c 128,-1,29
 629 594 629 594 601 594 c 2,30,-1
 162 594 l 2,31,32
 120 594 120 594 100.5 613.5 c 128,-1,33
 81 633 81 633 81 661 c 0,34,35
 81 687 81 687 99 711.5 c 128,-1,36
 117 736 117 736 146.5 763 c 128,-1,37
 176 790 176 790 214 822.5 c 128,-1,38
 252 855 252 855 293 898 c 0,39,40
 336 938 336 938 373.5 980.5 c 128,-1,41
 411 1023 411 1023 439.5 1063.5 c 128,-1,42
 468 1104 468 1104 484.5 1141 c 128,-1,43
 501 1178 501 1178 501 1208 c 0,44,45
 501 1235 501 1235 489.5 1255 c 128,-1,46
 478 1275 478 1275 459 1288.5 c 128,-1,47
 440 1302 440 1302 415.5 1308.5 c 128,-1,48
 391 1315 391 1315 364 1315 c 0,0,1
EndSplineSet
EndChar

StartChar: threesuperior
Encoding: 179 179 117
Width: 818
GlyphClass: 2
Flags: W
LayerCount: 2
Fore
SplineSet
381 1053 m 2,0,1
 416 1053 416 1053 446 1062.5 c 128,-1,2
 476 1072 476 1072 498.5 1089.5 c 128,-1,3
 521 1107 521 1107 534 1132.5 c 128,-1,4
 547 1158 547 1158 547 1191 c 0,5,6
 547 1222 547 1222 535 1245 c 128,-1,7
 523 1268 523 1268 502 1283.5 c 128,-1,8
 481 1299 481 1299 454 1307 c 128,-1,9
 427 1315 427 1315 397 1315 c 0,10,11
 368 1315 368 1315 337.5 1309.5 c 128,-1,12
 307 1304 307 1304 281.5 1297.5 c 128,-1,13
 256 1291 256 1291 237 1285.5 c 128,-1,14
 218 1280 218 1280 211 1280 c 0,15,16
 186 1280 186 1280 171.5 1296.5 c 128,-1,17
 157 1313 157 1313 157 1333 c 0,18,19
 157 1356 157 1356 181 1373.5 c 128,-1,20
 205 1391 205 1391 241.5 1403 c 128,-1,21
 278 1415 278 1415 320.5 1421 c 128,-1,22
 363 1427 363 1427 400 1427 c 0,23,24
 457 1427 457 1427 506.5 1412 c 128,-1,25
 556 1397 556 1397 593 1367 c 128,-1,26
 630 1337 630 1337 651.5 1293.5 c 128,-1,27
 673 1250 673 1250 673 1193 c 0,28,29
 673 1119 673 1119 629.5 1071.5 c 128,-1,30
 586 1024 586 1024 519 1006 c 1,31,-1
 519 1005 l 1,32,33
 558 996 558 996 590 977 c 128,-1,34
 622 958 622 958 644.5 930 c 128,-1,35
 667 902 667 902 679 866.5 c 128,-1,36
 691 831 691 831 691 790 c 0,37,38
 691 734 691 734 669 691.5 c 128,-1,39
 647 649 647 649 609 619.5 c 128,-1,40
 571 590 571 590 518.5 575 c 128,-1,41
 466 560 466 560 405 560 c 0,42,43
 375 560 375 560 333 566.5 c 128,-1,44
 291 573 291 573 253.5 585 c 128,-1,45
 216 597 216 597 189.5 615.5 c 128,-1,46
 163 634 163 634 163 658 c 0,47,48
 163 678 163 678 178 693.5 c 128,-1,49
 193 709 193 709 219 709 c 0,50,51
 231 709 231 709 250 703 c 128,-1,52
 269 697 269 697 293.5 690 c 128,-1,53
 318 683 318 683 346.5 677 c 128,-1,54
 375 671 375 671 405 671 c 0,55,56
 475 671 475 671 517.5 702.5 c 128,-1,57
 560 734 560 734 560 797 c 0,58,59
 560 831 560 831 547 859.5 c 128,-1,60
 534 888 534 888 510.5 907.5 c 128,-1,61
 487 927 487 927 455 938 c 128,-1,62
 423 949 423 949 386 949 c 2,63,-1
 340 949 l 2,64,65
 314 949 314 949 302 965 c 128,-1,66
 290 981 290 981 290 1000 c 0,67,68
 290 1020 290 1020 302.5 1036.5 c 128,-1,69
 315 1053 315 1053 340 1053 c 2,70,-1
 381 1053 l 2,0,1
EndSplineSet
EndChar

StartChar: acute
Encoding: 180 180 118
Width: 569
GlyphClass: 2
Flags: W
LayerCount: 2
Fore
SplineSet
171 1129 m 2,0,1
 148 1110 148 1110 124 1110 c 0,2,3
 101 1110 101 1110 86 1125.5 c 128,-1,4
 71 1141 71 1141 71 1163 c 0,5,6
 71 1180 71 1180 82 1197 c 2,7,-1
 334 1511 l 2,8,9
 348 1531 348 1531 365.5 1539.5 c 128,-1,10
 383 1548 383 1548 401 1548 c 0,11,12
 422 1548 422 1548 442 1539 c 128,-1,13
 462 1530 462 1530 477.5 1515 c 128,-1,14
 493 1500 493 1500 503 1480.5 c 128,-1,15
 513 1461 513 1461 513 1441 c 0,16,17
 513 1410 513 1410 487 1384 c 2,18,-1
 171 1129 l 2,0,1
EndSplineSet
EndChar

StartChar: paragraph
Encoding: 182 182 119
Width: 1313
GlyphClass: 2
Flags: W
LayerCount: 2
Fore
SplineSet
943 1438 m 2,0,1
 992 1438 992 1438 1020 1425.5 c 128,-1,2
 1048 1413 1048 1413 1061.5 1393 c 128,-1,3
 1075 1373 1075 1373 1078 1346 c 128,-1,4
 1081 1319 1081 1319 1081 1291 c 2,5,-1
 1080 -124 l 2,6,7
 1080 -167 1080 -167 1052.5 -188 c 128,-1,8
 1025 -209 1025 -209 992 -209 c 256,9,10
 959 -209 959 -209 931.5 -188 c 128,-1,11
 904 -167 904 -167 904 -124 c 2,12,-1
 904 1294 l 1,13,-1
 695 1294 l 1,14,-1
 695 -124 l 2,15,16
 695 -145 695 -145 687.5 -161 c 128,-1,17
 680 -177 680 -177 667.5 -187.5 c 128,-1,18
 655 -198 655 -198 639 -203.5 c 128,-1,19
 623 -209 623 -209 606 -209 c 0,20,21
 573 -209 573 -209 545.5 -188 c 128,-1,22
 518 -167 518 -167 518 -124 c 2,23,-1
 518 701 l 1,24,25
 431 701 431 701 356.5 730.5 c 128,-1,26
 282 760 282 760 228 810.5 c 128,-1,27
 174 861 174 861 143.5 927 c 128,-1,28
 113 993 113 993 113 1066 c 0,29,30
 113 1150 113 1150 142.5 1218.5 c 128,-1,31
 172 1287 172 1287 229 1336 c 128,-1,32
 286 1385 286 1385 369 1411.5 c 128,-1,33
 452 1438 452 1438 558 1438 c 2,34,-1
 943 1438 l 2,0,1
EndSplineSet
EndChar

StartChar: periodcentered
Encoding: 183 183 120
Width: 615
GlyphClass: 2
Flags: W
LayerCount: 2
Fore
SplineSet
168 519 m 0,0,1
 168 545 168 545 178 568.5 c 128,-1,2
 188 592 188 592 206 610 c 128,-1,3
 224 628 224 628 249.5 639 c 128,-1,4
 275 650 275 650 307 650 c 256,5,6
 339 650 339 650 364.5 639 c 128,-1,7
 390 628 390 628 408 610 c 128,-1,8
 426 592 426 592 436 568.5 c 128,-1,9
 446 545 446 545 446 519 c 0,10,11
 446 492 446 492 436 468 c 128,-1,12
 426 444 426 444 408 426 c 128,-1,13
 390 408 390 408 364.5 397 c 128,-1,14
 339 386 339 386 307 386 c 256,15,16
 275 386 275 386 249.5 397 c 128,-1,17
 224 408 224 408 206 426 c 128,-1,18
 188 444 188 444 178 468 c 128,-1,19
 168 492 168 492 168 519 c 0,0,1
EndSplineSet
EndChar

StartChar: cedilla
Encoding: 184 184 121
Width: 569
GlyphClass: 2
Flags: W
LayerCount: 2
Fore
SplineSet
244 7 m 1,0,-1
 328 7 l 1,1,-1
 286 -106 l 1,2,3
 295 -106 295 -106 304 -105 c 0,4,5
 311 -105 311 -105 318 -104.5 c 128,-1,6
 325 -104 325 -104 327 -104 c 0,7,8
 363 -104 363 -104 396 -111.5 c 128,-1,9
 429 -119 429 -119 454 -136.5 c 128,-1,10
 479 -154 479 -154 494 -182.5 c 128,-1,11
 509 -211 509 -211 509 -253 c 0,12,13
 509 -294 509 -294 491 -324.5 c 128,-1,14
 473 -355 473 -355 443 -375 c 128,-1,15
 413 -395 413 -395 374.5 -405.5 c 128,-1,16
 336 -416 336 -416 295 -416 c 0,17,18
 221 -416 221 -416 171 -403.5 c 128,-1,19
 121 -391 121 -391 78 -374 c 0,20,21
 66 -369 66 -369 60.5 -358.5 c 128,-1,22
 55 -348 55 -348 55 -337 c 0,23,24
 55 -321 55 -321 64.5 -308 c 128,-1,25
 74 -295 74 -295 91 -295 c 0,26,27
 97 -295 97 -295 105 -298 c 0,28,29
 143 -312 143 -312 181 -322 c 128,-1,30
 219 -332 219 -332 260 -332 c 0,31,32
 317 -332 317 -332 338.5 -310 c 128,-1,33
 360 -288 360 -288 360 -250 c 0,34,35
 360 -232 360 -232 351.5 -219 c 128,-1,36
 343 -206 343 -206 329 -197.5 c 128,-1,37
 315 -189 315 -189 297.5 -185 c 128,-1,38
 280 -181 280 -181 261 -181 c 0,39,40
 253 -181 253 -181 245.5 -182 c 128,-1,41
 238 -183 238 -183 231 -183 c 0,42,43
 210 -183 210 -183 199 -173.5 c 128,-1,44
 188 -164 188 -164 188 -148 c 0,45,46
 188 -137 188 -137 194 -123 c 2,47,-1
 244 7 l 1,0,-1
EndSplineSet
EndChar

StartChar: onesuperior
Encoding: 185 185 122
Width: 700
GlyphClass: 2
Flags: W
LayerCount: 2
Fore
SplineSet
241 1184 m 2,0,1
 228 1176 228 1176 213 1176 c 0,2,3
 191 1176 191 1176 176 1192.5 c 128,-1,4
 161 1209 161 1209 161 1229 c 0,5,6
 161 1240 161 1240 167 1252 c 128,-1,7
 173 1264 173 1264 187 1272 c 2,8,-1
 393 1398 l 2,9,10
 410 1408 410 1408 430 1408 c 0,11,12
 455 1408 455 1408 473.5 1390 c 128,-1,13
 492 1372 492 1372 492 1335 c 2,14,-1
 492 660 l 2,15,16
 492 627 492 627 471 610.5 c 128,-1,17
 450 594 450 594 425 594 c 0,18,19
 399 594 399 594 378.5 610.5 c 128,-1,20
 358 627 358 627 358 660 c 2,21,-1
 358 1257 l 1,22,-1
 241 1184 l 2,0,1
EndSplineSet
EndChar

StartChar: ordmasculine
Encoding: 186 186 123
Width: 1075
GlyphClass: 2
Flags: W
LayerCount: 2
Fore
SplineSet
123 1127 m 256,0,1
 123 1202 123 1202 146.5 1271.5 c 128,-1,2
 170 1341 170 1341 219.5 1394.5 c 128,-1,3
 269 1448 269 1448 344 1480 c 128,-1,4
 419 1512 419 1512 523 1512 c 256,5,6
 627 1512 627 1512 703 1480 c 128,-1,7
 779 1448 779 1448 828.5 1394.5 c 128,-1,8
 878 1341 878 1341 901.5 1271.5 c 128,-1,9
 925 1202 925 1202 925 1127 c 256,10,11
 925 1052 925 1052 901.5 982 c 128,-1,12
 878 912 878 912 828.5 859 c 128,-1,13
 779 806 779 806 703 774 c 128,-1,14
 627 742 627 742 523 742 c 256,15,16
 419 742 419 742 344 774 c 128,-1,17
 269 806 269 806 219.5 859 c 128,-1,18
 170 912 170 912 146.5 982 c 128,-1,19
 123 1052 123 1052 123 1127 c 256,0,1
311 1125 m 0,20,21
 311 1077 311 1077 323 1029 c 128,-1,22
 335 981 335 981 361 943.5 c 128,-1,23
 387 906 387 906 427.5 882.5 c 128,-1,24
 468 859 468 859 524 859 c 256,25,26
 580 859 580 859 620.5 882.5 c 128,-1,27
 661 906 661 906 686.5 944 c 128,-1,28
 712 982 712 982 724 1030 c 128,-1,29
 736 1078 736 1078 736 1128 c 0,30,31
 736 1176 736 1176 724 1224 c 128,-1,32
 712 1272 712 1272 686.5 1309.5 c 128,-1,33
 661 1347 661 1347 620.5 1370.5 c 128,-1,34
 580 1394 580 1394 524 1394 c 256,35,36
 468 1394 468 1394 427.5 1370.5 c 128,-1,37
 387 1347 387 1347 361 1309 c 128,-1,38
 335 1271 335 1271 323 1222.5 c 128,-1,39
 311 1174 311 1174 311 1125 c 0,20,21
EndSplineSet
EndChar

StartChar: guillemotright
Encoding: 187 187 124
Width: 1195
GlyphClass: 2
Flags: W
LayerCount: 2
Fore
SplineSet
1040 537 m 1,0,-1
 806 126 l 2,1,2
 786 92 786 92 761 78 c 128,-1,3
 736 64 736 64 712 64 c 0,4,5
 695 64 695 64 680 70 c 128,-1,6
 665 76 665 76 653.5 86 c 128,-1,7
 642 96 642 96 635 110 c 128,-1,8
 628 124 628 124 628 140 c 0,9,10
 628 157 628 157 635 172 c 2,11,-1
 803 537 l 1,12,-1
 635 901 l 2,13,14
 628 916 628 916 628 933 c 0,15,16
 628 949 628 949 635 963 c 128,-1,17
 642 977 642 977 653.5 987 c 128,-1,18
 665 997 665 997 680 1003 c 128,-1,19
 695 1009 695 1009 712 1009 c 0,20,21
 736 1009 736 1009 761 995 c 128,-1,22
 786 981 786 981 806 947 c 2,23,-1
 1040 537 l 1,0,-1
600 537 m 1,24,-1
 366 126 l 2,25,26
 346 92 346 92 320.5 78 c 128,-1,27
 295 64 295 64 271 64 c 0,28,29
 238 64 238 64 213 86 c 128,-1,30
 188 108 188 108 188 140 c 0,31,32
 188 157 188 157 195 172 c 2,33,-1
 362 537 l 1,34,-1
 195 901 l 2,35,36
 188 916 188 916 188 933 c 0,37,38
 188 965 188 965 213 987 c 128,-1,39
 238 1009 238 1009 271 1009 c 0,40,41
 295 1009 295 1009 320.5 995 c 128,-1,42
 346 981 346 981 366 947 c 2,43,-1
 600 537 l 1,24,-1
EndSplineSet
EndChar

StartChar: onequarter
Encoding: 188 188 125
Width: 1634
GlyphClass: 2
Flags: W
LayerCount: 2
Fore
SplineSet
623 -25 m 2,0,1
 613 -52 613 -52 594 -64 c 128,-1,2
 575 -76 575 -76 553 -76 c 0,3,4
 525 -76 525 -76 501.5 -57 c 128,-1,5
 478 -38 478 -38 478 -6 c 0,6,7
 478 5 478 5 483 22 c 2,8,-1
 949 1399 l 2,9,10
 958 1426 958 1426 978 1438.5 c 128,-1,11
 998 1451 998 1451 1020 1451 c 0,12,13
 1049 1451 1049 1451 1072.5 1432.5 c 128,-1,14
 1096 1414 1096 1414 1096 1381 c 0,15,16
 1096 1369 1096 1369 1091 1352 c 2,17,-1
 623 -25 l 2,0,1
1206 757 m 2,18,19
 1232 805 1232 805 1262 821.5 c 128,-1,20
 1292 838 1292 838 1329 838 c 0,21,22
 1369 838 1369 838 1394.5 811 c 128,-1,23
 1420 784 1420 784 1420 730 c 2,24,-1
 1420 275 l 1,25,-1
 1493 275 l 2,26,27
 1519 275 1519 275 1531.5 260.5 c 128,-1,28
 1544 246 1544 246 1544 229 c 256,29,30
 1544 212 1544 212 1531.5 197.5 c 128,-1,31
 1519 183 1519 183 1493 183 c 2,32,-1
 1420 183 l 1,33,-1
 1420 68 l 2,34,35
 1420 34 1420 34 1400 17.5 c 128,-1,36
 1380 1 1380 1 1357 1 c 0,37,38
 1333 1 1333 1 1313 17.5 c 128,-1,39
 1293 34 1293 34 1293 68 c 2,40,-1
 1293 183 l 1,41,-1
 964 183 l 2,42,43
 931 183 931 183 912 199.5 c 128,-1,44
 893 216 893 216 893 242 c 0,45,46
 893 251 893 251 896 262 c 128,-1,47
 899 273 899 273 906 284 c 2,48,-1
 1206 757 l 2,18,19
1019 273 m 1,49,-1
 1293 273 l 1,50,-1
 1293 718 l 1,51,-1
 1019 273 l 1,49,-1
219 1184 m 2,52,53
 206 1176 206 1176 191 1176 c 0,54,55
 169 1176 169 1176 154 1192.5 c 128,-1,56
 139 1209 139 1209 139 1229 c 0,57,58
 139 1240 139 1240 145 1252 c 128,-1,59
 151 1264 151 1264 165 1272 c 2,60,-1
 371 1398 l 2,61,62
 388 1408 388 1408 408 1408 c 0,63,64
 433 1408 433 1408 451.5 1390 c 128,-1,65
 470 1372 470 1372 470 1335 c 2,66,-1
 470 660 l 2,67,68
 470 627 470 627 449 610.5 c 128,-1,69
 428 594 428 594 403 594 c 0,70,71
 377 594 377 594 356.5 610.5 c 128,-1,72
 336 627 336 627 336 660 c 2,73,-1
 336 1257 l 1,74,-1
 219 1184 l 2,52,53
EndSplineSet
EndChar

StartChar: onehalf
Encoding: 189 189 126
Width: 1655
GlyphClass: 2
Flags: W
LayerCount: 2
Fore
SplineSet
616 -25 m 2,0,1
 607 -52 607 -52 588 -64 c 128,-1,2
 569 -76 569 -76 547 -76 c 0,3,4
 518 -76 518 -76 494.5 -57 c 128,-1,5
 471 -38 471 -38 471 -5 c 0,6,7
 471 5 471 5 476 22 c 2,8,-1
 943 1399 l 2,9,10
 952 1426 952 1426 972 1438.5 c 128,-1,11
 992 1451 992 1451 1014 1451 c 0,12,13
 1043 1451 1043 1451 1066.5 1432.5 c 128,-1,14
 1090 1414 1090 1414 1090 1380 c 0,15,16
 1090 1369 1090 1369 1085 1352 c 2,17,-1
 616 -25 l 2,0,1
1246 721 m 0,18,19
 1202 721 1202 721 1159 706.5 c 128,-1,20
 1116 692 1116 692 1084 676 c 0,21,22
 1070 669 1070 669 1055 669 c 0,23,24
 1032 669 1032 669 1017 684.5 c 128,-1,25
 1002 700 1002 700 1002 720 c 0,26,27
 1002 744 1002 744 1029.5 765.5 c 128,-1,28
 1057 787 1057 787 1097 803 c 128,-1,29
 1137 819 1137 819 1182.5 828 c 128,-1,30
 1228 837 1228 837 1263 837 c 0,31,32
 1320 837 1320 837 1368.5 823.5 c 128,-1,33
 1417 810 1417 810 1453 783.5 c 128,-1,34
 1489 757 1489 757 1509.5 718 c 128,-1,35
 1530 679 1530 679 1530 628 c 0,36,37
 1530 563 1530 563 1492.5 493.5 c 128,-1,38
 1455 424 1455 424 1397.5 356 c 128,-1,39
 1340 288 1340 288 1271.5 225 c 128,-1,40
 1203 162 1203 162 1140 112 c 1,41,-1
 1482 112 l 2,42,43
 1509 112 1509 112 1523 94 c 128,-1,44
 1537 76 1537 76 1537 55 c 256,45,46
 1537 34 1537 34 1523.5 16.5 c 128,-1,47
 1510 -1 1510 -1 1482 -1 c 2,48,-1
 1043 -1 l 2,49,50
 1002 -1 1002 -1 982.5 18.5 c 128,-1,51
 963 38 963 38 963 66 c 0,52,53
 963 92 963 92 980.5 116.5 c 128,-1,54
 998 141 998 141 1027 168 c 128,-1,55
 1056 195 1056 195 1094.5 228 c 128,-1,56
 1133 261 1133 261 1174 304 c 0,57,58
 1217 344 1217 344 1255 386.5 c 128,-1,59
 1293 429 1293 429 1321.5 469.5 c 128,-1,60
 1350 510 1350 510 1366.5 547 c 128,-1,61
 1383 584 1383 584 1383 614 c 0,62,63
 1383 641 1383 641 1371.5 661 c 128,-1,64
 1360 681 1360 681 1341 694.5 c 128,-1,65
 1322 708 1322 708 1297.5 714.5 c 128,-1,66
 1273 721 1273 721 1246 721 c 0,18,19
219 1184 m 2,67,68
 206 1176 206 1176 191 1176 c 0,69,70
 169 1176 169 1176 154 1192.5 c 128,-1,71
 139 1209 139 1209 139 1229 c 0,72,73
 139 1240 139 1240 145 1252 c 128,-1,74
 151 1264 151 1264 165 1272 c 2,75,-1
 371 1398 l 2,76,77
 388 1408 388 1408 408 1408 c 0,78,79
 433 1408 433 1408 451.5 1390 c 128,-1,80
 470 1372 470 1372 470 1335 c 2,81,-1
 470 660 l 2,82,83
 470 627 470 627 449 610.5 c 128,-1,84
 428 594 428 594 403 594 c 0,85,86
 377 594 377 594 356.5 610.5 c 128,-1,87
 336 627 336 627 336 660 c 2,88,-1
 336 1257 l 1,89,-1
 219 1184 l 2,67,68
EndSplineSet
EndChar

StartChar: threequarters
Encoding: 190 190 127
Width: 1722
GlyphClass: 2
Flags: W
LayerCount: 2
Fore
SplineSet
296 1059 m 2,0,1
 331 1059 331 1059 361 1068.5 c 128,-1,2
 391 1078 391 1078 413.5 1095.5 c 128,-1,3
 436 1113 436 1113 449 1138.5 c 128,-1,4
 462 1164 462 1164 462 1197 c 0,5,6
 462 1227 462 1227 450 1250 c 128,-1,7
 438 1273 438 1273 417 1288.5 c 128,-1,8
 396 1304 396 1304 369 1312 c 128,-1,9
 342 1320 342 1320 312 1320 c 256,10,11
 282 1320 282 1320 252 1314.5 c 128,-1,12
 222 1309 222 1309 196 1303 c 128,-1,13
 170 1297 170 1297 151.5 1291.5 c 128,-1,14
 133 1286 133 1286 126 1286 c 0,15,16
 101 1286 101 1286 86.5 1302 c 128,-1,17
 72 1318 72 1318 72 1338 c 0,18,19
 72 1361 72 1361 96 1379 c 128,-1,20
 120 1397 120 1397 156 1409 c 128,-1,21
 192 1421 192 1421 234.5 1427 c 128,-1,22
 277 1433 277 1433 315 1433 c 0,23,24
 372 1433 372 1433 421.5 1417.5 c 128,-1,25
 471 1402 471 1402 508 1372.5 c 128,-1,26
 545 1343 545 1343 566.5 1299.5 c 128,-1,27
 588 1256 588 1256 588 1199 c 0,28,29
 588 1125 588 1125 544 1077.5 c 128,-1,30
 500 1030 500 1030 433 1012 c 1,31,-1
 433 1010 l 1,32,33
 513 993 513 993 559.5 936 c 128,-1,34
 606 879 606 879 606 796 c 0,35,36
 606 740 606 740 584 697 c 128,-1,37
 562 654 562 654 523.5 625 c 128,-1,38
 485 596 485 596 433 581 c 128,-1,39
 381 566 381 566 320 566 c 0,40,41
 290 566 290 566 248 572.5 c 128,-1,42
 206 579 206 579 168.5 591 c 128,-1,43
 131 603 131 603 104.5 621.5 c 128,-1,44
 78 640 78 640 78 664 c 0,45,46
 78 684 78 684 93 699.5 c 128,-1,47
 108 715 108 715 134 715 c 0,48,49
 145 715 145 715 164 709 c 128,-1,50
 183 703 183 703 207.5 696 c 128,-1,51
 232 689 232 689 260.5 683 c 128,-1,52
 289 677 289 677 319 677 c 0,53,54
 390 677 390 677 432.5 708 c 128,-1,55
 475 739 475 739 475 802 c 0,56,57
 475 836 475 836 462 864.5 c 128,-1,58
 449 893 449 893 425.5 913 c 128,-1,59
 402 933 402 933 370 944 c 128,-1,60
 338 955 338 955 300 955 c 2,61,-1
 255 955 l 2,62,63
 229 955 229 955 216.5 970.5 c 128,-1,64
 204 986 204 986 204 1006 c 256,65,66
 204 1026 204 1026 216.5 1041.5 c 128,-1,67
 229 1057 229 1057 255 1058 c 2,68,-1
 296 1059 l 2,0,1
682 -25 m 2,69,70
 673 -52 673 -52 654 -64 c 128,-1,71
 635 -76 635 -76 613 -76 c 0,72,73
 585 -76 585 -76 561.5 -57 c 128,-1,74
 538 -38 538 -38 538 -6 c 0,75,76
 538 5 538 5 543 22 c 2,77,-1
 1009 1399 l 2,78,79
 1018 1426 1018 1426 1038 1438.5 c 128,-1,80
 1058 1451 1058 1451 1080 1451 c 0,81,82
 1109 1451 1109 1451 1132.5 1432.5 c 128,-1,83
 1156 1414 1156 1414 1156 1380 c 0,84,85
 1156 1369 1156 1369 1151 1352 c 2,86,-1
 682 -25 l 2,69,70
1253 757 m 2,87,88
 1279 805 1279 805 1309 821.5 c 128,-1,89
 1339 838 1339 838 1376 838 c 0,90,91
 1416 838 1416 838 1441.5 811 c 128,-1,92
 1467 784 1467 784 1467 730 c 2,93,-1
 1467 275 l 1,94,-1
 1540 275 l 2,95,96
 1566 275 1566 275 1578.5 260.5 c 128,-1,97
 1591 246 1591 246 1591 229 c 256,98,99
 1591 212 1591 212 1578.5 197.5 c 128,-1,100
 1566 183 1566 183 1540 183 c 2,101,-1
 1467 183 l 1,102,-1
 1467 68 l 2,103,104
 1467 34 1467 34 1447 17.5 c 128,-1,105
 1427 1 1427 1 1404 1 c 0,106,107
 1380 1 1380 1 1360 17.5 c 128,-1,108
 1340 34 1340 34 1340 68 c 2,109,-1
 1340 183 l 1,110,-1
 1012 183 l 2,111,112
 978 183 978 183 959 199.5 c 128,-1,113
 940 216 940 216 940 242 c 0,114,115
 940 264 940 264 953 284 c 2,116,-1
 1253 757 l 2,87,88
1066 273 m 1,117,-1
 1340 273 l 1,118,-1
 1340 718 l 1,119,-1
 1066 273 l 1,117,-1
EndSplineSet
EndChar

